<?xml version="1.0" encoding="UTF-8" standalone="no"?><svg xmlns:dc="http://purl.org/dc/elements/1.1/" xmlns:cc="http://web.resource.org/cc/" xmlns:rdf="http://www.w3.org/1999/02/22-rdf-syntax-ns#" xmlns:svg="http://www.w3.org/2000/svg" xmlns="http://www.w3.org/2000/svg" xmlns:xlink="http://www.w3.org/1999/xlink" xmlns:sodipodi="http://sodipodi.sourceforge.net/DTD/sodipodi-0.dtd" xmlns:inkscape="http://www.inkscape.org/namespaces/inkscape" version="1.0" width="108.07086" height="124.01575" id="svg2166" sodipodi:version="0.32" inkscape:version="0.45" sodipodi:docname="kakugyou.svg" inkscape:output_extension="org.inkscape.output.svg.inkscape" sodipodi:docbase="C:\Develop\Shogi\Shogi\gfx\default" sodipodi:modified="true"><metadata id="metadata15"><rdf:RDF><cc:Work rdf:about=""><dc:format>image/svg+xml</dc:format><dc:type rdf:resource="http://purl.org/dc/dcmitype/StillImage"/><dc:title>角行</dc:title><dc:date>2007-07-22</dc:date><dc:creator><cc:Agent><dc:title>13xforever</dc:title></cc:Agent></dc:creator><dc:language>ja</dc:language><dc:subject><rdf:Bag><rdf:li>kakugyou</rdf:li><rdf:li>kakugyo</rdf:li><rdf:li>角行</rdf:li><rdf:li>shougi</rdf:li><rdf:li>shogi</rdf:li><rdf:li>将棋</rdf:li></rdf:Bag></dc:subject><dc:coverage>board game</dc:coverage><cc:license rdf:resource="http://creativecommons.org/licenses/by-sa/3.0/"/></cc:Work><cc:License rdf:about="http://creativecommons.org/licenses/by-sa/3.0/"><cc:permits rdf:resource="http://web.resource.org/cc/Reproduction"/><cc:permits rdf:resource="http://web.resource.org/cc/Distribution"/><cc:requires rdf:resource="http://web.resource.org/cc/Notice"/><cc:requires rdf:resource="http://web.resource.org/cc/Attribution"/><cc:permits rdf:resource="http://web.resource.org/cc/DerivativeWorks"/><cc:requires rdf:resource="http://web.resource.org/cc/ShareAlike"/></cc:License></rdf:RDF></metadata><sodipodi:namedview inkscape:window-height="575" inkscape:window-width="765" inkscape:pageshadow="2" inkscape:pageopacity="0.0" guidetolerance="10.0" gridtolerance="10.0" objecttolerance="10.0" borderopacity="1.0" bordercolor="#666666" pagecolor="#ffffff" id="base" inkscape:zoom="3.0399365" inkscape:cx="54.035431" inkscape:cy="62.007874" inkscape:window-x="25" inkscape:window-y="368" inkscape:current-layer="svg2166"/><defs id="defs2168"><linearGradient id="linearGradient10936"><stop style="stop-color:#fcf3e8;stop-opacity:1" offset="0" id="stop10938"/><stop style="stop-color:#ba6100;stop-opacity:1" offset="1" id="stop10940"/></linearGradient><linearGradient x1="17.523264" y1="5.9785309" x2="101.69292" y2="113.38583" id="linearGradient10942" xlink:href="#linearGradient10936" gradientUnits="userSpaceOnUse" gradientTransform="translate(3.1889734,0)"/><linearGradient x1="17.523264" y1="5.9785309" x2="101.69292" y2="113.38583" id="linearGradient12957" xlink:href="#linearGradient10936" gradientUnits="userSpaceOnUse" gradientTransform="translate(3.1889734,0)"/></defs><g id="layer1"><g transform="matrix(0.96514,0,0,0.9687658,1.8836745,8.83634)" id="g12950"><path d="M 3.6843532,112.89045 L 104.38651,112.89045 L 87.439074,5.7639005 L 54.035433,0.49538136 L 20.63179,5.7639005 L 3.6843532,112.89045 z " style="fill:url(#linearGradient12957);fill-opacity:1;fill-rule:evenodd;stroke:#000000;stroke-width:1.03417838;stroke-linecap:butt;stroke-linejoin:miter;stroke-miterlimit:4;stroke-dasharray:none;stroke-opacity:0.49803922" id="path9965"/><path d="M 53.647616,10.896232 C 54.681771,10.896267 56.200719,10.702359 58.204465,10.314507 C 60.208156,9.9267261 61.565514,9.5712277 62.276542,9.2480107 C 62.987507,8.9248668 63.795458,8.8925488 64.700397,9.1510565 C 65.605269,9.4096375 66.607128,9.8944081 67.705978,10.60537 C 68.804755,11.316402 68.449256,11.930445 66.639482,12.4475 C 64.829636,12.964622 61.727104,15.420793 57.331877,19.816021 C 60.563654,19.169686 62.535055,18.652597 63.246084,18.264753 C 63.957049,17.876964 64.765,17.812328 65.669939,18.070845 C 66.57481,18.329417 67.673623,18.846505 68.966383,19.622112 C 70.259067,20.397771 70.679201,21.108768 70.226788,21.755105 C 69.774296,22.40149 69.515752,23.758848 69.451154,25.827182 C 69.386479,27.895557 69.515752,31.030407 69.838971,35.231741 C 70.162112,39.433097 70.259067,42.341721 70.129834,43.957621 C 70.000522,45.573525 69.289525,46.930883 67.996841,48.029698 C 66.704082,49.128509 65.863813,49.096191 65.476031,47.932744 C 65.08818,46.769293 64.183275,45.541207 62.761313,44.248484 C 61.339287,42.955764 61.436241,42.535629 63.052176,42.988079 C 64.668046,43.440534 65.766859,43.569806 66.348619,43.375896 C 66.930308,43.18199 67.156535,41.21059 67.027299,37.461688 C 66.89799,33.712804 66.7364,30.351728 66.542527,27.37845 C 66.348584,24.405208 66.122357,22.498444 65.863848,21.658151 C 65.605269,20.817906 65.055862,20.365453 64.215626,20.300792 C 63.375324,20.236181 60.692926,20.59168 56.168426,21.367288 C 57.33185,22.142945 57.816621,22.821624 57.622739,23.403327 C 57.428804,23.985074 57.33185,25.051569 57.331877,26.602816 L 60.434412,25.827182 C 61.468559,25.568658 62.27651,25.69793 62.858267,26.214999 C 63.43996,26.732107 63.149098,27.18456 61.985679,27.572358 C 60.822199,27.960193 59.270933,28.348009 57.331877,28.735809 L 57.331877,33.58352 C 58.883116,33.324988 60.14352,33.098761 61.113091,32.90484 C 62.082602,32.710945 62.955189,32.872535 63.730855,33.389611 C 64.506455,33.906712 64.247911,34.326847 62.955221,34.650016 C 61.662468,34.973208 59.788021,35.393342 57.331877,35.910421 C 57.461122,38.366602 57.428804,40.725819 57.234922,42.988079 C 57.040988,45.250345 56.685489,46.446112 56.168426,46.575385 C 55.651312,46.704656 55.36045,45.767433 55.295838,43.763713 C 55.231178,41.759996 55.134223,39.271507 55.004975,36.298238 C 53.582958,36.556792 52.484144,36.7507 51.708532,36.879963 C 50.932878,37.009244 50.027973,36.7507 48.993814,36.104329 C 47.959618,35.457978 47.991937,35.070162 49.090768,34.940879 C 50.189563,34.811617 52.160964,34.488437 55.004975,33.971337 L 55.004975,29.317534 C 52.419508,29.705367 50.73897,29.640731 49.963356,29.123626 C 49.187704,28.606554 49.25234,28.251055 50.157264,28.057129 C 51.06215,27.863239 52.678052,27.50774 55.004975,26.990633 C 55.004951,24.146664 54.681771,22.40149 54.035433,21.755105 L 48.21818,22.530739 C 47.959618,27.701648 47.636438,31.612131 47.248638,34.262199 C 46.860805,36.91229 46.27908,39.368461 45.503462,41.63072 C 44.727814,43.892987 43.14423,45.638161 40.752705,46.866248 C 38.36116,48.094332 38.070298,47.835788 39.880117,46.090614 C 41.689919,44.345439 42.98264,42.115495 43.758286,39.400773 C 44.533906,36.686064 45.018677,33.389624 45.212599,29.511442 C 45.406493,25.633294 45.244903,23.209441 44.727828,22.239876 C 44.210726,21.270358 44.339998,20.850224 45.115645,20.979471 C 45.891264,21.108768 46.666897,21.173404 47.442546,21.17338 C 48.218163,21.173404 50.73897,20.850224 55.004975,20.203837 C 57.073306,17.61842 58.689208,15.679337 59.852686,14.386584 C 61.016107,13.093894 61.403923,12.285943 61.016137,11.962729 C 60.62829,11.639582 60.014248,11.574946 59.174007,11.76882 C 58.33371,11.962763 57.364168,12.156671 56.26538,12.350546 C 55.166542,12.544487 53.970774,12.382897 52.678074,11.865775 C 49.446248,15.356157 46.472989,17.78001 43.758286,19.137341 C 41.043558,20.494725 40.655741,20.397771 42.594835,18.846478 C 44.533906,17.295239 46.27908,15.582383 47.830363,13.707905 C 49.381612,11.833491 50.383472,10.411497 50.835944,9.4419191 C 51.288377,8.4724143 51.482285,7.5351911 51.417669,6.6302468 C 51.353013,5.7253808 51.837783,5.4668365 52.871983,5.854613 C 53.906138,6.2424695 54.778725,6.694922 55.489746,7.2119721 C 56.200719,7.7290993 56.265355,8.246188 55.683655,8.7632396 C 55.101905,9.2803653 54.423227,9.9913622 53.647616,10.896232 L 53.647616,10.896232 z " style="font-size:49.64056015px;font-style:normal;font-variant:normal;font-weight:normal;font-stretch:normal;text-align:center;line-height:100%;writing-mode:lr-tb;text-anchor:middle;fill:#000000;fill-opacity:1;stroke:#000000;stroke-width:1.03417838;stroke-miterlimit:4;stroke-opacity:0.49803922;font-family:KaiTi" id="text2169"/><path d="M 65.411392,71.657019 C 66.273162,73.035951 66.574797,74.027037 66.316298,74.630282 C 66.057708,75.233577 65.971527,76.914116 66.057754,79.671901 C 66.14389,82.429728 66.316253,85.144444 66.574843,87.816056 C 66.833341,90.487693 66.919523,92.814592 66.833388,94.79676 C 66.74716,96.778939 66.488615,98.459477 66.057754,99.83838 C 65.626801,101.21728 64.808077,102.59619 63.60158,103.97509 C 62.394997,105.35399 61.619364,105.44017 61.274679,104.23364 C 60.929912,103.02709 60.19737,101.77746 59.07705,100.48474 C 57.956652,99.192019 56.965566,98.200933 56.103787,97.511478 C 55.241937,96.822029 55.888298,96.735848 58.042871,97.252934 C 60.19737,97.770025 61.490092,97.813116 61.92104,97.382206 C 62.351906,96.951302 62.61045,95.443126 62.696674,92.857676 C 62.782813,90.27224 62.825904,87.600615 62.825946,84.842793 C 62.825904,82.085002 62.739723,79.499559 62.567402,77.086455 C 62.394997,74.673398 61.96409,73.122132 61.274679,72.432653 C 55.586663,73.466858 51.83777,74.242491 50.027989,74.759554 C 48.218149,75.276668 46.753065,75.018124 45.632731,73.98392 C 44.512347,72.949769 44.296893,72.432681 44.986369,72.432653 C 45.675796,72.432681 47.442516,72.217227 50.286534,71.786291 C 53.130491,71.355412 57.611927,70.579779 63.730853,69.45939 C 69.849692,68.339062 73.986401,67.477247 76.140993,66.873944 C 78.295473,66.270707 80.105284,66.529252 81.57043,67.649578 C 83.035453,68.769969 83.380179,69.502511 82.604608,69.847207 C 81.828913,70.191963 80.4931,70.407417 78.597167,70.493568 C 76.701117,70.579779 74.546581,70.752142 72.133552,71.010657 C 69.72042,71.269231 67.479702,71.484685 65.411392,71.657019 L 65.411392,71.657019 z M 38.005665,76.310822 C 40.074003,78.551563 40.978908,80.533736 40.720384,82.257347 C 40.461819,83.980994 40.289456,86.954254 40.203294,91.177136 C 40.117093,95.400036 39.686186,98.63184 38.910572,100.87256 C 38.13492,103.11327 37.316196,103.07018 36.454398,100.74329 C 35.592567,98.416386 35.420204,96.735848 35.937309,95.701666 C 36.454382,94.667493 36.842198,93.030046 37.100759,90.789319 C 37.359287,88.548611 37.488559,85.963167 37.488576,83.032981 C 37.488559,80.102829 37.230015,78.293019 36.712942,77.603544 C 35.851112,78.465382 34.601481,79.628831 32.964046,81.093896 C 31.326586,82.559 29.473685,83.851722 27.405337,84.972065 C 25.336975,86.09244 24.561342,86.307893 25.078436,85.618427 C 25.59552,84.92899 26.931332,83.593178 29.085877,81.610986 C 31.240404,79.628831 33.265668,77.388114 35.161675,74.888826 C 37.057652,72.38959 38.565827,70.105781 39.686205,68.037394 C 40.806545,65.969072 41.194361,64.503988 40.849656,63.642136 C 40.50491,62.780359 41.366724,62.780359 43.435102,63.642136 C 45.503434,64.503988 46.192885,65.365802 45.503459,66.227582 L 43.435102,68.813028 C 42.745627,69.674874 40.935817,72.174136 38.005665,76.310822 L 38.005665,76.310822 z M 43.435102,51.231996 C 45.675796,52.438585 46.451429,53.34349 45.762003,53.946714 C 45.072526,54.550031 44.08144,55.498027 42.78874,56.790705 C 41.495996,58.08347 39.90164,59.634736 38.005665,61.444507 C 36.109656,63.254357 33.998211,64.848713 31.671323,66.227582 C 29.344413,67.60652 29.516775,66.917068 32.188412,64.159226 C 34.860025,61.401456 36.97147,58.772921 38.522755,56.273615 C 40.074003,53.774398 40.763454,51.964587 40.591111,50.844179 C 40.418728,49.72387 41.366724,49.853142 43.435102,51.231996 L 43.435102,51.231996 z M 62.308857,57.178522 C 64.894259,56.489113 66.74716,55.928934 67.867566,55.497982 C 68.987877,55.067119 70.194418,55.239482 71.48719,56.015071 C 72.779861,56.790748 72.521317,57.566381 70.711557,58.341972 C 68.901696,59.117647 67.005704,59.677827 65.023575,60.022512 C 63.041358,60.367278 61.447001,60.625823 60.240501,60.798146 C 59.03392,60.970548 57.611927,60.798185 55.974515,60.281057 C 54.337032,59.764008 54.380122,59.246919 56.103787,58.729789 C 57.82738,58.212742 59.895735,57.695653 62.308857,57.178522 L 62.308857,57.178522 z " style="font-size:66.18741608px;font-style:normal;font-variant:normal;font-weight:normal;font-stretch:normal;text-align:center;line-height:100%;writing-mode:lr-tb;text-anchor:middle;fill:#000000;fill-opacity:1;stroke:#000000;stroke-width:1.03417838;stroke-miterlimit:4;stroke-opacity:0.49803922;font-family:KaiTi" id="text2175"/></g></g></svg>
