<?xml version="1.0" encoding="UTF-8" standalone="no"?>
<svg
   xmlns:dc="http://purl.org/dc/elements/1.1/"
   xmlns:cc="http://creativecommons.org/ns#"
   xmlns:rdf="http://www.w3.org/1999/02/22-rdf-syntax-ns#"
   xmlns:svg="http://www.w3.org/2000/svg"
   xmlns="http://www.w3.org/2000/svg"
   xmlns:xlink="http://www.w3.org/1999/xlink"
   xmlns:sodipodi="http://sodipodi.sourceforge.net/DTD/sodipodi-0.dtd"
   xmlns:inkscape="http://www.inkscape.org/namespaces/inkscape"
   version="1.0"
   width="108.07086"
   height="124.01575"
   id="svg2166"
   sodipodi:version="0.32"
   inkscape:version="0.91 r"
   sodipodi:docname="bishopPW.svg"
   inkscape:output_extension="org.inkscape.output.svg.inkscape"
   sodipodi:modified="true">
  <metadata
     id="metadata15">
    <rdf:RDF>
      <cc:Work
         rdf:about="">
        <dc:format>image/svg+xml</dc:format>
        <dc:type
           rdf:resource="http://purl.org/dc/dcmitype/StillImage" />
        <dc:title></dc:title>
        <dc:date>2007-07-22</dc:date>
        <dc:creator>
          <cc:Agent>
            <dc:title>13xforever</dc:title>
          </cc:Agent>
        </dc:creator>
        <dc:language>ja</dc:language>
        <dc:subject>
          <rdf:Bag>
            <rdf:li>ryuuma</rdf:li>
            <rdf:li>ryuume</rdf:li>
            <rdf:li>ryuma</rdf:li>
            <rdf:li>ryume</rdf:li>
            <rdf:li>龍馬</rdf:li>
            <rdf:li>shougi</rdf:li>
            <rdf:li>shogi</rdf:li>
            <rdf:li>将棋</rdf:li>
          </rdf:Bag>
        </dc:subject>
        <dc:coverage>board game</dc:coverage>
        <cc:license
           rdf:resource="http://creativecommons.org/licenses/by-sa/3.0/" />
      </cc:Work>
      <cc:License
         rdf:about="http://creativecommons.org/licenses/by-sa/3.0/">
        <cc:permits
           rdf:resource="http://web.resource.org/cc/Reproduction" />
        <cc:permits
           rdf:resource="http://web.resource.org/cc/Distribution" />
        <cc:requires
           rdf:resource="http://web.resource.org/cc/Notice" />
        <cc:requires
           rdf:resource="http://web.resource.org/cc/Attribution" />
        <cc:permits
           rdf:resource="http://web.resource.org/cc/DerivativeWorks" />
        <cc:requires
           rdf:resource="http://web.resource.org/cc/ShareAlike" />
      </cc:License>
    </rdf:RDF>
  </metadata>
  <sodipodi:namedview
     inkscape:window-height="1053"
     inkscape:window-width="1920"
     inkscape:pageshadow="2"
     inkscape:pageopacity="0.0"
     guidetolerance="10.0"
     gridtolerance="10.0"
     objecttolerance="10.0"
     borderopacity="1.0"
     bordercolor="#666666"
     pagecolor="#ffffff"
     id="base"
     inkscape:zoom="3.0399365"
     inkscape:cx="54.035431"
     inkscape:cy="62.007874"
     inkscape:window-x="0"
     inkscape:window-y="0"
     inkscape:current-layer="svg2166"
     showgrid="false"
     inkscape:window-maximized="1" />
  <defs
     id="defs2168">
    <linearGradient
       id="linearGradient10936">
      <stop
         style="stop-color:#fcf3e8;stop-opacity:1"
         offset="0"
         id="stop10938" />
      <stop
         style="stop-color:#ba6100;stop-opacity:1"
         offset="1"
         id="stop10940" />
    </linearGradient>
    <linearGradient
       x1="17.523264"
       y1="5.9785309"
       x2="101.69292"
       y2="113.38583"
       id="linearGradient10942"
       xlink:href="#linearGradient10936"
       gradientUnits="userSpaceOnUse"
       gradientTransform="translate(3.1889734,0)" />
    <linearGradient
       x1="17.523264"
       y1="5.9785309"
       x2="101.69292"
       y2="113.38583"
       id="linearGradient12957"
       xlink:href="#linearGradient10936"
       gradientUnits="userSpaceOnUse"
       gradientTransform="translate(3.1889734,0)" />
    <linearGradient
       inkscape:collect="always"
       xlink:href="#linearGradient10936"
       id="linearGradient5288"
       x1="82.41243"
       y1="95.937393"
       x2="35.700928"
       y2="35.08086"
       gradientUnits="userSpaceOnUse" />
    <linearGradient
       inkscape:collect="always"
       xlink:href="#linearGradient10936"
       id="linearGradient5300"
       gradientUnits="userSpaceOnUse"
       x1="95.023354"
       y1="103.40771"
       x2="15.250781"
       y2="14.028131" />
  </defs>
  <g
     id="layer1"
     transform="matrix(-1,0,0,-1,108.07086,127.517)"
     style="fill-opacity:1;fill:url(#linearGradient5288)">
    <g
       transform="matrix(0.96514,0,0,0.9687658,1.8836745,8.83634)"
       id="g12950"
       style="fill-opacity:1;fill:url(#linearGradient5288)">
      <path
         d="m 3.6843532,112.89045 100.7021568,0 L 87.439074,5.7639005 54.035433,0.49538136 20.63179,5.7639005 3.6843532,112.89045 Z"
         style="fill:url(#linearGradient5300);fill-opacity:1;fill-rule:evenodd;stroke:#000000;stroke-width:1.03417838;stroke-linecap:butt;stroke-linejoin:miter;stroke-miterlimit:4;stroke-dasharray:none;stroke-opacity:0.49803922"
         id="path9965"
         inkscape:connector-curvature="0" />
      <path
         d="m 61.306998,11.477955 c 2.714684,-0.90487 4.42754,-1.454276 5.138574,-1.6482215 0.71096,-0.1938713 1.421957,-0.032281 2.132992,0.4847715 0.710958,0.517125 0.35546,1.066531 -1.066496,1.648221 -1.422032,0.58176 -3.555022,0.872622 -6.398978,0.872588 l -0.387817,3.878169 c -0.129304,1.292752 0.258513,1.777522 1.16345,1.454313 0.904873,-0.323151 1.648188,-0.67865 2.229947,-1.066496 0.581691,-0.387787 1.195733,-0.420105 1.84213,-0.09695 0.646325,0.32321 1.357322,0.775662 2.132993,1.357359 0.775595,0.581753 0.775595,1.066523 0,1.454313 -0.775671,0.387843 -1.680576,1.680565 -2.714718,3.878169 1.034142,0.904928 1.260368,1.454335 0.67868,1.648222 -0.581761,0.193929 -1.42203,0.355519 -2.52081,0.484771 -1.098847,0.129293 -3.19952,0.517109 -6.302024,1.16345 -0.258572,1.034197 -0.387844,2.068375 -0.387817,3.102535 1.809783,-0.258527 3.425685,-0.581708 4.847711,-0.969542 1.421962,-0.387799 2.423821,-0.355481 3.005581,0.09695 0.581689,0.45247 0.517053,0.807969 -0.193909,1.066497 -0.711032,0.25856 -1.615937,0.484787 -2.714718,0.678679 -1.098845,0.193924 -2.811702,0.420151 -5.138574,0.67868 -0.129299,1.163464 -0.193935,2.133006 -0.193908,2.908626 2.1976,-0.387804 4.039728,-0.743302 5.526391,-1.066496 1.486597,-0.323167 2.520774,-0.258531 3.102535,0.193908 0.581689,0.452466 0.161554,0.872601 -1.260405,1.260405 -1.422028,0.387829 -3.878199,0.646373 -7.368521,0.775634 -0.129299,1.680549 -0.129299,2.843999 0,3.490352 2.585417,-0.387809 4.589135,-0.775626 6.011162,-1.163451 1.421961,-0.387808 2.326866,-0.290853 2.714718,0.290863 0.387781,0.581733 0.0646,1.001868 -0.969542,1.260405 -1.034212,0.258551 -2.165344,0.452459 -3.393398,0.581725 -1.228117,0.129279 -2.617793,0.193915 -4.169032,0.193908 0.38779,2.843994 1.809784,4.39526 4.265986,4.653803 2.45614,0.258546 5.170855,0.129274 8.144154,-0.387817 2.973221,-0.517086 4.653759,-1.648218 5.04162,-3.393398 0.387772,-1.745168 0.646316,-3.231798 0.775634,-4.459894 0.129227,-1.228075 0.290817,-0.840259 0.484771,1.163451 0.193862,2.003727 0.549361,3.458039 1.066496,4.36294 0.517042,0.904909 0.581678,1.680542 0.193909,2.326901 -0.387864,0.646363 -1.422041,1.325042 -3.102535,2.036039 -1.680582,0.710997 -3.845891,1.163449 -6.495933,1.357359 -2.650117,0.193907 -4.91238,0.03232 -6.786795,-0.484771 -1.874477,-0.51709 -3.296471,-1.421995 -4.265986,-2.714718 -0.969568,-1.29272 -1.454338,-3.296439 -1.454313,-6.011162 -2.5e-5,-2.84398 0.06461,-5.558695 0.193908,-8.144154 0.129247,-2.585428 -0.06466,-4.459874 -0.581725,-5.623345 -0.517113,-1.163428 0.517064,-1.034156 3.102535,0.387817 1.292694,-0.258523 3.361048,-0.710976 6.20507,-1.357359 0.387783,-1.680516 0.614009,-2.940919 0.678679,-3.781215 0.0646,-0.840242 -0.549441,-1.163423 -1.84213,-0.969542 -1.292754,0.193936 -2.100705,0.517116 -2.423855,0.969542 -0.323211,0.452479 -0.775663,0.387843 -1.357359,-0.193908 -0.581754,-0.581698 -0.614072,-1.260377 -0.09696,-2.036039 0.51706,-0.775604 0.710969,-2.100644 0.581726,-3.975123 -0.129302,-1.874414 -0.581754,-3.231771 -1.357359,-4.072077 -0.775661,-0.8402324 -0.387845,-1.0987767 1.16345,-0.7756338 1.551237,0.3232179 2.391506,1.0665328 2.52081,2.2299468 l 0,0 z M 41.916154,29.51144 c -0.129284,1.809827 -0.19392,3.037913 -0.193908,3.68426 1.551254,-0.517075 2.520795,-0.517075 2.908626,0 0.387802,0.517102 0.193894,0.840283 -0.581725,0.969542 -0.775647,0.129285 -1.55128,0.193921 -2.326901,0.193909 -0.258557,1.422006 -0.452465,2.456183 -0.581726,3.102535 0.775622,-0.129263 1.486619,-0.323171 2.132993,-0.581725 0.646347,-0.258535 1.163436,-0.09694 1.551268,0.484771 0.387801,0.581734 0.193893,0.96955 -0.581726,1.16345 -0.775647,0.193917 -1.87446,0.290871 -3.296443,0.290863 -0.387828,3.361084 -0.904916,5.655665 -1.551268,6.88375 -0.64637,1.228086 -1.163459,1.131132 -1.551267,-0.290863 -0.387825,-1.421993 -0.387825,-2.61776 0,-3.587306 0.387808,-0.969537 0.743307,-2.22994 1.066496,-3.781215 0.323172,-1.551257 0.581716,-3.199477 0.775634,-4.944665 0.193898,-1.74516 0.06463,-3.005564 -0.387817,-3.781215 -0.452462,-0.775615 -0.48478,-1.163432 -0.09695,-1.16345 0.387807,1.8e-5 0.807942,0.06465 1.260405,0.193908 0.452442,0.129291 1.131121,0.129291 2.036038,0 0.904893,-0.129253 1.745162,-0.420116 2.52081,-0.872588 0.775618,-0.452433 1.583569,-0.484751 2.423856,-0.09695 0.840251,0.387836 1.454294,0.775652 1.84213,1.163451 0.387797,0.387834 0.387797,0.840287 0,1.357359 -0.387836,0.517105 -0.517108,2.068371 -0.387817,4.653802 0.129253,2.585456 0.290843,4.750765 0.484771,6.495933 0.193889,1.74518 0.161571,3.361082 -0.09695,4.847711 -0.258564,1.486631 -0.678699,2.48849 -1.260405,3.005581 -0.581743,0.517086 -1.098832,0.193906 -1.551268,-0.969542 -0.452469,-1.163451 -1.26042,-2.068356 -2.423855,-2.714719 -1.163464,-0.646359 -1.2281,-0.904903 -0.193908,-0.775633 1.034163,0.129274 1.809796,0.161592 2.326901,0.09695 0.517072,-0.06463 0.775616,-1.131129 0.775634,-3.199489 -1.8e-5,-2.06835 -0.06465,-4.265976 -0.193909,-6.592887 -0.129289,-2.326887 -0.323197,-3.845835 -0.581725,-4.556849 -0.258561,-0.71098 -0.646377,-1.066478 -1.163451,-1.066496 -0.517104,1.8e-5 -1.551281,0.12929 -3.102535,0.387817 l 0,0 z m 6.398979,-12.991865 c 2.068336,0.775663 2.811651,1.422024 2.229947,1.939084 -0.581746,0.517117 -1.648241,1.551294 -3.19949,3.102535 3.490331,-1.034152 5.558686,-1.260378 6.20507,-0.67868 0.646337,0.581751 0.290839,1.034204 -1.066496,1.35736 -1.35738,0.323204 -2.779374,0.614067 -4.265986,0.872587 -1.486648,0.258568 -3.651957,0.807975 -6.495932,1.648222 -2.844,0.840291 -4.621492,1.454334 -5.332482,1.84213 -0.711004,0.387837 -1.809817,0.09698 -3.296444,-0.872588 -1.486633,-0.96952 -1.551269,-1.421972 -0.193908,-1.357359 1.357354,0.06466 3.037892,-0.09693 5.041619,-0.484771 2.00371,-0.387793 4.750744,-1.034154 8.241109,-1.939084 1.292705,-2.326874 1.87443,-4.072048 1.745176,-5.235528 -2.585462,0.775663 -4.58918,0.969571 -6.011162,0.581725 -1.422006,-0.387787 -1.422006,-0.743285 0,-1.066496 1.421982,-0.32315 3.10252,-0.840239 5.04162,-1.551268 1.939065,-0.710964 3.393377,-0.969509 4.362939,-0.775633 0.96952,0.193941 1.228064,0.517121 0.775634,0.969542 -0.452475,0.452484 -1.712878,1.001891 -3.781214,1.648222 l 0,0 z m -2.52081,-8.1441548 c 1.680522,0.1293105 2.811653,0.4524909 3.393398,0.9695422 0.581705,0.517126 0.904885,1.1634866 0.969542,1.9390846 0.06461,0.775668 -0.06466,1.292757 -0.387817,1.551267 -0.323201,0.258579 -1.066516,-0.0646 -2.229947,-0.969542 -1.163467,-0.90487 -2.165327,-1.745139 -3.005581,-2.5208096 -0.840284,-0.7755956 -0.420149,-1.098776 1.260405,-0.9695422 l 0,0 z M 42.691788,18.652567 c 1.034164,0.775661 1.421981,1.583613 1.163451,2.423856 -0.258559,0.840295 -0.581739,1.228111 -0.969543,1.163451 -0.387829,-0.06461 -0.743328,-0.484747 -1.066496,-1.260405 -0.323193,-0.775608 -0.517101,-1.551241 -0.581725,-2.326902 -0.06465,-0.775604 0.420123,-0.775604 1.454313,0 l 0,0 z"
         style="font-style:normal;font-variant:normal;font-weight:normal;font-stretch:normal;font-size:49.64056015px;line-height:100%;font-family:KaiTi;text-align:center;writing-mode:lr-tb;text-anchor:middle;fill:url(#linearGradient5288);fill-opacity:1;stroke:#000000;stroke-width:1.03417838;stroke-miterlimit:4;stroke-opacity:0.49803922"
         id="text3153"
         inkscape:connector-curvature="0" />
      <path
         d="m 56.750149,54.333815 c 1.206505,1.034225 1.723594,1.852949 1.551268,2.456174 -0.1724,0.603315 -0.344763,1.594402 -0.517089,2.973263 2.068318,-0.344684 3.576493,-0.646319 4.52453,-0.904906 0.947955,-0.258502 1.766678,-0.17232 2.456174,0.258544 0.689408,0.43095 0.947952,0.818767 0.775634,1.163451 -0.172408,0.344767 -1.206585,0.775675 -3.102536,1.292723 -1.896033,0.517129 -3.619662,0.948036 -5.170892,1.292723 -0.172399,1.034216 -0.25858,2.671664 -0.258544,4.912347 2.068319,-0.344692 3.662675,-0.646327 4.783075,-0.904906 1.120318,-0.258509 2.111405,-0.08615 2.973263,0.517089 0.86177,0.603305 0.430863,1.206575 -1.292723,1.809813 -1.723672,0.603302 -3.878208,1.0773 -6.463615,1.421995 -0.172399,3.102563 -0.25858,5.084736 -0.258545,5.946526 4.826126,-0.517064 8.144111,-1.120334 9.953967,-1.809813 1.809765,-0.689424 3.145577,-1.03415 4.007441,-1.034178 0.861765,2.8e-5 1.809761,0.215482 2.843991,0.646362 1.034125,0.430934 2.283756,1.077295 3.748897,1.939084 1.465028,0.86184 1.680481,2.06838 0.646361,3.619624 -1.034234,1.551288 -1.680595,4.007459 -1.939084,7.368521 -0.2586,3.361091 -0.732598,6.635986 -1.421996,9.824695 -0.689505,3.188714 -2.154589,5.903434 -4.395258,8.144154 -2.240766,2.24071 -3.61967,2.41308 -4.136713,0.51709 -0.517134,-1.896 -1.809856,-3.79199 -3.878169,-5.68798 -2.068396,-1.895992 -2.111487,-2.542352 -0.129273,-1.939086 1.982133,0.603274 3.576489,1.034181 4.783075,1.292723 1.206495,0.258547 2.197582,-0.473996 2.973263,-2.197629 0.775585,-1.723624 1.465036,-4.524521 2.068357,-8.402699 0.603219,-3.878152 0.775582,-6.72214 0.517089,-8.531972 -0.258595,-1.809789 -0.861866,-2.800875 -1.809812,-2.973263 -0.948045,-0.172338 -2.41313,-0.172338 -4.395258,0 -1.982218,0.172388 -4.567662,0.517113 -7.756338,1.034179 -3.188751,0.517112 -8.575091,1.378926 -16.159037,2.585446 -0.861836,1.723649 -1.637469,1.896012 -2.326901,0.517089 -0.689471,-1.378883 -0.861834,-2.887058 -0.517089,-4.524531 0.344707,-1.637422 0.51707,-3.921231 0.517089,-6.851431 l 0,-9.307606 c -1.9e-5,-3.274854 -0.215473,-5.472481 -0.646362,-6.592887 -0.430925,-1.120311 -0.387835,-1.723581 0.129273,-1.809812 0.51707,-0.08613 1.421975,0.04314 2.714718,0.387817 1.2927,0.344775 3.361055,0.344775 6.20507,0 2.84396,-0.344677 5.860311,-0.861766 9.049061,-1.551268 3.188677,-0.689401 5.515576,-1.206489 6.980704,-1.551267 1.465041,-0.344674 2.5854,-0.258493 3.36108,0.258544 0.775586,0.517141 0.818677,1.034229 0.129272,1.551268 -0.689499,0.517139 -2.283855,1.034227 -4.783075,1.551268 -2.499304,0.517137 -4.610749,0.948044 -6.334343,1.292722 l 0,0 z M 43.30583,55.626538 c -0.344748,5.170933 -0.51711,9.480005 -0.517089,12.92723 -2.1e-5,3.447291 -0.172384,6.808367 -0.517089,10.083239 2.240696,-0.17234 4.309051,-0.387793 6.20507,-0.646361 1.895965,-0.258521 3.619594,-0.560156 5.170892,-0.904906 0.17233,-1.895967 0.258512,-3.791959 0.258545,-5.687981 -1.206573,0.172393 -2.456204,0.301665 -3.748897,0.387817 -1.292751,0.08621 -2.499291,-0.08615 -3.619624,-0.51709 -1.120384,-0.430876 -0.646386,-0.818693 1.421995,-1.16345 l 5.946526,-1.292723 0,-4.912348 c -1.723662,0.172401 -3.231837,0.215492 -4.524531,0.129273 -1.29275,-0.08614 -2.197655,-0.301598 -2.714718,-0.646362 -0.517114,-0.344687 0.172337,-0.689413 2.068357,-1.034178 1.895964,-0.344687 3.619593,-0.775594 5.170892,-1.292723 -3.3e-5,-2.41304 -0.08622,-4.481395 -0.258545,-6.20507 -3.102564,0.344772 -6.549822,0.603317 -10.341784,0.775633 l 0,0 z m -9.824694,30.249718 c 0.689439,1.896008 0.991074,3.619636 0.904906,5.170892 -0.0862,1.551276 -0.603284,3.145633 -1.551268,4.783075 -0.948007,1.637453 -1.896003,1.680544 -2.84399,0.129272 -0.948005,-1.55126 -0.991096,-2.887073 -0.129272,-4.007441 0.861805,-1.120349 1.508166,-2.887069 1.939084,-5.300164 0.430896,-2.413066 0.991076,-2.67161 1.68054,-0.775634 l 0,0 z m 27.147182,-3.878169 c 2.068315,1.034197 3.361037,2.197647 3.878169,3.490352 0.517045,1.292738 0.430864,2.456187 -0.258544,3.490352 -0.689495,1.03419 -1.465128,1.03419 -2.326902,0 -0.861855,-1.034165 -1.76676,-2.714703 -2.714718,-5.041619 -0.948034,-2.326882 -0.474036,-2.973243 1.421995,-1.939085 l 0,0 z m -18.873755,2.843991 c 1.551245,0.689468 2.542332,1.809827 2.973263,3.361079 0.430883,1.55128 0.172339,2.844001 -0.775634,3.878169 -0.948019,1.034187 -1.766743,0.689461 -2.456174,-1.034178 -0.689472,-1.723618 -1.16347,-3.404157 -1.421995,-5.04162 -0.258563,-1.637432 0.301616,-2.025248 1.68054,-1.16345 l 0,0 z m 9.307605,-1.034179 c 1.895962,0.68947 2.843958,1.982191 2.843991,3.878169 -3.3e-5,1.723643 -0.344759,2.628548 -1.034179,2.714718 -0.689483,0.08619 -1.378935,-0.473986 -2.068356,-1.68054 -0.689482,-1.206527 -1.249661,-2.542339 -1.68054,-4.007441 -0.430935,-1.465067 0.215425,-1.766702 1.939084,-0.904906 l 0,0 z"
         style="font-style:normal;font-variant:normal;font-weight:normal;font-stretch:normal;font-size:66.18741608px;line-height:100%;font-family:KaiTi;text-align:center;writing-mode:lr-tb;text-anchor:middle;fill:url(#linearGradient5288);fill-opacity:1;stroke:#000000;stroke-width:1.03417838;stroke-miterlimit:4;stroke-opacity:0.49803922"
         id="text2168"
         inkscape:connector-curvature="0" />
    </g>
  </g>
  <path
     style="color:#000000;clip-rule:nonzero;display:inline;overflow:visible;visibility:visible;opacity:1;isolation:auto;mix-blend-mode:normal;color-interpolation:sRGB;color-interpolation-filters:linearRGB;solid-color:#000000;solid-opacity:1;fill:#ff0000;fill-opacity:0.62716765;fill-rule:nonzero;stroke:#000000;stroke-width:0.03559643;stroke-linecap:butt;stroke-linejoin:miter;stroke-miterlimit:4;stroke-dasharray:none;stroke-dashoffset:0;stroke-opacity:1;color-rendering:auto;image-rendering:auto;shape-rendering:auto;text-rendering:auto;enable-background:accumulate"
     d="m 51.26477,64.925131 c -0.715498,-0.715498 -0.745229,-0.893574 -0.442531,-2.650512 0.178475,-1.035917 0.248564,-1.959416 0.155755,-2.052227 -0.09281,-0.09281 -1.431886,0.08211 -2.975727,0.388718 -1.611723,0.320083 -3.201048,0.457964 -3.732416,0.323803 l -0.925433,-0.233656 0.822386,-0.425812 c 0.452312,-0.234195 2.256794,-0.771637 4.00996,-1.194314 3.62089,-0.872969 3.54432,-0.779687 3.551495,-4.326699 0.0052,-2.56985 0.0722,-2.537829 -3.614004,-1.72701 -2.697901,0.59343 -3.022932,0.596434 -3.790705,0.03502 -0.576518,-0.421558 -0.455032,-0.511494 1.511392,-1.118859 1.176066,-0.363251 2.962882,-0.76348 3.970703,-0.889397 l 1.832402,-0.228945 0.216751,-3.307459 c 0.119213,-1.819103 0.145264,-3.378945 0.05789,-3.466318 -0.316572,-0.316571 -7.853278,0.958751 -10.318018,1.745961 -1.389663,0.443843 -3.122954,0.808877 -3.851757,0.811186 -1.500507,0.0048 -5.539915,-1.788665 -6.527274,-2.897986 -0.601987,-0.676347 -0.60069,-0.71957 0.05961,-1.986386 1.083249,-2.078259 1.672571,-4.484225 2.056371,-8.395343 0.529288,-5.393706 1.479174,-9.893881 2.588958,-12.265436 1.018055,-2.175533 4.161394,-5.701302 5.082899,-5.701302 0.286681,0 0.915864,0.872612 1.48242,2.055964 0.541386,1.13078 1.76567,2.930298 2.72063,3.998928 0.954961,1.06863 1.518769,1.859804 1.252907,1.758165 -0.265862,-0.10164 -1.559169,-0.448536 -2.874015,-0.77088 -3.046048,-0.74676 -3.88468,-0.488296 -4.905695,1.511922 -1.453147,2.846787 -2.803352,9.92852 -2.822085,14.801652 -0.01107,2.879438 0.287663,4.102816 1.232592,5.047744 1.090251,1.090252 5.567945,0.687731 22.663123,-2.037293 5.242549,-0.835679 5.946882,-1.023154 6.475173,-1.723526 l 0.592769,-0.785853 0.339859,0.893891 c 0.473484,1.245359 0.486194,2.476896 0.07048,6.828893 -0.198747,2.080635 -0.362626,4.678552 -0.364175,5.773147 -0.0026,1.866006 -0.366238,2.779663 -1.106198,2.779663 -0.1953,0 -0.241156,-2.5653 -0.121377,-6.789911 l 0.192514,-6.789915 -2.526701,0.211598 c -3.506414,0.293644 -8.693582,1.197014 -9.188027,1.600139 -0.275996,0.225021 -0.411193,1.351561 -0.411193,3.426302 0,3.030663 0.01446,3.088125 0.740147,2.941105 1.551661,-0.314355 4.391756,-0.43844 5.16709,-0.225751 0.625354,0.171543 0.178358,0.353879 -1.973725,0.805109 -1.530195,0.320835 -3.041224,0.658685 -3.357842,0.750775 -0.493055,0.143405 -0.57567,0.591098 -0.57567,3.119572 l 0,2.952137 2.422217,-0.219494 c 3.248035,-0.294329 3.449968,0.257166 0.360822,0.985435 -1.347075,0.317572 -2.544979,0.732337 -2.66201,0.921697 -0.117031,0.189359 -0.183225,1.573292 -0.147099,3.075409 0.05843,2.429479 -0.0068,2.769897 -0.590406,3.082246 -0.888169,0.475335 -0.947519,0.461808 -1.825231,-0.415901 z"
     id="path5290"
     inkscape:connector-curvature="0" />
  <path
     style="color:#000000;clip-rule:nonzero;display:inline;overflow:visible;visibility:visible;opacity:1;isolation:auto;mix-blend-mode:normal;color-interpolation:sRGB;color-interpolation-filters:linearRGB;solid-color:#000000;solid-opacity:1;fill:#ff0000;fill-opacity:0.62716765;fill-rule:nonzero;stroke:#000000;stroke-width:0.03559643;stroke-linecap:butt;stroke-linejoin:miter;stroke-miterlimit:4;stroke-dasharray:none;stroke-dashoffset:0;stroke-opacity:1;color-rendering:auto;image-rendering:auto;shape-rendering:auto;text-rendering:auto;enable-background:accumulate"
     d="m 73.916551,33.92586 c -0.660687,-2.272684 -0.495534,-4.680122 0.470948,-6.865014 0.825591,-1.866386 1.554441,-2.215802 2.380553,-1.141257 0.828812,1.078059 0.774737,2.243668 -0.191737,4.132917 -0.448177,0.87609 -1.03803,2.466467 -1.310785,3.534171 -0.272755,1.067705 -0.563436,2.008799 -0.645959,2.091322 -0.08252,0.08252 -0.398882,-0.70594 -0.70302,-1.752139 z"
     id="path5294"
     inkscape:connector-curvature="0" />
  <path
     style="color:#000000;clip-rule:nonzero;display:inline;overflow:visible;visibility:visible;opacity:1;isolation:auto;mix-blend-mode:normal;color-interpolation:sRGB;color-interpolation-filters:linearRGB;solid-color:#000000;solid-opacity:1;fill:#ff0000;fill-opacity:0.62716765;fill-rule:nonzero;stroke:#000000;stroke-width:0.03559643;stroke-linecap:butt;stroke-linejoin:miter;stroke-miterlimit:4;stroke-dasharray:none;stroke-dashoffset:0;stroke-opacity:1;color-rendering:auto;image-rendering:auto;shape-rendering:auto;text-rendering:auto;enable-background:accumulate"
     d="m 65.648941,35.7718 c -2.110833,-1.287057 -3.031856,-4.099041 -1.829085,-5.584401 0.401184,-0.495441 0.835747,-0.714662 1.165693,-0.58805 0.763531,0.292995 2.655732,6.817848 1.976242,6.814655 -0.143892,-6.77e-4 -0.734674,-0.289669 -1.31285,-0.642204 z"
     id="path5296"
     inkscape:connector-curvature="0" />
  <path
     style="color:#000000;clip-rule:nonzero;display:inline;overflow:visible;visibility:visible;opacity:1;isolation:auto;mix-blend-mode:normal;color-interpolation:sRGB;color-interpolation-filters:linearRGB;solid-color:#000000;solid-opacity:1;fill:#ff0000;fill-opacity:0.62716765;fill-rule:nonzero;stroke:#000000;stroke-width:0.03559643;stroke-linecap:butt;stroke-linejoin:miter;stroke-miterlimit:4;stroke-dasharray:none;stroke-dashoffset:0;stroke-opacity:1;color-rendering:auto;image-rendering:auto;shape-rendering:auto;text-rendering:auto;enable-background:accumulate"
     d="m 40.428192,70.602599 c -2.255783,-1.774399 -0.516036,-2.702751 8.926887,-4.763504 0.649509,-0.141744 0.698391,-0.254667 0.373237,-0.862226 -0.219173,-0.409528 -0.291714,-1.300599 -0.175126,-2.151203 0.174485,-1.273003 0.128455,-1.432089 -0.373237,-1.289934 -2.7452,0.777851 -4.366201,0.942164 -5.335181,0.5408 -0.56041,-0.232129 -1.164693,-0.694419 -1.34285,-1.027307 -0.647334,-1.209555 1.043189,-2.107709 6.21352,-3.301165 l 1.701492,-0.392751 0,-1.795791 0,-1.795791 -1.233578,0.22013 c -4.323288,0.771483 -6.167892,0.438867 -6.167892,-1.112188 0,-1.0932 1.437032,-1.866542 4.81699,-2.592274 l 2.748957,-0.590243 0.09818,-2.236106 0.09818,-2.236107 -2.236383,0.239253 c -2.046723,0.218963 -3.438861,0.537216 -8.643701,1.976008 -2.265441,0.626244 -3.437042,0.417262 -6.64379,-1.18507 -2.415906,-1.20717 -3.561082,-2.230522 -3.561082,-3.182257 0,-0.24253 0.440493,-1.35682 0.978873,-2.476201 0.96036,-1.996747 1.137453,-2.893185 1.994206,-10.094615 0.857381,-7.206699 2.193455,-10.756588 5.212874,-13.850369 1.970734,-2.01927 3.31577,-2.631644 4.188799,-1.907094 0.28812,0.239118 0.865936,1.208266 1.284035,2.153661 0.418098,0.945396 1.660735,2.686932 2.761415,3.87008 1.149509,1.235637 2.001236,2.449422 2.001236,2.851937 0,0.617322 -0.146876,0.682769 -1.233579,0.549669 -0.678468,-0.0831 -2.234854,-0.429645 -3.458636,-0.770104 -2.63483,-0.733013 -3.046219,-0.579323 -4.092376,1.528864 -1.713065,3.45212 -3.080803,15.410019 -1.992,17.415709 0.436639,0.804334 0.521904,0.820776 3.884505,0.749087 2.214281,-0.04721 7.051415,-0.654128 13.589306,-1.705065 8.831637,-1.419646 10.213139,-1.720143 10.627428,-2.31162 0.265344,-0.378832 0.840248,-0.679853 1.298415,-0.679853 0.664215,0 0.955586,0.300289 1.516137,1.562532 0.654806,1.474486 0.6723,1.758016 0.310457,5.031707 -0.435631,3.94127 -0.493777,17.567857 -0.08346,19.557623 0.14924,0.723699 0.375544,1.701617 0.502899,2.17315 0.277078,1.02588 -0.585525,2.096916 -1.420977,1.76433 -0.293289,-0.116756 -1.939534,-0.292227 -3.65832,-0.389936 -3.600578,-0.204682 -7.637736,0.336534 -15.43344,2.068991 -5.908038,1.312958 -6.871494,1.366298 -8.042426,0.445243 z m 8.179494,-1.103046 c 8.186545,-1.751603 12.106017,-2.277038 15.131895,-2.028543 5.008128,0.411282 4.611182,0.451645 4.553467,-0.463032 -0.02855,-0.452313 -0.227913,-1.932607 -0.443042,-3.289543 -0.254029,-1.602287 -0.35009,-5.402221 -0.274026,-10.839832 0.06442,-4.604967 0.01326,-7.787601 -0.11367,-7.072514 -0.433914,2.444418 -0.293055,17.600757 0.182349,19.620747 l 0.440779,1.872875 -3.817698,-0.189337 c -4.357278,-0.216096 -7.756513,0.223689 -15.834179,2.048599 -5.537822,1.251105 -6.94991,1.375769 -7.539299,0.6656 -0.319107,-0.384499 -0.218983,-0.562591 0.535392,-0.952307 0.818502,-0.422844 6.300229,-1.76151 9.712489,-2.371842 l 1.21864,-0.217968 -1.004206,-0.844985 c -0.980614,-0.825132 -0.998969,-0.89389 -0.781264,-2.926782 0.217547,-2.031424 0.204398,-2.080872 -0.543389,-2.043638 -0.589144,0.02934 -0.628563,0.07384 -0.170488,0.192481 0.520012,0.134684 0.567228,0.383337 0.371008,1.953831 -0.198898,1.591921 -0.13862,1.891276 0.522536,2.595044 0.882474,0.939349 1.218918,0.784786 -4.278021,1.965354 -5.428668,1.165906 -6.80685,1.869614 -5.743702,2.932761 0.749811,0.749812 1.974322,0.655425 7.874429,-0.606969 z m 12.041569,-4.017956 4.146667,-0.214912 0.210482,-3.652475 c 0.115762,-2.008861 0.188277,-5.872915 0.161138,-8.586788 -0.04367,-4.367298 -0.08071,-3.993027 -0.322329,3.256999 -0.150142,4.505223 -0.339037,8.257367 -0.419766,8.338096 -0.08073,0.08073 -1.896398,0.276913 -4.03482,0.435969 -2.138421,0.159053 -4.349986,0.354284 -4.914587,0.433845 -1.015261,0.143065 -1.028793,0.125969 -1.230719,-1.554766 -0.112295,-0.934684 -0.205458,-2.321592 -0.207031,-3.082019 -0.0032,-1.559397 -0.149499,-1.481626 4.899245,-2.604867 2.201798,-0.489852 2.385899,-0.589426 1.83482,-0.992382 -0.412944,-0.301954 -1.610352,-0.447901 -3.674732,-0.447901 l -3.062192,0 0,-2.443038 c 0,-2.050089 0.09259,-2.467232 0.57567,-2.593472 0.433203,-0.113209 0.392498,-0.159885 -0.164477,-0.188599 -0.712502,-0.03673 -0.740147,0.06628 -0.740147,2.757952 l 0,2.796111 3.289542,0 c 1.809248,0 3.289543,0.118414 3.289543,0.263137 0,0.144727 -0.925184,0.450174 -2.055964,0.678771 -1.130781,0.2286 -2.611075,0.577706 -3.289543,0.775796 -1.217384,0.355432 -1.233541,0.382149 -1.230719,2.035102 0.0016,0.921216 0.09807,2.467814 0.214435,3.436884 l 0.211576,1.761945 1.18362,-0.197238 c 0.650992,-0.108483 3.049621,-0.29395 5.330288,-0.41215 z m -7.401354,-0.584035 c 0.09828,-0.256104 0.130638,-0.836113 0.07191,-1.288909 l -0.10677,-0.823264 -0.952106,0.763457 c -0.618596,0.496027 -0.881476,0.947517 -0.750471,1.288909 0.249552,0.650322 1.494388,0.693172 1.737433,0.05981 z m 6.665429,-0.394397 3.897637,-0.220274 0.209321,-3.160576 c 0.115127,-1.738319 0.223991,-5.084961 0.241926,-7.436984 0.01793,-2.352023 0.130312,-5.664809 0.249732,-7.361748 l 0.217129,-3.085343 -2.46915,0.190406 c -1.35803,0.104724 -3.527407,0.365176 -4.820836,0.578781 -2.232637,0.368712 -2.361664,0.438245 -2.54872,1.373522 -0.108366,0.541833 -0.19703,1.534284 -0.19703,2.205448 l 0,1.220296 2.552067,-0.147737 c 2.768275,-0.16025 5.013881,0.454092 5.013881,1.37168 0,0.720242 -0.441908,0.901654 -4.091799,1.679756 l -3.309671,0.70557 -0.09769,1.835983 -0.09769,1.835982 3.129306,0.114519 c 2.396869,0.08772 3.260056,0.245393 3.68793,0.673678 0.91087,0.911746 0.0889,1.440103 -3.509705,2.256021 l -3.276626,0.742917 0,1.551615 c 0,2.330756 0.337115,3.674833 0.870379,3.4702 0.248585,-0.09539 2.20591,-0.272561 4.349612,-0.393712 z M 47.456346,61.265318 c 2.262215,-0.564561 1.520131,-0.643408 -1.053174,-0.1119 -1.707119,0.352599 -1.977276,0.333441 -2.486958,-0.176372 -0.50042,-0.50055 -0.510202,-0.610895 -0.07836,-0.883966 0.343813,-0.217409 0.365619,-0.31355 0.07191,-0.317059 -0.728164,-0.0087 -0.884741,1.04185 -0.226967,1.522827 0.752468,0.550219 1.459624,0.543933 3.773549,-0.03353 z m 0.281472,-2.282373 c 1.021202,-0.252499 2.263812,-0.551377 2.761355,-0.664175 0.867331,-0.196636 0.902115,-0.282812 0.843773,-2.09031 l -0.06085,-1.885221 -0.120536,1.718885 c -0.120149,1.713378 -0.124959,1.720026 -1.501682,2.075481 -2.34744,0.606085 -4.355463,1.234256 -4.060263,1.270174 0.154809,0.01885 1.117001,-0.172339 2.138203,-0.424834 z m 18.797874,-5.336441 c 0,-0.683794 -0.133585,-1.068782 -0.328954,-0.948036 -0.180925,0.111818 -0.328954,0.721407 -0.328954,1.354644 0,0.683793 0.133585,1.068782 0.328954,0.948036 0.180925,-0.111818 0.328954,-0.721407 0.328954,-1.354644 z M 47.7853,53.514689 c 0.510887,-0.167444 0.07479,-0.200017 -1.151339,-0.08599 -1.085549,0.100946 -2.035405,0.236995 -2.11079,0.302329 -0.265359,0.229971 2.449793,0.04991 3.262129,-0.216334 z m 2.384919,-0.540649 c -0.226156,-0.09126 -0.59623,-0.09126 -0.822386,0 -0.226156,0.09125 -0.04112,0.165921 0.411193,0.165921 0.452312,0 0.637349,-0.07467 0.411193,-0.165921 z m 1.562532,-0.111095 c 0,-0.180925 -0.23078,-0.328954 -0.512845,-0.328954 -0.282065,0 -0.421358,0.148029 -0.30954,0.328954 0.111818,0.180925 0.342598,0.328954 0.512845,0.328954 0.170247,0 0.30954,-0.148029 0.30954,-0.328954 z M 47.0383,51.348384 c -0.109309,-0.109308 -0.393032,-0.120993 -0.630495,-0.02596 -0.262418,0.105009 -0.18447,0.182958 0.198743,0.198741 0.346772,0.01428 0.541061,-0.06346 0.431752,-0.172773 l 0,-1.3e-5 z m 9.382049,-0.01912 c -0.226156,-0.09125 -0.596229,-0.09125 -0.822385,0 -0.226156,0.09126 -0.04112,0.165922 0.411192,0.165922 0.452313,0 0.637349,-0.07467 0.411193,-0.165922 z M 48.354117,51.01943 c -0.109309,-0.109308 -0.393032,-0.120993 -0.630495,-0.02596 -0.262418,0.105009 -0.18447,0.182958 0.198743,0.198741 0.346772,0.01428 0.541061,-0.06346 0.431752,-0.172773 l 0,-1.3e-5 z m 9.539673,0 c -0.109309,-0.109308 -0.393032,-0.120993 -0.630496,-0.02596 -0.262417,0.105009 -0.184469,0.182958 0.198744,0.198741 0.346772,0.01428 0.541061,-0.06346 0.431752,-0.172773 l 0,-1.3e-5 z m -7.723571,-0.34807 c -0.226156,-0.09125 -0.59623,-0.09125 -0.822386,0 -0.226156,0.09125 -0.04112,0.165921 0.411193,0.165921 0.452312,0 0.637349,-0.07467 0.411193,-0.165921 z m 9.210718,0 c -0.226156,-0.09125 -0.596229,-0.09125 -0.822385,0 -0.226156,0.09125 -0.04112,0.165921 0.411193,0.165921 0.452312,0 0.637348,-0.07467 0.411192,-0.165921 z m 2.056345,-0.440664 c 0.335069,-0.542153 -1.388012,-0.9903 -3.558054,-0.925397 l -2.034549,0.06085 1.809249,0.106664 c 0.995086,0.05867 2.179321,0.196274 2.631634,0.305796 0.772392,0.18703 0.782391,0.215435 0.164477,0.467276 -0.632149,0.25764 -0.629689,0.269045 0.06282,0.291259 0.396404,0.01273 0.812392,-0.125183 0.924419,-0.306447 z M 51.643867,46.70239 c -0.07121,-0.682503 -0.130667,-0.204709 -0.132127,1.061764 -0.0014,1.266474 0.0568,1.824887 0.129474,1.240915 0.07267,-0.58397 0.07386,-1.620176 0.0027,-2.302679 l -1.1e-5,0 z m 3.148183,2.969972 c -0.614317,-0.119183 -0.741823,-0.398245 -0.843773,-1.84669 l -0.120099,-1.706289 -0.06085,1.891487 c -0.06012,1.868707 -0.04996,1.890948 0.843774,1.84669 0.750545,-0.03717 0.781365,-0.06871 0.180949,-0.185198 z m 10.865127,-4.951034 c 0.110006,-1.49263 0.09362,-2.713499 -0.03641,-2.713042 -0.130033,4.6e-4 -0.286628,1.295713 -0.347994,2.878349 -0.139151,3.588666 0.115808,3.479022 0.384399,-0.165307 z M 54.260144,43.919502 c -0.10501,-0.262418 -0.182959,-0.18447 -0.198743,0.198743 -0.01428,0.346772 0.06346,0.541061 0.172773,0.431753 0.109309,-0.109309 0.120996,-0.393032 0.02597,-0.630496 z m -12.642736,0.172773 c -0.226156,-0.09126 -0.596229,-0.09126 -0.822385,0 -0.226156,0.09126 -0.04112,0.16592 0.411193,0.16592 0.452312,0 0.637348,-0.07466 0.411192,-0.16592 z m 26.10322,-3.864397 c -0.465312,-1.113655 -1.254651,-1.537644 -1.655413,-0.889197 -0.09919,0.160498 0.06845,0.27152 0.372538,0.246715 0.773651,-0.0631 1.392548,1.304543 1.468201,3.244445 l 0.06414,1.644771 0.121996,-1.532861 c 0.07099,-0.892021 -0.0843,-2.026605 -0.371465,-2.713873 z m -22.656053,3.554559 c -0.109309,-0.109308 -0.393032,-0.120995 -0.630496,-0.02597 -0.262418,0.10501 -0.18447,0.182958 0.198743,0.198743 0.346773,0.01428 0.541061,-0.06347 0.431753,-0.172774 z m 11.02682,-0.348071 c -0.226156,-0.09125 -0.59623,-0.09125 -0.822386,0 -0.226156,0.09126 -0.04112,0.16592 0.411193,0.16592 0.452312,0 0.637349,-0.07466 0.411193,-0.16592 z m 1.979986,-0.326867 c -0.222713,-0.09011 -0.666801,-0.09559 -0.986863,-0.01219 -0.320062,0.0834 -0.137842,0.157128 0.404933,0.163832 0.542774,0.0067 0.804643,-0.06154 0.58193,-0.151644 z m 2.30268,-0.328954 c -0.222713,-0.09011 -0.666801,-0.09559 -0.986863,-0.01219 -0.320062,0.0834 -0.137842,0.157128 0.404932,0.163832 0.542775,0.0067 0.804643,-0.06154 0.581931,-0.151644 z m 3.283282,-0.345335 c -0.407081,-0.07841 -1.073214,-0.07841 -1.480295,0 -0.40708,0.07841 -0.07401,0.142558 0.740147,0.142558 0.814162,0 1.147228,-0.06415 0.740148,-0.142558 z m -6.250131,-0.643615 c -0.226156,-0.09126 -0.59623,-0.09126 -0.822386,0 -0.226156,0.09126 -0.04112,0.16592 0.411193,0.16592 0.452312,0 0.637349,-0.07466 0.411193,-0.16592 z m 1.973725,-0.328954 c -0.226156,-0.09126 -0.596229,-0.09126 -0.822385,0 -0.226156,0.09126 -0.04112,0.16592 0.411193,0.16592 0.452312,0 0.637348,-0.07466 0.411192,-0.16592 z m 1.973726,-0.328954 c -0.226156,-0.09126 -0.59623,-0.09126 -0.822386,0 -0.226156,0.09126 -0.04112,0.16592 0.411193,0.16592 0.452312,0 0.637349,-0.07466 0.411193,-0.16592 z m 2.467157,-0.337851 c -0.316619,-0.08274 -0.834722,-0.08274 -1.15134,0 -0.316619,0.08274 -0.05757,0.150438 0.57567,0.150438 0.633237,0 0.892288,-0.0677 0.57567,-0.150438 z m 2.055964,-0.400355 c 0,-0.163987 -0.296059,-0.220737 -0.657909,-0.126111 -0.36185,0.09463 -0.657908,0.228797 -0.657908,0.298157 0,0.06936 0.296058,0.126111 0.657908,0.126111 0.36185,0 0.657909,-0.134171 0.657909,-0.298157 z"
     id="path5302"
     inkscape:connector-curvature="0" />
  <path
     style="color:#000000;clip-rule:nonzero;display:inline;overflow:visible;visibility:visible;opacity:1;isolation:auto;mix-blend-mode:normal;color-interpolation:sRGB;color-interpolation-filters:linearRGB;solid-color:#000000;solid-opacity:1;fill:#ff0000;fill-opacity:0.62716765;fill-rule:nonzero;stroke:#000000;stroke-width:0.03559643;stroke-linecap:butt;stroke-linejoin:miter;stroke-miterlimit:4;stroke-dasharray:none;stroke-dashoffset:0;stroke-opacity:1;color-rendering:auto;image-rendering:auto;shape-rendering:auto;text-rendering:auto;enable-background:accumulate"
     d="m 51.641988,93.789605 c -0.81858,-0.443945 -0.861164,-0.547217 -0.411193,-0.997189 0.314177,-0.314177 0.501956,-1.108466 0.501956,-2.12323 0,-1.885716 -0.145136,-1.933384 -3.454019,-1.134422 -1.085549,0.262116 -2.491829,0.472465 -3.125065,0.467441 -1.100594,-0.0087 -1.115093,-0.02374 -0.328955,-0.340458 0.452312,-0.182228 2.228665,-0.50743 3.947451,-0.72267 l 3.125065,-0.391346 0.251114,-3.286168 c 0.426919,-5.586827 -0.549297,-8.826402 -3.053782,-10.133985 -0.982966,-0.513204 -1.726009,-0.575953 -5.25671,-0.443923 -6.537516,0.244469 -9.181289,1.487226 -9.729466,4.573524 l -0.24909,1.402399 -0.40661,-1.360157 c -0.223636,-0.748086 -0.577177,-1.678861 -0.785646,-2.068389 -0.577872,-1.079764 -0.154969,-1.817713 1.584136,-2.764253 2.190103,-1.192003 5.280697,-1.855966 8.66586,-1.861717 5.591479,-0.0095 8.442667,1.315579 9.567313,4.446369 0.516595,1.438097 0.565766,2.444451 0.409355,8.377984 -0.100367,3.80748 -0.04374,7.209038 0.130065,7.812663 0.352458,1.224098 0.07122,1.33554 -1.381779,0.547527 z"
     id="path5304"
     inkscape:connector-curvature="0" />
  <path
     style="color:#000000;clip-rule:nonzero;display:inline;overflow:visible;visibility:visible;opacity:1;isolation:auto;mix-blend-mode:normal;color-interpolation:sRGB;color-interpolation-filters:linearRGB;solid-color:#000000;solid-opacity:1;fill:#ff0000;fill-opacity:0.62716765;fill-rule:nonzero;stroke:#000000;stroke-width:0.03559643;stroke-linecap:butt;stroke-linejoin:miter;stroke-miterlimit:4;stroke-dasharray:none;stroke-dashoffset:0;stroke-opacity:1;color-rendering:auto;image-rendering:auto;shape-rendering:auto;text-rendering:auto;enable-background:accumulate"
     d="m 48.93664,109.75366 c -0.542774,-0.15992 -1.282921,-0.653 -1.644771,-1.09573 l -0.657908,-0.80496 -2.585199,0.82013 c -2.214696,0.70259 -2.723683,0.76277 -3.551479,0.41988 -2.210549,-0.91563 0.147107,-2.5441 4.118103,-2.84443 l 2.430886,-0.18385 0.202177,-1.68259 c 0.420814,-3.50216 0.25306,-3.70276 -2.094782,-2.50498 -1.695034,0.86474 -2.231701,0.83184 -3.881605,-0.23798 -1.394813,-0.90442 -1.801125,-1.924388 -0.903765,-2.268738 0.262845,-0.100863 0.938462,-0.901112 1.501372,-1.77833 0.987012,-1.538126 1.003979,-1.624694 0.47627,-2.430079 -0.527837,-0.805582 -0.519852,-0.845937 0.225639,-1.140332 0.425062,-0.167857 2.327149,-0.557255 4.22686,-0.865328 1.89971,-0.308073 3.639056,-0.710493 3.865212,-0.894267 0.437625,-0.355612 0.580813,-2.567176 0.164477,-2.540373 -0.135693,0.0087 -1.504965,0.282902 -3.042827,0.609258 -2.903894,0.616249 -4.605359,0.443591 -4.605359,-0.467333 0,-0.678882 4.446549,-1.802579 7.132932,-1.802579 1.053442,0 1.090924,-0.04521 1.090924,-1.315817 0,-0.723699 -0.111022,-1.310617 -0.246716,-1.304261 -0.135693,0.0064 -1.208906,0.223199 -2.384918,0.481875 -2.848543,0.626567 -5.072207,0.62658 -5.592195,3.3e-5 -0.635158,-0.765319 1.512748,-1.494099 5.064527,-1.718383 1.647154,-0.104013 3.10358,-0.352053 3.236503,-0.551199 0.132924,-0.199147 0.243946,-0.933243 0.246716,-1.631324 0.0046,-1.147485 -0.06596,-1.253203 -0.73511,-1.102059 -4.379757,0.989281 -6.901993,1.33301 -7.413567,1.010317 -1.663359,-1.049221 0.418543,-2.029468 4.94641,-2.328979 1.583093,-0.104719 2.87835,-0.269779 2.87835,-0.366801 0,-0.09702 -0.302602,-0.801496 -0.672449,-1.565498 -1.062973,-2.195809 -2.177081,-2.558406 -7.195494,-2.341839 -7.108998,0.306785 -8.299858,1.038892 -9.133698,5.615134 -0.563988,3.09526 -0.860564,3.158199 -1.227967,0.260598 -0.122698,-0.967677 -0.449143,-2.324383 -0.725434,-3.014902 -0.736142,-1.8398 -0.493295,-2.961966 0.83392,-3.853447 2.972184,-1.996395 10.11986,-2.968971 14.173671,-1.928595 2.901103,0.744543 4.499606,1.861192 5.374579,3.754462 0.656534,1.420611 0.712673,2.0811 0.73191,8.611142 0.01146,3.889884 0.136372,7.849671 0.277584,8.799526 0.289006,1.943986 0.192189,2.012637 -1.707041,1.210422 -1.122278,-0.474039 -1.460912,-0.468701 -4.111363,0.06482 -3.193613,0.642852 -3.285829,0.741675 -3.337704,3.576836 -0.02065,1.128255 0.08293,1.330998 0.726582,1.422312 0.412862,0.05857 1.425328,-0.220107 2.249925,-0.619287 l 1.499266,-0.725783 0.674826,0.674826 c 0.649121,0.649122 0.654263,0.726218 0.134994,2.024002 -0.81425,2.03501 -0.703315,4.84889 0.266701,6.76491 1.081119,2.13548 0.868315,2.42844 -1.299965,1.78957 z"
     id="path5306"
     inkscape:connector-curvature="0" />
  <path
     style="color:#000000;clip-rule:nonzero;display:inline;overflow:visible;visibility:visible;opacity:1;isolation:auto;mix-blend-mode:normal;color-interpolation:sRGB;color-interpolation-filters:linearRGB;solid-color:#000000;solid-opacity:1;fill:#ff0000;fill-opacity:0.62716765;fill-rule:nonzero;stroke:#000000;stroke-width:0.03559643;stroke-linecap:butt;stroke-linejoin:miter;stroke-miterlimit:4;stroke-dasharray:none;stroke-dashoffset:0;stroke-opacity:1;color-rendering:auto;image-rendering:auto;shape-rendering:auto;text-rendering:auto;enable-background:accumulate"
     d="m 59.79213,91.904699 c -1.130455,-0.645108 -1.301024,-0.887633 -1.210805,-1.721599 0.175552,-1.622769 0.190167,-5.955887 0.03878,-11.497247 -0.131905,-4.828223 -0.08916,-5.356251 0.517133,-6.3882 0.363508,-0.618712 0.83944,-1.184438 1.057628,-1.257167 0.218187,-0.07273 0.836264,0.58152 1.373504,1.453887 0.53724,0.872366 1.43058,1.853541 1.985199,2.180388 1.413573,0.833044 1.255859,1.162058 -0.464106,0.968193 -1.38101,-0.15566 -1.495588,-0.107161 -1.84401,0.780555 -0.469182,1.195385 -0.110901,10.846092 0.466904,12.57661 0.390834,1.170541 0.438096,1.197805 1.982219,1.14345 0.870011,-0.03063 1.629286,-0.10464 1.687275,-0.164477 0.05799,-0.05984 0.211628,-0.822081 0.341417,-1.693875 l 0.235981,-1.58508 -1.109834,0.193996 c -1.298538,0.226981 -2.112595,-0.191231 -1.826,-0.938087 0.137573,-0.358508 0.61232,-0.526631 1.487109,-0.526631 1.176061,0 1.302455,-0.08717 1.490618,-1.027982 0.365912,-1.829559 0.33285,-1.875168 -1.084983,-1.496727 -1.369315,0.365491 -2.327917,-0.03119 -2.327917,-0.963322 0,-0.444559 0.359616,-0.570285 2.713873,-0.948805 0.678468,-0.109084 1.233578,-0.271883 1.233578,-0.361774 0,-0.08989 0.234545,-1.298945 0.521211,-2.686785 0.882339,-4.271676 2.060622,-5.609436 2.751035,-3.123379 0.459504,1.654596 0.459421,1.655497 -0.442279,4.767073 -0.433691,1.496577 -0.96203,4.126336 -1.174086,5.843908 -0.327856,2.655499 -0.310491,3.332088 0.116029,4.520914 l 0.501586,1.398055 -2.087688,0 c -1.377358,0 -2.575594,0.221393 -3.521666,0.650684 -1.792626,0.813424 -1.814131,0.812815 -3.407704,-0.09658 z"
     id="path5308"
     inkscape:connector-curvature="0" />
  <path
     style="color:#000000;clip-rule:nonzero;display:inline;overflow:visible;visibility:visible;opacity:1;isolation:auto;mix-blend-mode:normal;color-interpolation:sRGB;color-interpolation-filters:linearRGB;solid-color:#000000;solid-opacity:1;fill:#ff0000;fill-opacity:0.62716765;fill-rule:nonzero;stroke:#000000;stroke-width:0.03559643;stroke-linecap:butt;stroke-linejoin:miter;stroke-miterlimit:4;stroke-dasharray:none;stroke-dashoffset:0;stroke-opacity:1;color-rendering:auto;image-rendering:auto;shape-rendering:auto;text-rendering:auto;enable-background:accumulate"
     d="m 59.463176,110.44791 c -1.618491,-0.66243 -2.418429,-2.75386 -1.673992,-4.37662 0.217948,-0.47509 0.09989,-0.57655 -0.675732,-0.5807 -2.252469,-0.0121 -2.279157,-1.30746 -0.04647,-2.25568 1.35206,-0.57422 1.374376,-0.60741 0.664059,-0.98756 -0.963901,-0.51586 -0.931437,-1.38683 0.08737,-2.343949 1.159451,-1.089247 1.033893,-1.270391 -0.661072,-0.953737 -1.925526,0.359727 -3.20755,-0.09113 -3.062473,-1.07699 0.121652,-0.826679 0.277792,-0.88214 5.861747,-2.082074 2.261561,-0.485986 5.878161,-1.463198 8.03689,-2.171582 4.187977,-1.37428 4.495374,-1.376149 6.515019,-0.03961 1.836886,1.215594 1.601862,1.591813 -1.147023,1.836121 -1.818883,0.161655 -7.318539,1.115104 -7.706093,1.33597 -0.03185,0.01815 0.230306,0.886717 0.582566,1.930147 0.465247,1.378104 0.550236,2.065754 0.310647,2.513434 -0.25393,0.47447 -0.20423,0.66448 0.215984,0.82573 0.986363,0.3785 -0.180531,1.00049 -4.340833,2.31379 -3.360642,1.06087 -3.853461,1.30091 -3.31518,1.61476 1.37028,0.79895 4.636468,3.73338 4.737104,4.25594 0.09041,0.46947 -0.184477,0.55042 -1.808996,0.53274 -1.053584,-0.0115 -2.211666,-0.14203 -2.573516,-0.29013 z m 4.379069,-8.89974 1.500719,0 -0.922695,-0.96308 c -0.743897,-0.776465 -0.896112,-1.190802 -0.785508,-2.138206 0.147968,-1.267447 0.06496,-1.33128 -1.136965,-0.874309 -0.506594,0.192606 -1.04676,0.894911 -1.501709,1.952469 -0.961433,2.234916 -0.926866,2.477586 0.317457,2.228726 0.56539,-0.11308 1.703305,-0.2056 2.528701,-0.2056 z"
     id="path5310"
     inkscape:connector-curvature="0" />
  <path
     style="color:#000000;clip-rule:nonzero;display:inline;overflow:visible;visibility:visible;opacity:1;isolation:auto;mix-blend-mode:normal;color-interpolation:sRGB;color-interpolation-filters:linearRGB;solid-color:#000000;solid-opacity:1;fill:#ff0000;fill-opacity:0.62716765;fill-rule:nonzero;stroke:#000000;stroke-width:0.03559643;stroke-linecap:butt;stroke-linejoin:miter;stroke-miterlimit:4;stroke-dasharray:none;stroke-dashoffset:0;stroke-opacity:1;color-rendering:auto;image-rendering:auto;shape-rendering:auto;text-rendering:auto;enable-background:accumulate"
     d="m 56.445994,37.757874 c -1.65513,-0.759303 -2.44106,-1.868472 -2.644619,-3.732305 -0.222636,-2.03851 0.319213,-3.202558 1.490747,-3.202558 0.519212,0 1.182093,0.263067 1.47307,0.584593 0.889331,0.982699 2.301973,4.392154 2.336458,5.639112 0.04017,1.452707 -0.641381,1.635221 -2.655656,0.711158 z m 1.714201,-1.260402 c -0.480767,-1.950604 -1.989926,-4.523121 -2.653474,-4.523121 -0.496504,0 -0.673797,0.260248 -0.754894,1.108109 -0.15482,1.618619 0.52764,2.948725 1.879544,3.663209 1.595031,0.842978 1.789967,0.811331 1.528824,-0.248197 z"
     id="path5312"
     inkscape:connector-curvature="0" />
  <path
     style="color:#000000;clip-rule:nonzero;display:inline;overflow:visible;visibility:visible;opacity:1;isolation:auto;mix-blend-mode:normal;color-interpolation:sRGB;color-interpolation-filters:linearRGB;solid-color:#000000;solid-opacity:1;fill:#ff0000;fill-opacity:0.62716765;fill-rule:nonzero;stroke:#000000;stroke-width:0.03559643;stroke-linecap:butt;stroke-linejoin:miter;stroke-miterlimit:4;stroke-dasharray:none;stroke-dashoffset:0;stroke-opacity:1;color-rendering:auto;image-rendering:auto;shape-rendering:auto;text-rendering:auto;enable-background:accumulate"
     d="m 46.771216,38.113451 c -0.809514,-0.513379 -1.726672,-1.322332 -2.038128,-1.797674 -0.685722,-1.046545 -0.735269,-2.83324 -0.102563,-3.698516 0.457241,-0.625315 0.473825,-0.625044 1.186895,0.01937 0.776035,0.701313 2.09045,3.110936 2.811012,5.153225 0.554134,1.570583 0.204996,1.631416 -1.857216,0.3236 z"
     id="path5314"
     inkscape:connector-curvature="0" />
  <path
     style="color:#000000;clip-rule:nonzero;display:inline;overflow:visible;visibility:visible;opacity:1;isolation:auto;mix-blend-mode:normal;color-interpolation:sRGB;color-interpolation-filters:linearRGB;solid-color:#000000;solid-opacity:1;fill:#ff0000;fill-opacity:0.62716765;fill-rule:nonzero;stroke:#000000;stroke-width:0.03559643;stroke-linecap:butt;stroke-linejoin:miter;stroke-miterlimit:4;stroke-dasharray:none;stroke-dashoffset:0;stroke-opacity:1;color-rendering:auto;image-rendering:auto;shape-rendering:auto;text-rendering:auto;enable-background:accumulate"
     d="m 56.638266,36.652075 c -1.701307,-1.14651 -2.450799,-3.204442 -1.636006,-4.492094 0.25405,-0.401488 0.380412,-0.404585 0.843009,-0.02066 1.057831,0.877921 2.884607,5.262778 2.192527,5.262778 -0.157616,0 -0.787405,-0.337509 -1.39953,-0.750021 z"
     id="path5316"
     inkscape:connector-curvature="0" />
</svg>
