<?xml version="1.0" encoding="UTF-8" standalone="no"?><svg xmlns:dc="http://purl.org/dc/elements/1.1/" xmlns:cc="http://web.resource.org/cc/" xmlns:rdf="http://www.w3.org/1999/02/22-rdf-syntax-ns#" xmlns:svg="http://www.w3.org/2000/svg" xmlns="http://www.w3.org/2000/svg" xmlns:xlink="http://www.w3.org/1999/xlink" xmlns:sodipodi="http://sodipodi.sourceforge.net/DTD/sodipodi-0.dtd" xmlns:inkscape="http://www.inkscape.org/namespaces/inkscape" version="1.0" width="108.07086" height="124.01575" id="svg2166" sodipodi:version="0.32" inkscape:version="0.45" sodipodi:docname="ryuuma.svg" inkscape:output_extension="org.inkscape.output.svg.inkscape" sodipodi:docbase="C:\Develop\Shogi\Shogi\gfx\default" sodipodi:modified="true"><metadata id="metadata15"><rdf:RDF><cc:Work rdf:about=""><dc:format>image/svg+xml</dc:format><dc:type rdf:resource="http://purl.org/dc/dcmitype/StillImage"/><dc:title>龍馬</dc:title><dc:date>2007-07-22</dc:date><dc:creator><cc:Agent><dc:title>13xforever</dc:title></cc:Agent></dc:creator><dc:language>ja</dc:language><dc:subject><rdf:Bag><rdf:li>ryuuma</rdf:li><rdf:li>ryuume</rdf:li><rdf:li>ryuma</rdf:li><rdf:li>ryume</rdf:li><rdf:li>龍馬</rdf:li><rdf:li>shougi</rdf:li><rdf:li>shogi</rdf:li><rdf:li>将棋</rdf:li></rdf:Bag></dc:subject><dc:coverage>board game</dc:coverage><cc:license rdf:resource="http://creativecommons.org/licenses/by-sa/3.0/"/></cc:Work><cc:License rdf:about="http://creativecommons.org/licenses/by-sa/3.0/"><cc:permits rdf:resource="http://web.resource.org/cc/Reproduction"/><cc:permits rdf:resource="http://web.resource.org/cc/Distribution"/><cc:requires rdf:resource="http://web.resource.org/cc/Notice"/><cc:requires rdf:resource="http://web.resource.org/cc/Attribution"/><cc:permits rdf:resource="http://web.resource.org/cc/DerivativeWorks"/><cc:requires rdf:resource="http://web.resource.org/cc/ShareAlike"/></cc:License></rdf:RDF></metadata><sodipodi:namedview inkscape:window-height="575" inkscape:window-width="765" inkscape:pageshadow="2" inkscape:pageopacity="0.0" guidetolerance="10.0" gridtolerance="10.0" objecttolerance="10.0" borderopacity="1.0" bordercolor="#666666" pagecolor="#ffffff" id="base" inkscape:zoom="3.0399365" inkscape:cx="54.035431" inkscape:cy="62.007874" inkscape:window-x="35" inkscape:window-y="763" inkscape:current-layer="svg2166"/><defs id="defs2168"><linearGradient id="linearGradient10936"><stop style="stop-color:#fcf3e8;stop-opacity:1" offset="0" id="stop10938"/><stop style="stop-color:#ba6100;stop-opacity:1" offset="1" id="stop10940"/></linearGradient><linearGradient x1="17.523264" y1="5.9785309" x2="101.69292" y2="113.38583" id="linearGradient10942" xlink:href="#linearGradient10936" gradientUnits="userSpaceOnUse" gradientTransform="translate(3.1889734,0)"/><linearGradient x1="17.523264" y1="5.9785309" x2="101.69292" y2="113.38583" id="linearGradient12957" xlink:href="#linearGradient10936" gradientUnits="userSpaceOnUse" gradientTransform="translate(3.1889734,0)"/></defs><g id="layer1"><g transform="matrix(0.96514,0,0,0.9687658,1.8836745,8.83634)" id="g12950"><path d="M 3.6843532,112.89045 L 104.38651,112.89045 L 87.439074,5.7639005 L 54.035433,0.49538136 L 20.63179,5.7639005 L 3.6843532,112.89045 z " style="fill:url(#linearGradient12957);fill-opacity:1;fill-rule:evenodd;stroke:#000000;stroke-width:1.03417838;stroke-linecap:butt;stroke-linejoin:miter;stroke-miterlimit:4;stroke-dasharray:none;stroke-opacity:0.49803922" id="path9965"/><path d="M 61.306998,11.477955 C 64.021682,10.573085 65.734538,10.023679 66.445572,9.8297335 C 67.156532,9.6358622 67.867529,9.7974524 68.578564,10.314505 C 69.289522,10.83163 68.934024,11.381036 67.512068,11.962726 C 66.090036,12.544486 63.957046,12.835348 61.11309,12.835314 L 60.725273,16.713483 C 60.595969,18.006235 60.983786,18.491005 61.888723,18.167796 C 62.793596,17.844645 63.536911,17.489146 64.11867,17.1013 C 64.700361,16.713513 65.314403,16.681195 65.9608,17.004346 C 66.607125,17.327556 67.318122,17.780008 68.093793,18.361705 C 68.869388,18.943458 68.869388,19.428228 68.093793,19.816018 C 67.318122,20.203861 66.413217,21.496583 65.379075,23.694187 C 66.413217,24.599115 66.639443,25.148522 66.057755,25.342409 C 65.475994,25.536338 64.635725,25.697928 63.536945,25.82718 C 62.438098,25.956473 60.337425,26.344289 57.234921,26.99063 C 56.976349,28.024827 56.847077,29.059005 56.847104,30.093165 C 58.656887,29.834638 60.272789,29.511457 61.694815,29.123623 C 63.116777,28.735824 64.118636,28.768142 64.700396,29.220577 C 65.282085,29.673047 65.217449,30.028546 64.506487,30.287074 C 63.795455,30.545634 62.89055,30.771861 61.791769,30.965753 C 60.692924,31.159677 58.980067,31.385904 56.653195,31.644433 C 56.523896,32.807897 56.45926,33.777439 56.459287,34.553059 C 58.656887,34.165255 60.499015,33.809757 61.985678,33.486563 C 63.472275,33.163396 64.506452,33.228032 65.088213,33.680471 C 65.669902,34.132937 65.249767,34.553072 63.827808,34.940876 C 62.40578,35.328705 59.949609,35.587249 56.459287,35.71651 C 56.329988,37.397059 56.329988,38.560509 56.459287,39.206862 C 59.044704,38.819053 61.048422,38.431236 62.470449,38.043411 C 63.89241,37.655603 64.797315,37.752558 65.185167,38.334274 C 65.572948,38.916007 65.249767,39.336142 64.215625,39.594679 C 63.181413,39.85323 62.050281,40.047138 60.822227,40.176404 C 59.59411,40.305683 58.204434,40.370319 56.653195,40.370312 C 57.040985,43.214306 58.462979,44.765572 60.919181,45.024115 C 63.375321,45.282661 66.090036,45.153389 69.063335,44.636298 C 72.036556,44.119212 73.717094,42.98808 74.104955,41.2429 C 74.492727,39.497732 74.751271,38.011102 74.880589,36.783006 C 75.009816,35.554931 75.171406,35.942747 75.36536,37.946457 C 75.559222,39.950184 75.914721,41.404496 76.431856,42.309397 C 76.948898,43.214306 77.013534,43.989939 76.625765,44.636298 C 76.237901,45.282661 75.203724,45.96134 73.52323,46.672337 C 71.842648,47.383334 69.677339,47.835786 67.027297,48.029696 C 64.37718,48.223603 62.114917,48.062013 60.240502,47.544925 C 58.366025,47.027835 56.944031,46.12293 55.974516,44.830207 C 55.004948,43.537487 54.520178,41.533768 54.520203,38.819045 C 54.520178,35.975065 54.584814,33.26035 54.714111,30.674891 C 54.843358,28.089463 54.64945,26.215017 54.132386,25.051546 C 53.615273,23.888118 54.64945,24.01739 57.234921,25.439363 C 58.527615,25.18084 60.595969,24.728387 63.439991,24.082004 C 63.827774,22.401488 64.054,21.141085 64.11867,20.300789 C 64.183272,19.460547 63.569229,19.137366 62.27654,19.331247 C 60.983786,19.525183 60.175835,19.848363 59.852685,20.300789 C 59.529474,20.753268 59.077022,20.688632 58.495326,20.106881 C 57.913572,19.525183 57.881254,18.846504 58.398371,18.070842 C 58.915431,17.295238 59.10934,15.970198 58.980097,14.095719 C 58.850795,12.221305 58.398343,10.863948 57.622738,10.023642 C 56.847077,9.1834096 57.234893,8.9248653 58.786188,9.2480082 C 60.337425,9.5712261 61.177694,10.314541 61.306998,11.477955 L 61.306998,11.477955 z M 41.916154,29.51144 C 41.78687,31.321267 41.722234,32.549353 41.722246,33.1957 C 43.2735,32.678625 44.243041,32.678625 44.630872,33.1957 C 45.018674,33.712802 44.824766,34.035983 44.049147,34.165242 C 43.2735,34.294527 42.497867,34.359163 41.722246,34.359151 C 41.463689,35.781157 41.269781,36.815334 41.14052,37.461686 C 41.916142,37.332423 42.627139,37.138515 43.273513,36.879961 C 43.91986,36.621426 44.436949,36.783016 44.824781,37.364732 C 45.212582,37.946466 45.018674,38.334282 44.243055,38.528182 C 43.467408,38.722099 42.368595,38.819053 40.946612,38.819045 C 40.558784,42.180129 40.041696,44.47471 39.395344,45.702795 C 38.748974,46.930881 38.231885,46.833927 37.844077,45.411932 C 37.456252,43.989939 37.456252,42.794172 37.844077,41.824626 C 38.231885,40.855089 38.587384,39.594686 38.910573,38.043411 C 39.233745,36.492154 39.492289,34.843934 39.686207,33.098746 C 39.880105,31.353586 39.750833,30.093182 39.29839,29.317531 C 38.845928,28.541916 38.81361,28.154099 39.201436,28.154081 C 39.589243,28.154099 40.009378,28.218736 40.461841,28.347989 C 40.914283,28.47728 41.592962,28.47728 42.497879,28.347989 C 43.402772,28.218736 44.243041,27.927873 45.018689,27.475401 C 45.794307,27.022968 46.602258,26.99065 47.442545,27.378447 C 48.282796,27.766283 48.896839,28.154099 49.284675,28.541898 C 49.672472,28.929732 49.672472,29.382185 49.284675,29.899257 C 48.896839,30.416362 48.767567,31.967628 48.896858,34.553059 C 49.026111,37.138515 49.187701,39.303824 49.381629,41.048992 C 49.575518,42.794172 49.5432,44.410074 49.284675,45.896703 C 49.026111,47.383334 48.605976,48.385193 48.02427,48.902284 C 47.442527,49.41937 46.925438,49.09619 46.473002,47.932742 C 46.020533,46.769291 45.212582,45.864386 44.049147,45.218023 C 42.885683,44.571664 42.821047,44.31312 43.855239,44.44239 C 44.889402,44.571664 45.665035,44.603982 46.18214,44.539344 C 46.699212,44.47471 46.957756,43.408215 46.957774,41.339855 C 46.957756,39.271505 46.89312,37.073879 46.763865,34.746968 C 46.634576,32.420081 46.440668,30.901133 46.18214,30.190119 C 45.923579,29.479139 45.535763,29.123641 45.018689,29.123623 C 44.501585,29.123641 43.467408,29.252913 41.916154,29.51144 L 41.916154,29.51144 z M 48.315133,16.519575 C 50.383469,17.295238 51.126784,17.941599 50.54508,18.458659 C 49.963334,18.975776 48.896839,20.009953 47.34559,21.561194 C 50.835921,20.527042 52.904276,20.300816 53.55066,20.882514 C 54.196997,21.464265 53.841499,21.916718 52.484164,22.239874 C 51.126784,22.563078 49.70479,22.853941 48.218178,23.112461 C 46.73153,23.371029 44.566221,23.920436 41.722246,24.760683 C 38.878246,25.600974 37.100754,26.215017 36.389764,26.602813 C 35.67876,26.99065 34.579947,26.699788 33.09332,25.730225 C 31.606687,24.760705 31.542051,24.308253 32.899412,24.372866 C 34.256766,24.437525 35.937304,24.275935 37.941031,23.888095 C 39.944741,23.500302 42.691775,22.853941 46.18214,21.949011 C 47.474845,19.622137 48.05657,17.876963 47.927316,16.713483 C 45.341854,17.489146 43.338136,17.683054 41.916154,17.295208 C 40.494148,16.907421 40.494148,16.551923 41.916154,16.228712 C 43.338136,15.905562 45.018674,15.388473 46.957774,14.677444 C 48.896839,13.96648 50.351151,13.707935 51.320713,13.901811 C 52.290233,14.095752 52.548777,14.418932 52.096347,14.871353 C 51.643872,15.323837 50.383469,15.873244 48.315133,16.519575 L 48.315133,16.519575 z M 45.794323,8.3754202 C 47.474845,8.5047307 48.605976,8.8279111 49.187721,9.3449624 C 49.769426,9.8620884 50.092606,10.508449 50.157263,11.284047 C 50.221878,12.059715 50.092606,12.576804 49.769446,12.835314 C 49.446245,13.093893 48.70293,12.770712 47.539499,11.865772 C 46.376032,10.960902 45.374172,10.120633 44.533918,9.3449624 C 43.693634,8.5693668 44.113769,8.2461864 45.794323,8.3754202 L 45.794323,8.3754202 z M 42.691788,18.652567 C 43.725952,19.428228 44.113769,20.23618 43.855239,21.076423 C 43.59668,21.916718 43.2735,22.304534 42.885696,22.239874 C 42.497867,22.175262 42.142368,21.755127 41.8192,20.979469 C 41.496007,20.203861 41.302099,19.428228 41.237475,18.652567 C 41.172827,17.876963 41.657598,17.876963 42.691788,18.652567 L 42.691788,18.652567 z " style="font-size:49.64056015px;font-style:normal;font-variant:normal;font-weight:normal;font-stretch:normal;text-align:center;line-height:100%;writing-mode:lr-tb;text-anchor:middle;fill:#de0000;fill-opacity:1;stroke:#000000;stroke-width:1.03417838;stroke-miterlimit:4;stroke-opacity:0.49803922;font-family:KaiTi" id="text3153"/><path d="M 56.750149,54.333815 C 57.956654,55.36804 58.473743,56.186764 58.301417,56.789989 C 58.129017,57.393304 57.956654,58.384391 57.784328,59.763252 C 59.852646,59.418568 61.360821,59.116933 62.308858,58.858346 C 63.256813,58.599844 64.075536,58.686026 64.765032,59.11689 C 65.45444,59.54784 65.712984,59.935657 65.540666,60.280341 C 65.368258,60.625108 64.334081,61.056016 62.43813,61.573064 C 60.542097,62.090193 58.818468,62.5211 57.267238,62.865787 C 57.094839,63.900003 57.008658,65.537451 57.008694,67.778134 C 59.077013,67.433442 60.671369,67.131807 61.791769,66.873228 C 62.912087,66.614719 63.903174,66.787082 64.765032,67.390317 C 65.626802,67.993622 65.195895,68.596892 63.472309,69.20013 C 61.748637,69.803432 59.594101,70.27743 57.008694,70.622125 C 56.836295,73.724688 56.750114,75.706861 56.750149,76.568651 C 61.576275,76.051587 64.89426,75.448317 66.704116,74.758838 C 68.513881,74.069414 69.849693,73.724688 70.711557,73.72466 C 71.573322,73.724688 72.521318,73.940142 73.555548,74.371022 C 74.589673,74.801956 75.839304,75.448317 77.304445,76.310106 C 78.769473,77.171946 78.984926,78.378486 77.950806,79.92973 C 76.916572,81.481018 76.270211,83.937189 76.011722,87.298251 C 75.753122,90.659342 75.279124,93.934237 74.589726,97.122946 C 73.900221,100.31166 72.435137,103.02638 70.194468,105.2671 C 67.953702,107.50781 66.574798,107.68018 66.057755,105.78419 C 65.540621,103.88819 64.247899,101.9922 62.179586,100.09621 C 60.11119,98.200218 60.068099,97.553858 62.050313,98.157124 C 64.032446,98.760398 65.626802,99.191305 66.833388,99.449847 C 68.039883,99.708394 69.03097,98.975851 69.806651,97.252218 C 70.582236,95.528594 71.271687,92.727697 71.875008,88.849519 C 72.478227,84.971367 72.65059,82.127379 72.392097,80.317547 C 72.133502,78.507758 71.530231,77.516672 70.582285,77.344284 C 69.63424,77.171946 68.169155,77.171946 66.187027,77.344284 C 64.204809,77.516672 61.619365,77.861397 58.430689,78.378463 C 55.241938,78.895575 49.855598,79.757389 42.271652,80.963909 C 41.409816,82.687558 40.634183,82.859921 39.944751,81.480998 C 39.25528,80.102115 39.082917,78.59394 39.427662,76.956467 C 39.772369,75.319045 39.944732,73.035236 39.944751,70.105036 L 39.944751,60.79743 C 39.944732,57.522576 39.729278,55.324949 39.298389,54.204543 C 38.867464,53.084232 38.910554,52.480962 39.427662,52.394731 C 39.944732,52.308599 40.849637,52.437871 42.14238,52.782548 C 43.43508,53.127323 45.503435,53.127323 48.34745,52.782548 C 51.19141,52.437871 54.207761,51.920782 57.396511,51.23128 C 60.585188,50.541879 62.912087,50.024791 64.377215,49.680013 C 65.842256,49.335339 66.962615,49.42152 67.738295,49.938557 C 68.513881,50.455698 68.556972,50.972786 67.867567,51.489825 C 67.178068,52.006964 65.583712,52.524052 63.084492,53.041093 C 60.585188,53.55823 58.473743,53.989137 56.750149,54.333815 L 56.750149,54.333815 z M 43.30583,55.626538 C 42.961082,60.797471 42.78872,65.106543 42.788741,68.553768 C 42.78872,72.001059 42.616357,75.362135 42.271652,78.637007 C 44.512348,78.464667 46.580703,78.249214 48.476722,77.990646 C 50.372687,77.732125 52.096316,77.43049 53.647614,77.08574 C 53.819944,75.189773 53.906126,73.293781 53.906159,71.397759 C 52.699586,71.570152 51.449955,71.699424 50.157262,71.785576 C 48.864511,71.871787 47.657971,71.699424 46.537638,71.268486 C 45.417254,70.83761 45.891252,70.449793 47.959633,70.105036 L 53.906159,68.812313 L 53.906159,63.899965 C 52.182497,64.072366 50.674322,64.115457 49.381628,64.029238 C 48.088878,63.943094 47.183973,63.72764 46.66691,63.382876 C 46.149796,63.038189 46.839247,62.693463 48.735267,62.348698 C 50.631231,62.004011 52.35486,61.573104 53.906159,61.055975 C 53.906126,58.642935 53.819944,56.57458 53.647614,54.850905 C 50.54505,55.195677 47.097792,55.454222 43.30583,55.626538 L 43.30583,55.626538 z M 33.481136,85.876256 C 34.170575,87.772264 34.47221,89.495892 34.386042,91.047148 C 34.299847,92.598424 33.782758,94.192781 32.834774,95.830223 C 31.886767,97.467676 30.938771,97.510767 29.990784,95.959495 C 29.042779,94.408235 28.999688,93.072422 29.861512,91.952054 C 30.723317,90.831705 31.369678,89.064985 31.800596,86.65189 C 32.231492,84.238824 32.791672,83.98028 33.481136,85.876256 L 33.481136,85.876256 z M 60.628318,81.998087 C 62.696633,83.032284 63.989355,84.195734 64.506487,85.488439 C 65.023532,86.781177 64.937351,87.944626 64.247943,88.978791 C 63.558448,90.012981 62.782815,90.012981 61.921041,88.978791 C 61.059186,87.944626 60.154281,86.264088 59.206323,83.937172 C 58.258289,81.61029 58.732287,80.963929 60.628318,81.998087 L 60.628318,81.998087 z M 41.754563,84.842078 C 43.305808,85.531546 44.296895,86.651905 44.727826,88.203157 C 45.158709,89.754437 44.900165,91.047158 43.952192,92.081326 C 43.004173,93.115513 42.185449,92.770787 41.496018,91.047148 C 40.806546,89.32353 40.332548,87.642991 40.074023,86.005528 C 39.81546,84.368096 40.375639,83.98028 41.754563,84.842078 L 41.754563,84.842078 z M 51.062168,83.807899 C 52.95813,84.497369 53.906126,85.79009 53.906159,87.686068 C 53.906126,89.409711 53.5614,90.314616 52.87198,90.400786 C 52.182497,90.486979 51.493045,89.9268 50.803624,88.720246 C 50.114142,87.513719 49.553963,86.177907 49.123084,84.712805 C 48.692149,83.247738 49.338509,82.946103 51.062168,83.807899 L 51.062168,83.807899 z " style="font-size:66.18741608px;font-style:normal;font-variant:normal;font-weight:normal;font-stretch:normal;text-align:center;line-height:100%;writing-mode:lr-tb;text-anchor:middle;fill:#de0000;fill-opacity:1;stroke:#000000;stroke-width:1.03417838;stroke-miterlimit:4;stroke-opacity:0.49803922;font-family:KaiTi" id="text2168"/></g></g></svg>
