<?xml version="1.0" encoding="UTF-8" standalone="no"?><svg xmlns:dc="http://purl.org/dc/elements/1.1/" xmlns:cc="http://web.resource.org/cc/" xmlns:rdf="http://www.w3.org/1999/02/22-rdf-syntax-ns#" xmlns:svg="http://www.w3.org/2000/svg" xmlns="http://www.w3.org/2000/svg" xmlns:xlink="http://www.w3.org/1999/xlink" xmlns:sodipodi="http://sodipodi.sourceforge.net/DTD/sodipodi-0.dtd" xmlns:inkscape="http://www.inkscape.org/namespaces/inkscape" version="1.0" width="108.07086" height="124.01575" id="svg2166" sodipodi:version="0.32" inkscape:version="0.45" sodipodi:docname="kinshou.svg" inkscape:output_extension="org.inkscape.output.svg.inkscape" sodipodi:docbase="C:\Develop\Shogi\Shogi\gfx\default" sodipodi:modified="true"><metadata id="metadata16"><rdf:RDF><cc:Work rdf:about=""><dc:format>image/svg+xml</dc:format><dc:type rdf:resource="http://purl.org/dc/dcmitype/StillImage"/><dc:title>金將</dc:title><dc:date>2007-07-22</dc:date><dc:creator><cc:Agent><dc:title>13xforever</dc:title></cc:Agent></dc:creator><dc:language>ja</dc:language><dc:subject><rdf:Bag><rdf:li>kinshou</rdf:li><rdf:li>kinsho</rdf:li><rdf:li>金将</rdf:li><rdf:li>shougi</rdf:li><rdf:li>shogi</rdf:li><rdf:li>将棋</rdf:li></rdf:Bag></dc:subject><dc:coverage>board game</dc:coverage><cc:license rdf:resource="http://creativecommons.org/licenses/by-sa/3.0/"/></cc:Work><cc:License rdf:about="http://creativecommons.org/licenses/by-sa/3.0/"><cc:permits rdf:resource="http://web.resource.org/cc/Reproduction"/><cc:permits rdf:resource="http://web.resource.org/cc/Distribution"/><cc:requires rdf:resource="http://web.resource.org/cc/Notice"/><cc:requires rdf:resource="http://web.resource.org/cc/Attribution"/><cc:permits rdf:resource="http://web.resource.org/cc/DerivativeWorks"/><cc:requires rdf:resource="http://web.resource.org/cc/ShareAlike"/></cc:License></rdf:RDF></metadata><sodipodi:namedview inkscape:window-height="575" inkscape:window-width="765" inkscape:pageshadow="2" inkscape:pageopacity="0.0" guidetolerance="10.0" gridtolerance="10.0" objecttolerance="10.0" borderopacity="1.0" bordercolor="#666666" pagecolor="#ffffff" id="base" inkscape:zoom="3.0399365" inkscape:cx="54.035431" inkscape:cy="62.007874" inkscape:window-x="10" inkscape:window-y="641" inkscape:current-layer="svg2166"/><defs id="defs2168"><linearGradient id="linearGradient10936"><stop style="stop-color:#fcf3e8;stop-opacity:1" offset="0" id="stop10938"/><stop style="stop-color:#ba6100;stop-opacity:1" offset="1" id="stop10940"/></linearGradient><linearGradient x1="17.523264" y1="5.9785309" x2="101.69292" y2="113.38583" id="linearGradient10942" xlink:href="#linearGradient10936" gradientUnits="userSpaceOnUse" gradientTransform="translate(3.1889734,0)"/><linearGradient x1="17.523264" y1="5.9785309" x2="101.69292" y2="113.38583" id="linearGradient12957" xlink:href="#linearGradient10936" gradientUnits="userSpaceOnUse" gradientTransform="translate(3.1889734,0)"/><linearGradient x1="17.523264" y1="5.9785309" x2="101.69292" y2="113.38583" id="linearGradient2173" xlink:href="#linearGradient10936" gradientUnits="userSpaceOnUse" gradientTransform="matrix(0.9299803,0,0,0.9377921,6.7492264,12.988526)"/></defs><g id="layer1"><g id="g2195"><path d="M 7.2099199,118.8563 L 100.86094,118.8563 L 85.10016,18.393866 L 54.035432,13.453091 L 22.970702,18.393866 L 7.2099199,118.8563 z " style="fill:url(#linearGradient2173);fill-opacity:1;fill-rule:evenodd;stroke:#000000;stroke-width:1;stroke-linecap:butt;stroke-linejoin:miter;stroke-miterlimit:4;stroke-dasharray:none;stroke-opacity:0.49803922" id="path9965"/><path d="M 42.425964,89.371627 C 36.488451,93.590393 33.090017,96.24664 32.23065,97.340377 C 31.371268,98.434138 29.96502,98.082576 28.0119,96.285689 C 26.058773,94.488829 25.941586,93.590393 27.660338,93.590377 C 29.379083,93.590393 31.175956,93.23883 33.050963,92.535689 C 34.925953,91.832582 38.05095,90.309146 42.425964,87.965376 C 42.582195,80.777905 42.582195,75.504472 42.425964,72.145063 C 42.269696,68.785728 41.722821,66.285731 40.785338,64.645062 C 39.847823,63.004484 40.160323,62.379484 41.722839,62.770062 C 43.28532,63.160734 44.613444,63.74667 45.707214,64.527875 C 46.800941,65.309169 47.074379,66.129481 46.527526,66.988813 C 45.98063,67.848229 45.707192,71.715413 45.707214,78.590376 C 45.707192,85.30915 45.51188,91.871644 45.121276,98.277877 C 44.730631,104.68413 44.183756,108.78569 43.480651,110.58257 C 42.777508,112.37944 41.996258,112.14506 41.136901,109.87944 C 40.27751,107.61382 40.238448,105.27007 41.019714,102.84819 C 41.800946,100.42632 42.269696,95.93414 42.425964,89.371627 L 42.425964,89.371627 z M 68.91034,86.793501 C 73.129042,86.168524 76.019664,85.699775 77.582216,85.387251 C 79.144661,85.074775 80.511847,85.543525 81.683779,86.793501 C 82.855595,88.043523 82.660283,88.62946 81.097841,88.551314 C 79.535286,88.47321 75.47279,88.668522 68.91034,89.137252 C 69.066546,96.949764 69.222795,101.79351 69.37909,103.6685 C 69.535295,105.54351 69.418108,107.26225 69.027528,108.82475 C 68.636859,110.38725 67.816547,111.75444 66.56659,112.92632 C 65.316549,114.09819 64.496237,113.981 64.105652,112.57475 C 63.714988,111.1685 62.425927,109.84038 60.238465,108.59038 C 58.050931,107.34038 57.972806,106.87163 60.00409,107.18413 C 62.035302,107.49663 63.519676,107.57475 64.457215,107.4185 C 65.394674,107.26225 65.863424,106.32476 65.863465,104.606 L 65.863465,89.371627 C 58.51968,90.465395 54.027497,91.207582 52.386902,91.598189 C 50.74625,91.988832 49.222814,91.598207 47.816589,90.426314 C 46.410317,89.254459 46.527504,88.746647 48.168151,88.902877 C 49.808751,89.059147 55.629058,88.434147 65.62909,87.027876 C 65.472799,84.840401 65.043112,83.23884 64.340027,82.223189 C 63.636863,81.207592 63.871238,80.816967 65.043153,81.051314 C 66.214986,81.285717 67.347797,81.637279 68.44159,82.106001 C 69.535295,82.574778 69.92592,83.043527 69.613465,83.512251 C 69.30092,83.981027 69.066546,85.074775 68.91034,86.793501 L 68.91034,86.793501 z M 56.254089,72.965375 C 57.660306,73.277912 58.98843,73.863848 60.238465,74.723188 C 61.488428,75.582597 61.761865,76.520096 61.058777,77.535688 C 60.355616,78.551344 59.45718,78.551344 58.363465,77.535688 C 57.269682,76.520096 56.254058,75.231035 55.316589,73.668501 C 50.316563,76.481034 49.066564,76.676346 51.566589,74.254438 C 54.06656,71.8326 55.941558,69.488853 57.19159,67.223188 C 58.441556,64.957607 59.066555,63.199796 59.06659,61.94975 C 59.066555,60.699798 59.613429,60.270111 60.707215,60.660687 C 61.800927,61.05136 62.933739,61.598235 64.105652,62.301312 C 65.277487,63.004484 65.355612,63.668546 64.340027,64.2935 C 63.324363,64.918544 62.113427,66.246668 60.707215,68.277875 C 64.925924,68.277916 67.582172,67.926354 68.675965,67.223188 C 69.76967,66.520105 70.785294,66.402918 71.72284,66.871625 C 72.660292,67.340417 73.519666,67.926354 74.300966,68.629438 C 75.082165,69.332603 75.082165,69.91854 74.300966,70.38725 C 73.519666,70.856039 71.097794,73.082599 67.03534,77.066938 C 62.972801,81.051342 59.027493,83.590402 55.199402,84.684126 C 51.37125,85.7779 50.433751,85.7779 52.386902,84.684126 C 54.339997,83.590402 56.60562,82.106028 59.183777,80.231001 C 61.761865,78.356032 64.105613,76.090409 66.215028,73.434126 C 68.324359,70.777914 68.910296,69.44979 67.97284,69.44975 C 67.191547,69.44979 65.941549,69.566978 64.22284,69.801313 C 62.504052,70.035727 61.097803,69.840415 60.00409,69.215375 C 58.910305,70.465414 57.660306,71.715413 56.254089,72.965375 L 56.254089,72.965375 z M 32.113463,75.309126 C 31.644706,74.371661 32.386892,74.254473 34.340026,74.957563 C 36.293139,75.660722 37.5822,76.676346 38.207213,78.004438 C 38.832199,79.332593 38.832199,80.54353 38.207213,81.637251 C 37.5822,82.731028 36.840013,82.731028 35.980651,81.637251 C 35.121265,80.54353 34.379078,79.449781 33.754088,78.356001 C 33.129079,77.262283 32.582205,76.246659 32.113463,75.309126 L 32.113463,75.309126 z M 52.972839,94.762252 C 52.660311,93.512268 53.480623,93.277893 55.433777,94.059127 C 57.386869,94.840391 58.51968,95.816953 58.832215,96.988815 C 59.14468,98.160701 59.105617,99.25445 58.715027,100.27006 C 58.324368,101.2857 57.699369,101.36382 56.840027,100.50444 C 55.98062,99.645074 55.238434,98.746638 54.613464,97.809127 C 53.988435,96.871639 53.44156,95.856015 52.972839,94.762252 L 52.972839,94.762252 z " transform="scale(0.9958263,1.0041912)" style="font-size:60.00000381px;font-style:normal;font-variant:normal;font-weight:normal;font-stretch:normal;text-align:center;line-height:100%;writing-mode:lr-tb;text-anchor:middle;fill:#000000;fill-opacity:1;stroke:#000000;stroke-width:1;stroke-miterlimit:4;stroke-opacity:0.49803922;font-family:KaiTi" id="text11939"/><path d="M 52.949406,39.777592 C 54.074382,40.52761 54.511881,41.12136 54.261906,41.558842 C 54.011882,41.996359 53.824382,42.965108 53.699406,44.465092 C 55.82438,44.090107 57.574378,43.746357 58.949406,43.433842 C 60.324375,43.121358 61.449374,43.340108 62.324406,44.090092 C 63.199373,44.840106 62.668123,45.308856 60.730656,45.496342 C 58.793127,45.683855 56.449379,45.965105 53.699406,46.340092 L 53.324406,56.652592 C 58.074378,56.277595 61.511874,55.933845 63.636906,55.621342 C 65.76187,55.308846 67.449368,55.558845 68.699406,56.371342 C 69.949366,57.183844 70.261865,57.777593 69.636906,58.152592 C 69.011867,58.527592 67.574368,58.621342 65.324406,58.433842 C 63.074373,58.246343 59.855626,58.308843 55.668156,58.621342 C 51.480634,58.933842 48.293137,59.246342 46.105656,59.558842 C 43.918142,59.871341 42.261893,60.152591 41.136906,60.402592 C 40.011896,60.65259 38.824397,60.308841 37.574406,59.371342 C 36.324399,58.433843 36.605649,57.996343 38.418156,58.058842 C 40.230646,58.121343 44.449391,57.715093 51.074406,56.840092 L 51.074406,46.715092 C 48.699387,46.965104 47.199389,47.152604 46.574406,47.277592 C 45.94939,47.402604 45.136891,47.152604 44.136906,46.527592 C 43.136893,45.902605 43.418142,45.558855 44.980656,45.496342 C 46.543139,45.433856 48.636887,45.215106 51.261906,44.840092 C 51.261884,42.340109 51.074385,40.71511 50.699406,39.965092 C 48.949387,40.090111 47.511888,39.902611 46.386906,39.402592 C 45.26189,38.902612 45.44939,38.527612 46.949406,38.277592 C 48.449387,38.027613 50.199386,37.715113 52.199406,37.340092 C 54.199382,36.965114 55.79313,36.621364 56.980656,36.308842 C 58.168128,35.996365 59.168127,36.121365 59.980656,36.683842 C 60.793125,37.246364 60.605625,37.746363 59.418156,38.183842 C 58.230628,38.621362 56.07438,39.152612 52.949406,39.777592 L 52.949406,39.777592 z M 54.261906,25.715092 C 58.136878,29.215122 61.105625,31.746369 63.168156,33.308842 C 65.230621,34.871366 67.199369,36.121365 69.074406,37.058842 C 70.949365,37.996363 72.980613,38.777612 75.168156,39.402592 C 77.355608,40.027611 77.793108,40.433861 76.480656,40.621342 C 75.168111,40.80886 73.355612,41.02761 71.043156,41.277592 C 68.730617,41.527609 66.793119,40.84011 65.230656,39.215092 C 63.668122,37.590113 62.168124,35.965115 60.730656,34.340092 C 59.293126,32.715118 56.949379,30.215121 53.699406,26.840092 C 50.324385,31.46512 47.105639,35.277616 44.043156,38.277592 C 40.980645,41.27761 37.886898,43.402608 34.761906,44.652592 C 31.636904,45.902605 31.511904,45.558855 34.386906,43.621342 C 37.261898,41.683859 40.136896,39.121362 43.011906,35.933842 C 45.88689,32.746368 48.074388,29.996371 49.574406,27.683842 C 51.074385,25.371376 51.793134,23.652627 51.730656,22.527592 C 51.668134,21.40263 52.168134,21.09013 53.230656,21.590092 C 54.293131,22.090129 55.074381,22.558878 55.574406,22.996342 C 56.07438,23.433878 56.10563,23.840127 55.668156,24.215092 C 55.230631,24.590126 54.761881,25.090126 54.261906,25.715092 L 54.261906,25.715092 z M 59.136906,50.090092 C 59.761876,49.465102 60.043126,48.808852 59.980656,48.121342 C 59.918126,47.433854 60.418125,47.308854 61.480656,47.746342 C 62.543123,48.183853 63.324372,48.715102 63.824406,49.340092 C 64.324371,49.965101 64.136872,50.371351 63.261906,50.558842 C 62.386873,50.74635 61.324374,51.1526 60.074406,51.777592 C 58.824377,52.402599 57.699378,52.933848 56.699406,53.371342 C 55.69938,53.808847 55.73063,53.527597 56.793156,52.527592 C 57.855628,51.527599 58.636877,50.7151 59.136906,50.090092 L 59.136906,50.090092 z M 43.386906,50.840092 C 42.636893,49.590101 42.918143,49.152602 44.230656,49.527592 C 45.54314,49.902601 46.574389,50.465101 47.324406,51.215092 C 48.074388,51.965099 48.230638,52.840098 47.793156,53.840092 C 47.355638,54.840096 46.699389,54.902596 45.824406,54.027592 C 44.949391,53.152598 44.136892,52.090099 43.386906,50.840092 L 43.386906,50.840092 z " transform="scale(0.9958263,1.0041912)" style="font-size:48px;font-style:normal;font-variant:normal;font-weight:normal;font-stretch:normal;text-align:center;line-height:100%;writing-mode:lr-tb;text-anchor:middle;fill:#000000;fill-opacity:1;stroke:#000000;stroke-width:1;stroke-miterlimit:4;stroke-opacity:0.49803922;font-family:KaiTi" id="text11929"/></g></g></svg>
