<?xml version="1.0" encoding="UTF-8" standalone="no"?>
<svg
   xmlns:dc="http://purl.org/dc/elements/1.1/"
   xmlns:cc="http://creativecommons.org/ns#"
   xmlns:rdf="http://www.w3.org/1999/02/22-rdf-syntax-ns#"
   xmlns:svg="http://www.w3.org/2000/svg"
   xmlns="http://www.w3.org/2000/svg"
   xmlns:xlink="http://www.w3.org/1999/xlink"
   xmlns:sodipodi="http://sodipodi.sourceforge.net/DTD/sodipodi-0.dtd"
   xmlns:inkscape="http://www.inkscape.org/namespaces/inkscape"
   version="1.0"
   width="108.07086"
   height="124.01575"
   id="svg2166"
   sodipodi:version="0.32"
   inkscape:version="0.91 r"
   sodipodi:docname="kingW.svg"
   inkscape:output_extension="org.inkscape.output.svg.inkscape"
   sodipodi:modified="true">
  <metadata
     id="metadata15">
    <rdf:RDF>
      <cc:Work
         rdf:about="">
        <dc:format>image/svg+xml</dc:format>
        <dc:type
           rdf:resource="http://purl.org/dc/dcmitype/StillImage" />
        <dc:title />
        <dc:date>2007-07-22</dc:date>
        <dc:creator>
          <cc:Agent>
            <dc:title>13xforever</dc:title>
          </cc:Agent>
        </dc:creator>
        <dc:language>ja</dc:language>
        <dc:subject>
          <rdf:Bag>
            <rdf:li>oushou</rdf:li>
            <rdf:li>osho</rdf:li>
            <rdf:li>王将</rdf:li>
            <rdf:li>shougi</rdf:li>
            <rdf:li>shogi</rdf:li>
            <rdf:li>将棋</rdf:li>
          </rdf:Bag>
        </dc:subject>
        <dc:coverage>board game</dc:coverage>
        <cc:license
           rdf:resource="http://creativecommons.org/licenses/by-sa/3.0/" />
      </cc:Work>
      <cc:License
         rdf:about="http://creativecommons.org/licenses/by-sa/3.0/">
        <cc:permits
           rdf:resource="http://web.resource.org/cc/Reproduction" />
        <cc:permits
           rdf:resource="http://web.resource.org/cc/Distribution" />
        <cc:requires
           rdf:resource="http://web.resource.org/cc/Notice" />
        <cc:requires
           rdf:resource="http://web.resource.org/cc/Attribution" />
        <cc:permits
           rdf:resource="http://web.resource.org/cc/DerivativeWorks" />
        <cc:requires
           rdf:resource="http://web.resource.org/cc/ShareAlike" />
      </cc:License>
    </rdf:RDF>
  </metadata>
  <sodipodi:namedview
     inkscape:window-height="1053"
     inkscape:window-width="1920"
     inkscape:pageshadow="2"
     inkscape:pageopacity="0.0"
     guidetolerance="10.0"
     gridtolerance="10.0"
     objecttolerance="10.0"
     borderopacity="1.0"
     bordercolor="#666666"
     pagecolor="#ffffff"
     id="base"
     inkscape:zoom="3.0399365"
     inkscape:cx="-100.24411"
     inkscape:cy="62.007874"
     inkscape:window-x="0"
     inkscape:window-y="0"
     inkscape:current-layer="svg2166"
     showgrid="false"
     inkscape:window-maximized="1" />
  <defs
     id="defs2168">
    <linearGradient
       id="linearGradient10936">
      <stop
         style="stop-color:#fcf3e8;stop-opacity:1"
         offset="0"
         id="stop10938" />
      <stop
         style="stop-color:#ba6100;stop-opacity:1"
         offset="1"
         id="stop10940" />
    </linearGradient>
    <linearGradient
       x1="17.523264"
       y1="5.9785309"
       x2="101.69292"
       y2="113.38583"
       id="linearGradient10942"
       xlink:href="#linearGradient10936"
       gradientUnits="userSpaceOnUse"
       gradientTransform="translate(3.1889734,0)" />
    <linearGradient
       x1="99.432877"
       y1="112.88866"
       x2="2.0197823"
       y2="2.1993008"
       id="linearGradient12957"
       xlink:href="#linearGradient10936"
       gradientUnits="userSpaceOnUse"
       gradientTransform="translate(3.1889734,0)" />
  </defs>
  <g
     id="layer1"
     transform="matrix(-1,0,0,-1,108.39982,124.67366)">
    <g
       transform="translate(0,5.3149579)"
       id="g12950">
      <path
         d="m 3.6843532,112.89045 100.7021568,0 L 87.439074,5.7639005 54.035433,0.49538136 20.63179,5.7639005 3.6843532,112.89045 Z"
         style="fill:url(#linearGradient12957);fill-opacity:1;fill-rule:evenodd;stroke:#000000;stroke-width:0.99075961px;stroke-linecap:butt;stroke-linejoin:miter;stroke-opacity:0.49803922"
         id="path9965"
         inkscape:connector-curvature="0" />
      <path
         d="m 54.035431,15.790195 c 1.458303,0.875033 2.005178,1.822948 1.640625,2.84375 -0.364613,1.020863 -0.619821,3.86461 -0.765625,8.53125 2.624968,-0.583311 4.484341,-1.02081 5.578125,-1.3125 1.093714,-0.291643 2.333296,-0.03644 3.71875,0.765625 1.385377,0.802105 0.692669,1.531271 -2.078125,2.1875 -2.770867,0.65627 -5.177115,1.130228 -7.21875,1.421875 -2.9e-5,4.375015 -0.07295,8.385427 -0.21875,12.03125 3.937467,-0.583326 7.036422,-1.020825 9.296875,-1.3125 2.260376,-0.291658 3.973916,-0.47395 5.140625,-0.546875 1.166622,-0.07291 2.442662,0.07293 3.828125,0.4375 1.385368,0.364591 2.588492,1.166674 3.609375,2.40625 1.020781,1.239588 -0.619842,1.640629 -4.921875,1.203125 -4.302125,-0.437495 -8.531288,-0.473953 -12.6875,-0.109375 -4.156279,0.364588 -8.348983,0.911462 -12.578125,1.640625 -4.229183,0.729169 -7.328139,1.276044 -9.296875,1.640625 -1.96876,0.364585 -3.755216,0.03646 -5.359375,-0.984375 -1.604171,-1.02083 -1.494796,-1.567704 0.328125,-1.640625 1.822908,-0.07291 4.265614,-0.291662 7.328125,-0.65625 3.062483,-0.364578 7.218729,-0.984369 12.46875,-1.859375 l 0,-11.8125 c -2.333357,0.437518 -4.156272,0.729185 -5.46875,0.875 -1.31252,0.145851 -2.770851,-0.182274 -4.375,-0.984375 -1.604182,-0.802064 -1.130224,-1.348938 1.421875,-1.640625 2.552063,-0.291646 5.359352,-0.729146 8.421875,-1.3125 0.145807,-3.208308 0.145807,-5.687473 0,-7.4375 -0.14586,-1.749969 -0.364609,-3.062468 -0.65625,-3.9375 -1.895857,0.291699 -3.572939,0.473991 -5.03125,0.546875 -1.458353,0.07295 -2.843768,-0.291634 -4.15625,-1.09375 -1.312515,-0.802049 -1.239599,-1.276007 0.21875,-1.421875 1.458315,-0.145798 4.520812,-0.656214 9.1875,-1.53125 4.666636,-0.874963 7.984341,-1.531212 9.953125,-1.96875 1.968712,-0.437461 3.463502,-0.218711 4.484375,0.65625 1.020792,0.875037 0.109335,1.713578 -2.734375,2.515625 -2.843785,0.802118 -5.869823,1.421909 -9.078125,1.859375 l 0,0 z"
         style="font-style:normal;font-variant:normal;font-weight:normal;font-stretch:normal;font-size:56px;line-height:100%;font-family:KaiTi;text-align:center;writing-mode:lr-tb;text-anchor:middle;fill:#000000;fill-opacity:1;stroke:#000000;stroke-opacity:0.49803922"
         id="text11929"
         inkscape:connector-curvature="0" />
      <path
         d="m 38.035431,82.681763 c 0.999983,1.333352 1.29165,2.333351 0.875,3 -0.416683,0.666683 -1.166682,2.291682 -2.25,4.875 -1.083347,2.583343 -2.333345,4.750008 -3.75,6.5 -1.416676,1.750004 -2.833341,3.000007 -4.25,3.749997 -1.416672,0.75 -1.500005,0.375 -0.25,-1.124997 1.249993,-1.499995 2.416658,-3.29166 3.5,-5.375 1.083323,-2.083323 1.916655,-4.166654 2.5,-6.25 0.583321,-2.083316 0.70832,-3.458315 0.375,-4.125 -2.666677,0.833351 -4.333342,1.333351 -5,1.5 -0.666674,0.166684 -1.666673,-0.333316 -3,-1.5 -1.333337,-1.166647 -1.250003,-1.749979 0.25,-1.75 1.499994,2.1e-5 3.083325,-0.124979 4.75,-0.375 1.666655,-0.249979 3.499987,-0.583312 5.5,-1 1.999983,-0.416644 4.249981,-0.95831 6.75,-1.625 0.333311,-3.16664 0.499978,-5.749971 0.5,-7.75 -1.833354,0.166698 -3.208352,0.375031 -4.125,0.625 -0.916684,0.250031 -1.750016,0.666697 -2.5,1.25 -0.750015,0.583362 -1.375014,0.541696 -1.875,-0.125 -0.500013,-0.666636 -0.66668,-1.458302 -0.5,-2.375 0.166653,-0.916634 0.249986,-1.791633 0.25,-2.625 -1.4e-5,-0.833298 -0.16668,-1.999963 -0.5,-3.5 -0.333346,-1.49996 -0.875012,-2.666626 -1.625,-3.5 -0.750011,-0.833291 -0.625011,-1.249957 0.375,-1.25 0.999987,4.3e-5 1.874986,0.125043 2.625,0.375 0.749985,0.250042 1.249984,0.541709 1.5,0.875 0.249984,0.333375 0.333317,0.958374 0.25,1.875 -0.08335,0.916706 -0.125016,1.791705 -0.125,2.625 -1.6e-5,0.83337 0.04165,1.750035 0.125,2.75 0.08332,1.000033 0.249984,1.458366 0.5,1.375 0.249983,-0.0833 0.958316,-0.2083 2.125,-0.375 1.166647,-0.166633 2.333312,-0.166633 3.5,0 -2.2e-5,-3.833296 -0.08336,-6.62496 -0.25,-8.375 -0.166689,-1.749956 -0.583355,-3.208288 -1.25,-4.375 -0.666687,-1.166619 -0.666687,-1.749952 0,-1.75 0.666645,4.8e-5 1.583311,0.208381 2.75,0.625 1.166642,0.416714 1.999974,0.875046 2.5,1.375 0.499973,0.500045 0.54164,1.208378 0.125,2.125 -0.416692,0.91671 -0.708359,2.708374 -0.875,5.375 -0.166692,2.666702 -0.333358,7.083365 -0.5,13.25 -0.166691,6.166686 -0.250025,10.416681 -0.25,12.75 -2.5e-5,2.166677 -0.08336,4.458341 -0.25,6.875 -0.166691,2.41667 -0.375024,4.083337 -0.625,4.999997 -0.250023,0.91667 -0.625023,1.29167 -1.125,1.125 -0.500022,-0.16666 -1.041688,-1.04166 -1.625,-2.625 -0.583354,-1.583327 -0.708354,-3.291658 -0.375,-5.124997 0.333312,-1.833324 0.624979,-4.124989 0.875,-6.875 0.249978,-2.749983 0.374978,-5.458314 0.375,-8.125 l -6,2 z m 32.25,-5 c 3.833281,-0.833307 6.416612,-1.374973 7.75,-1.625 1.333276,-0.249973 2.541608,0.20836 3.625,1.375 1.083273,1.166691 0.791606,1.79169 -0.875,1.875 -1.666724,0.08336 -5.16672,0.29169 -10.5,0.625 -4.8e-5,4.500018 0.04162,7.833348 0.125,10 0.08329,2.166677 0.208285,4.333342 0.375,6.5 0.166618,2.166671 -4.9e-5,4.083337 -0.5,5.749997 -0.500048,1.66667 -1.375047,3.125 -2.625,4.375 -1.250044,1.25 -2.250043,1.08333 -3,-0.5 -0.750042,-1.58333 -2.083374,-3 -4,-4.25 -1.916703,-1.24999 -1.83337,-1.70833 0.25,-1.375 2.083293,0.33334 3.541624,0.41667 4.375,0.25 0.833289,-0.16666 1.374956,-1.249994 1.625,-3.249997 0.249955,-1.999993 0.291622,-7.749987 0.125,-17.25 -6.166705,0.833355 -10.250035,1.541688 -12.25,2.125 -2.000031,0.583353 -3.791695,0.333354 -5.375,-0.75 -1.583359,-1.083311 -1.375026,-1.624977 0.625,-1.625 1.99997,2.3e-5 7.583298,-0.666643 16.75,-2 -0.166711,-1.66664 -0.583377,-3.041639 -1.25,-4.125 -0.666709,-1.083303 -0.333376,-1.458303 1,-1.125 1.333288,0.333363 2.499953,0.750029 3.5,1.25 0.999951,0.500028 1.291618,1.000028 0.875,1.5 -0.416715,0.500027 -0.625048,1.250026 -0.625,2.25 l 0,0 z m -5,-17.5 c 2.833287,4.3e-5 4.874952,-0.249957 6.125,-0.75 1.24995,-0.499956 2.416615,-0.499956 3.5,0 1.08328,0.500043 2.041612,1.083376 2.875,1.75 0.833277,0.666708 1.124943,1.166707 0.875,1.5 -0.250056,0.333373 -0.875056,0.750039 -1.875,1.25 -1.000054,0.500038 -2.458385,1.500037 -4.375,3 -1.916715,1.500034 -4.041713,3.083366 -6.375,4.75 -2.333375,1.666696 -4.416706,2.916695 -6.25,3.75 -1.833369,0.83336 -3.375034,1.500026 -4.625,2 -1.250032,0.500025 -2.50003,0.791691 -3.75,0.875 -1.250028,0.08336 -0.750028,-0.416642 1.5,-1.5 2.249967,-1.083306 4.208298,-2.166638 5.875,-3.25 1.666628,-1.083303 3.49996,-2.374968 5.5,-3.875 1.999956,-1.499965 3.624954,-2.833297 4.875,-4 1.249952,-1.166628 2.208284,-2.208294 2.875,-3.125 0.666616,-0.916625 -0.04172,-1.166625 -2.125,-0.75 -2.083379,0.416707 -4.125044,0.208374 -6.125,-0.625 l -3,2.5 c -2.666703,1.500038 -4.625034,2.416703 -5.875,2.75 -1.250031,0.333369 -1.375031,0.125036 -0.375,-0.625 0.999967,-0.749962 2.499965,-1.999961 4.5,-3.75 1.999961,-1.749957 3.416626,-3.291623 4.25,-4.625 0.833291,-1.333287 1.249958,-2.499952 1.25,-3.5 -4.2e-5,-1.166617 0.749957,-1.416616 2.25,-0.75 1.499954,0.666716 2.499953,1.250048 3,1.75 0.499952,0.500047 0.458285,0.916714 -0.125,1.25 -0.58338,0.33338 -2.041712,1.666712 -4.375,4 l 0,0 z m -10.75,23.75 c 0.8333,0.166685 1.958299,0.625018 3.375,1.375 1.41663,0.750017 2.249962,1.625016 2.5,2.625 0.249962,1.000014 0.249962,1.875013 0,2.625 -0.250038,0.750012 -0.708371,1.000011 -1.375,0.75 -0.666703,-0.249988 -1.333369,-0.791654 -2,-1.625 -0.666701,-0.833319 -1.4167,-2.041651 -2.25,-3.625 -0.833365,-1.583315 -0.916698,-2.291648 -0.25,-2.125 l 0,0 z m 0.25,-16 c 2.166632,0.500034 3.458297,1.208367 3.875,2.125 0.41663,0.916699 0.499963,1.625031 0.25,2.125 -0.250036,0.50003 -0.708369,0.75003 -1.375,0.75 -0.666701,3e-5 -1.375034,-0.333303 -2.125,-1 -0.750032,-0.666635 -1.583365,-1.666634 -2.5,-3 -0.916696,-1.333298 -0.291697,-1.666631 1.875,-1 l 0,0 z m 6.25,-3.75 c 1.333293,3.9e-5 2.374959,0.250038 3.125,0.75 0.749957,0.500037 1.166624,1.08337 1.25,1.75 0.08329,0.666702 -0.04171,1.166702 -0.375,1.5 -0.333376,0.333368 -1.000042,0.208368 -2,-0.375 -1.00004,-0.583298 -1.875039,-1.374964 -2.625,-2.375 -0.750037,-0.999962 -0.541704,-1.416628 0.625,-1.25 l 0,0 z"
         style="font-style:normal;font-variant:normal;font-weight:normal;font-stretch:normal;font-size:64px;line-height:100%;font-family:KaiTi;text-align:center;writing-mode:lr-tb;text-anchor:middle;fill:#000000;fill-opacity:1;stroke:#000000;stroke-opacity:0.49803922"
         id="text11939"
         inkscape:connector-curvature="0" />
    </g>
  </g>
</svg>
