<?xml version="1.0" encoding="UTF-8" standalone="no"?><svg xmlns:dc="http://purl.org/dc/elements/1.1/" xmlns:cc="http://web.resource.org/cc/" xmlns:rdf="http://www.w3.org/1999/02/22-rdf-syntax-ns#" xmlns:svg="http://www.w3.org/2000/svg" xmlns="http://www.w3.org/2000/svg" xmlns:xlink="http://www.w3.org/1999/xlink" xmlns:sodipodi="http://sodipodi.sourceforge.net/DTD/sodipodi-0.dtd" xmlns:inkscape="http://www.inkscape.org/namespaces/inkscape" version="1.0" width="108.07086" height="124.01575" id="svg2166" sodipodi:version="0.32" inkscape:version="0.45" sodipodi:docname="oushou.svg" inkscape:output_extension="org.inkscape.output.svg.inkscape" sodipodi:docbase="C:\Develop\Shogi\Shogi\gfx\default" sodipodi:modified="true"><metadata id="metadata15"><rdf:RDF><cc:Work rdf:about=""><dc:format>image/svg+xml</dc:format><dc:type rdf:resource="http://purl.org/dc/dcmitype/StillImage"/><dc:title>王將</dc:title><dc:date>2007-07-22</dc:date><dc:creator><cc:Agent><dc:title>13xforever</dc:title></cc:Agent></dc:creator><dc:language>ja</dc:language><dc:subject><rdf:Bag><rdf:li>oushou</rdf:li><rdf:li>osho</rdf:li><rdf:li>王将</rdf:li><rdf:li>shougi</rdf:li><rdf:li>shogi</rdf:li><rdf:li>将棋</rdf:li></rdf:Bag></dc:subject><dc:coverage>board game</dc:coverage><cc:license rdf:resource="http://creativecommons.org/licenses/by-sa/3.0/"/></cc:Work><cc:License rdf:about="http://creativecommons.org/licenses/by-sa/3.0/"><cc:permits rdf:resource="http://web.resource.org/cc/Reproduction"/><cc:permits rdf:resource="http://web.resource.org/cc/Distribution"/><cc:requires rdf:resource="http://web.resource.org/cc/Notice"/><cc:requires rdf:resource="http://web.resource.org/cc/Attribution"/><cc:permits rdf:resource="http://web.resource.org/cc/DerivativeWorks"/><cc:requires rdf:resource="http://web.resource.org/cc/ShareAlike"/></cc:License></rdf:RDF></metadata><sodipodi:namedview inkscape:window-height="575" inkscape:window-width="765" inkscape:pageshadow="2" inkscape:pageopacity="0.0" guidetolerance="10.0" gridtolerance="10.0" objecttolerance="10.0" borderopacity="1.0" bordercolor="#666666" pagecolor="#ffffff" id="base" inkscape:zoom="3.0399365" inkscape:cx="54.035431" inkscape:cy="62.007874" inkscape:window-x="38" inkscape:window-y="748" inkscape:current-layer="svg2166"/><defs id="defs2168"><linearGradient id="linearGradient10936"><stop style="stop-color:#fcf3e8;stop-opacity:1" offset="0" id="stop10938"/><stop style="stop-color:#ba6100;stop-opacity:1" offset="1" id="stop10940"/></linearGradient><linearGradient x1="17.523264" y1="5.9785309" x2="101.69292" y2="113.38583" id="linearGradient10942" xlink:href="#linearGradient10936" gradientUnits="userSpaceOnUse" gradientTransform="translate(3.1889734,0)"/><linearGradient x1="17.523264" y1="5.9785309" x2="101.69292" y2="113.38583" id="linearGradient12957" xlink:href="#linearGradient10936" gradientUnits="userSpaceOnUse" gradientTransform="translate(3.1889734,0)"/></defs><g id="layer1"><g transform="translate(0,5.3149579)" id="g12950"><path d="M 3.6843532,112.89045 L 104.38651,112.89045 L 87.439074,5.7639005 L 54.035433,0.49538136 L 20.63179,5.7639005 L 3.6843532,112.89045 z " style="fill:url(#linearGradient12957);fill-opacity:1;fill-rule:evenodd;stroke:#000000;stroke-width:0.99075961px;stroke-linecap:butt;stroke-linejoin:miter;stroke-opacity:0.49803922" id="path9965"/><path d="M 54.035431,15.790195 C 55.493734,16.665228 56.040609,17.613143 55.676056,18.633945 C 55.311443,19.654808 55.056235,22.498555 54.910431,27.165195 C 57.535399,26.581884 59.394772,26.144385 60.488556,25.852695 C 61.58227,25.561052 62.821852,25.81626 64.207306,26.61832 C 65.592683,27.420425 64.899975,28.149591 62.129181,28.80582 C 59.358314,29.46209 56.952066,29.936048 54.910431,30.227695 C 54.910402,34.60271 54.837485,38.613122 54.691681,42.258945 C 58.629148,41.675619 61.728103,41.23812 63.988556,40.946445 C 66.248932,40.654787 67.962472,40.472495 69.129181,40.39957 C 70.295803,40.326662 71.571843,40.472495 72.957306,40.83707 C 74.342674,41.201661 75.545798,42.003744 76.566681,43.24332 C 77.587462,44.482908 75.946839,44.883949 71.644806,44.446445 C 67.342681,44.00895 63.113518,43.972492 58.957306,44.33707 C 54.801027,44.701658 50.608323,45.248532 46.379181,45.977695 C 42.149998,46.706864 39.051042,47.253739 37.082306,47.61832 C 35.113546,47.982905 33.32709,47.65478 31.722931,46.633945 C 30.11876,45.613115 30.228135,45.066241 32.051056,44.99332 C 33.873964,44.920408 36.31667,44.701658 39.379181,44.33707 C 42.441664,43.972492 46.59791,43.352701 51.847931,42.477695 L 51.847931,30.665195 C 49.514574,31.102713 47.691659,31.39438 46.379181,31.540195 C 45.066661,31.686046 43.60833,31.357921 42.004181,30.55582 C 40.399999,29.753756 40.873957,29.206882 43.426056,28.915195 C 45.978119,28.623549 48.785408,28.186049 51.847931,27.602695 C 51.993738,24.394387 51.993738,21.915222 51.847931,20.165195 C 51.702071,18.415226 51.483322,17.102727 51.191681,16.227695 C 49.295824,16.519394 47.618742,16.701686 46.160431,16.77457 C 44.702078,16.847519 43.316663,16.482936 42.004181,15.68082 C 40.691666,14.878771 40.764582,14.404813 42.222931,14.258945 C 43.681246,14.113147 46.743743,13.602731 51.410431,12.727695 C 56.077067,11.852732 59.394772,11.196483 61.363556,10.758945 C 63.332268,10.321484 64.827058,10.540234 65.847931,11.415195 C 66.868723,12.290232 65.957266,13.128773 63.113556,13.93082 C 60.269771,14.732938 57.243733,15.352729 54.035431,15.790195 L 54.035431,15.790195 z " style="font-size:56px;font-style:normal;font-variant:normal;font-weight:normal;font-stretch:normal;text-align:center;line-height:100%;writing-mode:lr-tb;text-anchor:middle;fill:#000000;fill-opacity:1;stroke:#000000;stroke-opacity:0.49803922;font-family:KaiTi" id="text11929"/><path d="M 38.035431,82.681763 C 39.035414,84.015115 39.327081,85.015114 38.910431,85.681763 C 38.493748,86.348446 37.743749,87.973445 36.660431,90.556763 C 35.577084,93.140106 34.327086,95.306771 32.910431,97.056763 C 31.493755,98.806767 30.07709,100.05677 28.660431,100.80676 C 27.243759,101.55676 27.160426,101.18176 28.410431,99.681763 C 29.660424,98.181768 30.827089,96.390103 31.910431,94.306763 C 32.993754,92.22344 33.827086,90.140109 34.410431,88.056763 C 34.993752,85.973447 35.118751,84.598448 34.785431,83.931763 C 32.118754,84.765114 30.452089,85.265114 29.785431,85.431763 C 29.118757,85.598447 28.118758,85.098447 26.785431,83.931763 C 25.452094,82.765116 25.535428,82.181784 27.035431,82.181763 C 28.535425,82.181784 30.118756,82.056784 31.785431,81.806763 C 33.452086,81.556784 35.285418,81.223451 37.285431,80.806763 C 39.285414,80.390119 41.535412,79.848453 44.035431,79.181763 C 44.368742,76.015123 44.535409,73.431792 44.535431,71.431763 C 42.702077,71.598461 41.327079,71.806794 40.410431,72.056763 C 39.493747,72.306794 38.660415,72.72346 37.910431,73.306763 C 37.160416,73.890125 36.535417,73.848459 36.035431,73.181763 C 35.535418,72.515127 35.368751,71.723461 35.535431,70.806763 C 35.702084,69.890129 35.785417,69.01513 35.785431,68.181763 C 35.785417,67.348465 35.618751,66.1818 35.285431,64.681763 C 34.952085,63.181803 34.410419,62.015137 33.660431,61.181763 C 32.91042,60.348472 33.03542,59.931806 34.035431,59.931763 C 35.035418,59.931806 35.910417,60.056806 36.660431,60.306763 C 37.410416,60.556805 37.910415,60.848472 38.160431,61.181763 C 38.410415,61.515138 38.493748,62.140137 38.410431,63.056763 C 38.327082,63.973469 38.285415,64.848468 38.285431,65.681763 C 38.285415,66.515133 38.327082,67.431798 38.410431,68.431763 C 38.493748,69.431796 38.660415,69.890129 38.910431,69.806763 C 39.160414,69.723463 39.868747,69.598463 41.035431,69.431763 C 42.202078,69.26513 43.368743,69.26513 44.535431,69.431763 C 44.535409,65.598467 44.452075,62.806803 44.285431,61.056763 C 44.118742,59.306807 43.702076,57.848475 43.035431,56.681763 C 42.368744,55.515144 42.368744,54.931811 43.035431,54.931763 C 43.702076,54.931811 44.618742,55.140144 45.785431,55.556763 C 46.952073,55.973477 47.785405,56.431809 48.285431,56.931763 C 48.785404,57.431808 48.827071,58.140141 48.410431,59.056763 C 47.993739,59.973473 47.702072,61.765137 47.535431,64.431763 C 47.368739,67.098465 47.202073,71.515128 47.035431,77.681763 C 46.86874,83.848449 46.785406,88.098444 46.785431,90.431763 C 46.785406,92.59844 46.702073,94.890104 46.535431,97.306763 C 46.36874,99.723433 46.160407,101.3901 45.910431,102.30676 C 45.660408,103.22343 45.285408,103.59843 44.785431,103.43176 C 44.285409,103.2651 43.743743,102.3901 43.160431,100.80676 C 42.577077,99.223433 42.452077,97.515102 42.785431,95.681763 C 43.118743,93.848439 43.41041,91.556774 43.660431,88.806763 C 43.910409,86.05678 44.035409,83.348449 44.035431,80.681763 L 38.035431,82.681763 z M 70.285431,77.681763 C 74.118712,76.848456 76.702043,76.30679 78.035431,76.056763 C 79.368707,75.80679 80.577039,76.265123 81.660431,77.431763 C 82.743704,78.598454 82.452037,79.223453 80.785431,79.306763 C 79.118707,79.39012 75.618711,79.598453 70.285431,79.931763 C 70.285383,84.431781 70.32705,87.765111 70.410431,89.931763 C 70.493716,92.09844 70.618716,94.265105 70.785431,96.431763 C 70.952049,98.598434 70.785382,100.5151 70.285431,102.18176 C 69.785383,103.84843 68.910384,105.30676 67.660431,106.55676 C 66.410387,107.80676 65.410388,107.64009 64.660431,106.05676 C 63.910389,104.47343 62.577057,103.05676 60.660431,101.80676 C 58.743728,100.55677 58.827061,100.09843 60.910431,100.43176 C 62.993724,100.7651 64.452055,100.84843 65.285431,100.68176 C 66.11872,100.5151 66.660387,99.431766 66.910431,97.431763 C 67.160386,95.43177 67.202053,89.681776 67.035431,80.181763 C 60.868726,81.015118 56.785396,81.723451 54.785431,82.306763 C 52.7854,82.890116 50.993736,82.640117 49.410431,81.556763 C 47.827072,80.473452 48.035405,79.931786 50.035431,79.931763 C 52.035401,79.931786 57.618729,79.26512 66.785431,77.931763 C 66.61872,76.265123 66.202054,74.890124 65.535431,73.806763 C 64.868722,72.72346 65.202055,72.34846 66.535431,72.681763 C 67.868719,73.015126 69.035384,73.431792 70.035431,73.931763 C 71.035382,74.431791 71.327049,74.931791 70.910431,75.431763 C 70.493716,75.93179 70.285383,76.681789 70.285431,77.681763 L 70.285431,77.681763 z M 65.285431,60.181763 C 68.118718,60.181806 70.160383,59.931806 71.410431,59.431763 C 72.660381,58.931807 73.827046,58.931807 74.910431,59.431763 C 75.993711,59.931806 76.952043,60.515139 77.785431,61.181763 C 78.618708,61.848471 78.910374,62.34847 78.660431,62.681763 C 78.410375,63.015136 77.785375,63.431802 76.785431,63.931763 C 75.785377,64.431801 74.327046,65.4318 72.410431,66.931763 C 70.493716,68.431797 68.368718,70.015129 66.035431,71.681763 C 63.702056,73.348459 61.618725,74.598458 59.785431,75.431763 C 57.952062,76.265123 56.410397,76.931789 55.160431,77.431763 C 53.910399,77.931788 52.660401,78.223454 51.410431,78.306763 C 50.160403,78.390121 50.660403,77.890121 52.910431,76.806763 C 55.160398,75.723457 57.118729,74.640125 58.785431,73.556763 C 60.452059,72.47346 62.285391,71.181795 64.285431,69.681763 C 66.285387,68.181798 67.910385,66.848466 69.160431,65.681763 C 70.410383,64.515135 71.368715,63.473469 72.035431,62.556763 C 72.702047,61.640138 71.993715,61.390138 69.910431,61.806763 C 67.827052,62.22347 65.785387,62.015137 63.785431,61.181763 L 60.785431,63.681763 C 58.118728,65.181801 56.160397,66.098466 54.910431,66.431763 C 53.6604,66.765132 53.5354,66.556799 54.535431,65.806763 C 55.535398,65.056801 57.035396,63.806802 59.035431,62.056763 C 61.035392,60.306806 62.452057,58.76514 63.285431,57.431763 C 64.118722,56.098476 64.535389,54.931811 64.535431,53.931763 C 64.535389,52.765146 65.285388,52.515147 66.785431,53.181763 C 68.285385,53.848479 69.285384,54.431811 69.785431,54.931763 C 70.285383,55.43181 70.243716,55.848477 69.660431,56.181763 C 69.077051,56.515143 67.618719,57.848475 65.285431,60.181763 L 65.285431,60.181763 z M 54.535431,83.931763 C 55.368731,84.098448 56.49373,84.556781 57.910431,85.306763 C 59.327061,86.05678 60.160393,86.931779 60.410431,87.931763 C 60.660393,88.931777 60.660393,89.806776 60.410431,90.556763 C 60.160393,91.306775 59.70206,91.556774 59.035431,91.306763 C 58.368728,91.056775 57.702062,90.515109 57.035431,89.681763 C 56.36873,88.848444 55.618731,87.640112 54.785431,86.056763 C 53.952066,84.473448 53.868733,83.765115 54.535431,83.931763 L 54.535431,83.931763 z M 54.785431,67.931763 C 56.952063,68.431797 58.243728,69.14013 58.660431,70.056763 C 59.077061,70.973462 59.160394,71.681794 58.910431,72.181763 C 58.660395,72.681793 58.202062,72.931793 57.535431,72.931763 C 56.86873,72.931793 56.160397,72.59846 55.410431,71.931763 C 54.660399,71.265128 53.827066,70.265129 52.910431,68.931763 C 51.993735,67.598465 52.618734,67.265132 54.785431,67.931763 L 54.785431,67.931763 z M 61.035431,64.181763 C 62.368724,64.181802 63.41039,64.431801 64.160431,64.931763 C 64.910388,65.4318 65.327055,66.015133 65.410431,66.681763 C 65.493721,67.348465 65.368721,67.848465 65.035431,68.181763 C 64.702055,68.515131 64.035389,68.390131 63.035431,67.806763 C 62.035391,67.223465 61.160392,66.431799 60.410431,65.431763 C 59.660394,64.431801 59.868727,64.015135 61.035431,64.181763 L 61.035431,64.181763 z " style="font-size:64px;font-style:normal;font-variant:normal;font-weight:normal;font-stretch:normal;text-align:center;line-height:100%;writing-mode:lr-tb;text-anchor:middle;fill:#000000;fill-opacity:1;stroke:#000000;stroke-opacity:0.49803922;font-family:KaiTi" id="text11939"/></g></g></svg>
