<?xml version="1.0" encoding="UTF-8" standalone="no"?><svg xmlns:dc="http://purl.org/dc/elements/1.1/" xmlns:cc="http://web.resource.org/cc/" xmlns:rdf="http://www.w3.org/1999/02/22-rdf-syntax-ns#" xmlns:svg="http://www.w3.org/2000/svg" xmlns="http://www.w3.org/2000/svg" xmlns:xlink="http://www.w3.org/1999/xlink" xmlns:sodipodi="http://sodipodi.sourceforge.net/DTD/sodipodi-0.dtd" xmlns:inkscape="http://www.inkscape.org/namespaces/inkscape" version="1.0" width="108.07086" height="124.01575" id="svg2166" sodipodi:version="0.32" inkscape:version="0.45" sodipodi:docname="keima.svg" inkscape:output_extension="org.inkscape.output.svg.inkscape" sodipodi:docbase="C:\Develop\Shogi\Shogi\gfx\default" sodipodi:modified="true"><metadata id="metadata15"><rdf:RDF><cc:Work rdf:about=""><dc:format>image/svg+xml</dc:format><dc:type rdf:resource="http://purl.org/dc/dcmitype/StillImage"/><dc:title>桂馬</dc:title><dc:date>2007-07-22</dc:date><dc:creator><cc:Agent><dc:title>13xforever</dc:title></cc:Agent></dc:creator><dc:language>ja</dc:language><dc:subject><rdf:Bag><rdf:li>keima</rdf:li><rdf:li>桂馬</rdf:li><rdf:li>shougi</rdf:li><rdf:li>shogi</rdf:li><rdf:li>将棋</rdf:li></rdf:Bag></dc:subject><dc:coverage>board game</dc:coverage><cc:license rdf:resource="http://creativecommons.org/licenses/by-sa/3.0/"/></cc:Work><cc:License rdf:about="http://creativecommons.org/licenses/by-sa/3.0/"><cc:permits rdf:resource="http://web.resource.org/cc/Reproduction"/><cc:permits rdf:resource="http://web.resource.org/cc/Distribution"/><cc:requires rdf:resource="http://web.resource.org/cc/Notice"/><cc:requires rdf:resource="http://web.resource.org/cc/Attribution"/><cc:permits rdf:resource="http://web.resource.org/cc/DerivativeWorks"/><cc:requires rdf:resource="http://web.resource.org/cc/ShareAlike"/></cc:License></rdf:RDF></metadata><sodipodi:namedview inkscape:window-height="575" inkscape:window-width="765" inkscape:pageshadow="2" inkscape:pageopacity="0.0" guidetolerance="10.0" gridtolerance="10.0" objecttolerance="10.0" borderopacity="1.0" bordercolor="#666666" pagecolor="#ffffff" id="base" inkscape:zoom="3.0399365" inkscape:cx="54.035431" inkscape:cy="62.007874" inkscape:window-x="8" inkscape:window-y="757" inkscape:current-layer="svg2166"/><defs id="defs2168"><linearGradient id="linearGradient10936"><stop style="stop-color:#fcf3e8;stop-opacity:1" offset="0" id="stop10938"/><stop style="stop-color:#ba6100;stop-opacity:1" offset="1" id="stop10940"/></linearGradient><linearGradient x1="17.523264" y1="5.9785309" x2="101.69292" y2="113.38583" id="linearGradient10942" xlink:href="#linearGradient10936" gradientUnits="userSpaceOnUse" gradientTransform="translate(3.1889734,0)"/><linearGradient x1="17.523264" y1="5.9785309" x2="101.69292" y2="113.38583" id="linearGradient12957" xlink:href="#linearGradient10936" gradientUnits="userSpaceOnUse" gradientTransform="translate(3.1889734,-6.1065495e-2)"/></defs><g id="layer1"><g transform="matrix(0.888518,0,0,0.9067047,6.0239773,16.553365)" id="g12950"><path d="M 3.6843532,112.82938 L 104.38651,112.82938 L 87.439074,5.702835 L 54.035433,0.43431586 L 20.63179,5.702835 L 3.6843532,112.82938 z " style="fill:url(#linearGradient12957);fill-opacity:1;fill-rule:evenodd;stroke:#000000;stroke-width:1.11412513;stroke-linecap:butt;stroke-linejoin:miter;stroke-miterlimit:4;stroke-dasharray:none;stroke-opacity:0.49803922" id="path9965"/><path d="M 64.64573,19.392877 C 66.113785,19.125981 67.515144,18.859055 68.849811,18.5921 C 70.184399,18.325204 71.18537,18.458667 71.852727,18.992488 C 72.519998,19.526369 72.086244,20.093586 70.551463,20.69414 C 69.0166,21.294751 67.048024,21.795236 64.64573,22.195598 L 64.445536,27.000262 C 67.248218,26.466433 69.216794,26.066044 70.351269,25.799096 C 71.485661,25.532193 72.553363,25.532193 73.554379,25.799096 C 74.555305,26.066044 75.222619,26.499798 75.556322,27.100359 C 75.889932,27.700963 75.52291,28.067986 74.455253,28.201428 C 73.387506,28.334911 71.919415,28.50174 70.050978,28.701914 C 68.182458,28.902128 65.846859,29.202419 63.044175,29.602788 C 64.512232,30.67051 65.079449,31.538018 64.745827,32.205315 C 64.412135,32.872645 64.245306,34.340736 64.245342,36.60959 C 65.579934,36.342677 66.781099,36.109117 67.84884,35.90891 C 68.916503,35.708729 69.850742,35.908923 70.651561,36.509493 C 71.452295,37.110088 71.218736,37.643939 69.95088,38.111048 C 68.682943,38.578178 66.781099,39.011932 64.245342,39.412311 L 64.045147,44.617364 C 66.981293,44.350443 69.517085,44.050152 71.652532,43.71649 C 73.787894,43.382838 75.422813,43.583032 76.557294,44.317073 C 77.69168,45.051122 78.125434,45.618339 77.858557,46.018725 C 77.591583,46.419116 76.123492,46.552579 73.454281,46.419113 C 70.784982,46.285653 68.115726,46.285653 65.446508,46.419113 C 62.777216,46.552579 60.107961,46.819504 57.438734,47.219891 C 54.76945,47.620281 52.800874,47.953938 51.533001,48.220862 C 50.265082,48.487789 49.063917,48.187497 47.929503,47.319988 C 46.79505,46.452481 47.228804,46.018727 49.230766,46.018725 C 51.232687,46.018727 55.370033,45.618339 61.642815,44.817559 L 61.642815,39.8127 C 60.041229,39.946172 58.706602,40.012903 57.638928,40.012894 C 56.571197,40.012903 55.603592,39.712612 54.73611,39.11202 C 53.868577,38.511447 54.335696,38.111059 56.137471,37.910854 C 57.939191,37.71067 59.774304,37.410379 61.642815,37.009979 C 61.642782,33.673422 61.309126,31.337824 60.641843,30.003177 C 59.173721,30.270121 57.605534,30.570413 55.937276,30.904052 C 54.268965,31.237727 52.83424,31.070898 51.633098,30.403566 C 50.43191,29.73627 50.532007,29.335882 51.933389,29.2024 C 53.334725,29.068957 56.70466,28.468374 62.043204,27.400651 L 62.043204,22.796181 C 60.708543,22.92967 59.640841,23.029767 58.840094,23.096472 C 58.039288,23.163229 57.205146,22.996401 56.337665,22.595986 C 55.47013,22.195624 55.536861,21.828602 56.537859,21.494918 C 57.538802,21.161288 59.373915,20.660803 62.043204,19.99346 C 62.043171,18.258473 62.009805,16.590188 61.943107,14.988601 C 61.876342,13.387082 61.542685,11.952357 60.942135,10.684423 C 60.341521,9.4165648 60.675177,8.9828109 61.943107,9.3831597 C 63.21097,9.7835874 64.278672,10.250707 65.146216,10.78452 C 66.013688,11.318409 66.180516,11.985723 65.646702,12.786464 C 65.112814,13.587276 64.779157,15.789412 64.64573,19.392877 L 64.64573,19.392877 z M 45.427073,23.396764 C 47.428998,22.862938 48.696894,22.629378 49.230766,22.696084 C 49.764597,22.762841 50.198351,22.963035 50.532029,23.296667 C 50.865664,23.630349 50.698836,23.997372 50.031543,24.397736 C 49.364208,24.798148 47.829387,25.331999 45.427073,25.99929 L 45.427073,31.004149 C 46.494759,31.271092 47.428998,31.571383 48.229794,31.905023 C 49.030551,32.238697 49.464305,32.972742 49.531057,34.107161 C 49.597768,35.241609 49.19738,35.575266 48.329891,35.108133 C 47.462364,34.641027 46.494759,33.873616 45.427073,32.805898 L 45.427073,43.816587 C 45.427057,46.085459 45.193497,48.187497 44.726393,50.122709 C 44.259258,52.057917 43.658675,52.124649 42.924644,50.322903 C 42.190585,48.521154 41.957025,47.119795 42.223964,46.118822 C 42.490876,45.117854 42.757802,43.683129 43.024741,41.814643 C 43.291653,39.946172 43.425115,36.00902 43.42513,30.003177 C 40.222009,35.875558 37.152366,39.87944 34.21619,42.014838 C 31.280004,44.150249 30.61269,44.317077 32.214247,42.515324 C 33.815796,40.713583 35.584178,38.277887 37.519397,35.20823 C 39.454598,32.1386 40.889323,29.469345 41.823575,27.200456 C 39.554695,27.867792 37.886411,28.26818 36.818716,28.401622 C 35.751007,28.535106 34.683304,28.368277 33.615607,27.901137 C 32.5479,27.434038 32.848191,27.033649 34.516481,26.69997 C 36.18476,26.366336 39.154307,25.465462 43.42513,23.997347 C 43.425115,21.194654 43.358384,18.492033 43.224935,15.889476 C 43.091458,13.286985 42.69107,11.451872 42.023769,10.384131 C 41.356443,9.3164678 41.656734,8.9160795 42.924644,9.1829654 C 44.192526,9.4499305 45.293594,9.8503188 46.227851,10.384131 C 47.162073,10.918021 47.328901,11.652066 46.728336,12.586269 C 46.127736,13.520545 45.693982,17.124039 45.427073,23.396764 L 45.427073,23.396764 z " style="font-size:51.24975204px;font-style:normal;font-variant:normal;font-weight:normal;font-stretch:normal;text-align:center;line-height:100%;writing-mode:lr-tb;text-anchor:middle;fill:#000000;fill-opacity:1;stroke:#000000;stroke-width:1.11412513;stroke-miterlimit:4;stroke-opacity:0.49803922;font-family:KaiTi" id="text11929"/><path d="M 56.68583,56.989092 C 57.863749,57.998813 58.368586,58.798139 58.200344,59.387072 C 58.032028,59.976093 57.863749,60.943698 57.695506,62.28989 C 59.71482,61.953373 61.187262,61.658884 62.112838,61.406424 C 63.038333,61.154047 63.837659,61.238187 64.510818,61.658843 C 65.183892,62.079582 65.43631,62.45821 65.268075,62.794728 C 65.099752,63.131327 64.090077,63.552025 62.239047,64.056823 C 60.387936,64.5617 58.705145,64.982398 57.190668,65.318918 C 57.022353,66.328631 56.938214,67.927282 56.938249,70.114878 C 58.957563,69.778353 60.514145,69.483865 61.608,69.231412 C 62.701774,68.979027 63.669379,69.147306 64.510818,69.73625 C 65.352171,70.32526 64.931473,70.914237 63.248723,71.503183 C 61.56589,72.092191 59.462401,72.554959 56.938249,72.891487 C 56.769935,75.920542 56.685795,77.855752 56.68583,78.697123 C 61.397611,78.19231 64.636984,77.603333 66.40396,76.93019 C 68.170846,76.2571 69.47501,75.920542 70.316454,75.920514 C 71.157801,75.920542 72.083336,76.130891 73.093063,76.551562 C 74.102686,76.972286 75.32271,77.603333 76.753138,78.444704 C 78.183455,79.286125 78.393804,80.464079 77.384185,81.97857 C 76.374455,83.493103 75.743408,85.891081 75.491043,89.17251 C 75.23857,92.453967 74.775803,95.651271 74.102738,98.764431 C 73.42957,101.8776 71.999197,104.528 69.811616,106.71563 C 67.623939,108.90325 66.277706,109.07153 65.772913,107.22047 C 65.268031,105.36939 64.005938,103.51832 61.986628,101.66725 C 59.967238,99.81618 59.925168,99.185133 61.860419,99.774107 C 63.795589,100.36309 65.352171,100.78378 66.530169,101.0362 C 67.708079,101.28862 68.675684,100.57344 69.432988,98.89064 C 70.190196,97.207853 70.863313,94.473317 71.452339,90.687024 C 72.041267,86.900756 72.209546,84.12415 71.957177,82.357198 C 71.704708,80.590288 71.115731,79.622683 70.190244,79.45438 C 69.264661,79.286125 67.834288,79.286125 65.899122,79.45438 C 63.963868,79.622683 61.439681,79.959241 58.326553,80.464056 C 55.213352,80.968916 49.954629,81.810312 42.550368,82.988245 C 41.708951,84.671057 40.951695,84.839336 40.278597,83.493083 C 39.605462,82.14687 39.437183,80.674427 39.773759,79.075752 C 40.1103,77.477124 40.278579,75.247425 40.278597,72.386649 L 40.278597,63.299566 C 40.278579,60.102302 40.06823,57.956743 39.64755,56.862883 C 39.226834,55.769114 39.268904,55.180138 39.773759,55.09595 C 40.278579,55.011858 41.162044,55.138068 42.424158,55.474578 C 43.686231,55.811184 45.705581,55.811184 48.482213,55.474578 C 51.258793,55.138068 54.203678,54.63323 57.316877,53.960065 C 60.430006,53.286997 62.701774,52.78216 64.132189,52.445551 C 65.56252,52.109043 66.656334,52.193183 67.413636,52.69797 C 68.170846,53.202858 68.212916,53.707695 67.539845,54.212483 C 66.866683,54.71737 65.310101,55.222207 62.870094,55.726997 C 60.430006,56.231882 58.368586,56.65258 56.68583,56.989092 L 56.68583,56.989092 z M 43.560044,58.251187 C 43.223464,63.299606 43.055184,67.506585 43.055206,70.872135 C 43.055184,74.23775 42.886905,77.519194 42.550368,80.716475 C 44.737976,80.548218 46.757326,80.337869 48.608423,80.085427 C 50.459467,79.833032 52.142258,79.538543 53.656802,79.201961 C 53.82505,77.350914 53.909189,75.499844 53.909221,73.648744 C 52.731235,73.817052 51.511211,73.943262 50.249146,74.027372 C 48.987024,74.111541 47.80907,73.943262 46.715281,73.522534 C 45.621441,73.101866 46.084209,72.723238 48.103585,72.386649 L 53.909221,71.124554 L 53.909221,66.328594 C 52.226398,66.49691 50.753955,66.53898 49.491889,66.454803 C 48.229768,66.3707 47.346303,66.160352 46.84149,65.823756 C 46.336628,65.487235 47.009744,65.150677 48.860842,64.81408 C 50.711885,64.47756 52.394677,64.056862 53.909221,63.551985 C 53.909189,61.196117 53.82505,59.176767 53.656802,57.49393 C 50.627746,57.830534 47.262163,58.082953 43.560044,58.251187 L 43.560044,58.251187 z M 33.968123,87.784206 C 34.641227,89.635292 34.935716,91.318083 34.851589,92.832585 C 34.767437,94.347108 34.262599,95.90369 33.337076,97.502336 C 32.411529,99.100994 31.485994,99.143063 30.560467,97.628545 C 29.634923,96.114039 29.592853,94.809875 30.434257,93.716052 C 31.275645,92.622247 31.906691,90.897385 32.3274,88.541463 C 32.748087,86.185569 33.294994,85.933151 33.968123,87.784206 L 33.968123,87.784206 z M 60.472114,83.997921 C 62.491425,85.007615 63.753519,86.1435 64.258399,87.405577 C 64.763194,88.667687 64.679054,89.803571 64.00598,90.813233 C 63.332821,91.822921 62.575565,91.822921 61.734209,90.813233 C 60.892774,89.803571 60.009308,88.162849 59.08381,85.891064 C 58.158237,83.619312 58.621005,82.988266 60.472114,83.997921 L 60.472114,83.997921 z M 42.04553,86.77453 C 43.560022,87.447663 44.527627,88.541477 44.948348,90.055977 C 45.369023,91.570502 45.116604,92.832595 44.191091,93.842261 C 43.265533,94.851945 42.466208,94.515387 41.793111,92.832585 C 41.119974,91.149804 40.657207,89.509082 40.404807,87.910415 C 40.152369,86.311779 40.699277,85.933151 42.04553,86.77453 L 42.04553,86.77453 z M 51.132613,85.764854 C 52.983654,86.437988 53.909189,87.700082 53.909221,89.551139 C 53.909189,91.233944 53.572631,92.117409 52.899545,92.201538 C 52.226398,92.285688 51.553281,91.738781 50.880194,90.560814 C 50.207048,89.382873 49.660141,88.07871 49.23947,86.64832 C 48.818745,85.217964 49.449792,84.923476 51.132613,85.764854 L 51.132613,85.764854 z " style="font-size:64.61925507px;font-style:normal;font-variant:normal;font-weight:normal;font-stretch:normal;text-align:center;line-height:100%;writing-mode:lr-tb;text-anchor:middle;fill:#000000;fill-opacity:1;stroke:#000000;stroke-width:1.11412513;stroke-miterlimit:4;stroke-opacity:0.49803922;font-family:KaiTi" id="text11939"/></g></g></svg>
