<?xml version="1.0" encoding="UTF-8" standalone="no"?><svg xmlns:dc="http://purl.org/dc/elements/1.1/" xmlns:cc="http://web.resource.org/cc/" xmlns:rdf="http://www.w3.org/1999/02/22-rdf-syntax-ns#" xmlns:svg="http://www.w3.org/2000/svg" xmlns="http://www.w3.org/2000/svg" xmlns:xlink="http://www.w3.org/1999/xlink" xmlns:sodipodi="http://sodipodi.sourceforge.net/DTD/sodipodi-0.dtd" xmlns:inkscape="http://www.inkscape.org/namespaces/inkscape" version="1.0" width="108.07086" height="124.01575" id="svg2166" sodipodi:version="0.32" inkscape:version="0.45" sodipodi:docname="narikei.svg" inkscape:output_extension="org.inkscape.output.svg.inkscape" sodipodi:docbase="C:\Develop\Shogi\Shogi\gfx\default" sodipodi:modified="true"><metadata id="metadata14"><rdf:RDF><cc:Work rdf:about=""><dc:format>image/svg+xml</dc:format><dc:type rdf:resource="http://purl.org/dc/dcmitype/StillImage"/><dc:title>成桂</dc:title><dc:date>2007-07-22</dc:date><dc:creator><cc:Agent><dc:title>13xforever</dc:title></cc:Agent></dc:creator><dc:language>ja</dc:language><dc:subject><rdf:Bag><rdf:li>narikei</rdf:li><rdf:li>成桂</rdf:li><rdf:li>shougi</rdf:li><rdf:li>shogi</rdf:li><rdf:li>将棋</rdf:li></rdf:Bag></dc:subject><dc:coverage>board game</dc:coverage><cc:license rdf:resource="http://creativecommons.org/licenses/by-sa/3.0/"/></cc:Work><cc:License rdf:about="http://creativecommons.org/licenses/by-sa/3.0/"><cc:permits rdf:resource="http://web.resource.org/cc/Reproduction"/><cc:permits rdf:resource="http://web.resource.org/cc/Distribution"/><cc:requires rdf:resource="http://web.resource.org/cc/Notice"/><cc:requires rdf:resource="http://web.resource.org/cc/Attribution"/><cc:permits rdf:resource="http://web.resource.org/cc/DerivativeWorks"/><cc:requires rdf:resource="http://web.resource.org/cc/ShareAlike"/></cc:License></rdf:RDF></metadata><sodipodi:namedview inkscape:window-height="575" inkscape:window-width="765" inkscape:pageshadow="2" inkscape:pageopacity="0.0" guidetolerance="10.0" gridtolerance="10.0" objecttolerance="10.0" borderopacity="1.0" bordercolor="#666666" pagecolor="#ffffff" id="base" inkscape:zoom="3.0399365" inkscape:cx="54.035431" inkscape:cy="62.007874" inkscape:window-x="6" inkscape:window-y="772" inkscape:current-layer="svg2166"/><defs id="defs2168"><linearGradient id="linearGradient10936"><stop style="stop-color:#fcf3e8;stop-opacity:1" offset="0" id="stop10938"/><stop style="stop-color:#ba6100;stop-opacity:1" offset="1" id="stop10940"/></linearGradient><linearGradient x1="17.523264" y1="5.9785309" x2="101.69292" y2="113.38583" id="linearGradient10942" xlink:href="#linearGradient10936" gradientUnits="userSpaceOnUse" gradientTransform="translate(3.1889734,0)"/><linearGradient x1="17.523264" y1="5.9785309" x2="101.69292" y2="113.38583" id="linearGradient12957" xlink:href="#linearGradient10936" gradientUnits="userSpaceOnUse" gradientTransform="translate(3.1889734,-6.1065495e-2)"/></defs><g id="layer1"><g transform="matrix(0.888518,0,0,0.9067047,6.0239773,16.553365)" id="g12950"><path d="M 3.6843532,112.82938 L 104.38651,112.82938 L 87.439074,5.702835 L 54.035433,0.43431586 L 20.63179,5.702835 L 3.6843532,112.82938 z " style="fill:url(#linearGradient12957);fill-opacity:1;fill-rule:evenodd;stroke:#000000;stroke-width:1.11412513;stroke-linecap:butt;stroke-linejoin:miter;stroke-miterlimit:4;stroke-dasharray:none;stroke-opacity:0.49803922" id="path9965"/><path d="M 53.730787,31.549461 C 61.042186,39.267146 67.135052,45.207689 72.009402,49.37111 C 76.883636,53.534605 81.453285,56.276395 85.718362,57.596486 C 89.983297,58.916636 90.643357,59.830566 87.698545,60.338278 C 84.753587,60.846044 81.656381,61.049139 78.406916,60.947565 C 75.157324,60.846044 72.770952,59.627471 71.247793,57.291843 C 69.724519,54.956274 67.236599,51.50365 63.784025,46.933961 C 60.331352,42.364352 56.574085,37.845477 52.512213,33.377322 C 49.668838,38.657859 46.825501,43.227508 43.982193,47.086283 C 41.138826,50.945138 37.686203,54.702404 33.624312,58.358095 C 29.562382,62.013843 25.60202,64.755632 21.743212,66.583471 C 17.88439,68.411351 17.630521,68.00516 20.981603,65.364897 C 24.332673,62.724677 27.988392,59.373601 31.948772,55.311659 C 35.909117,51.249781 39.818705,45.918524 43.677549,39.317872 C 47.536335,32.717315 49.262647,28.45231 48.85649,26.522842 C 48.450265,24.593495 49.008777,23.882661 50.53203,24.390337 C 52.05521,24.898138 53.426105,25.608973 54.644718,26.522842 C 55.863251,27.436832 56.167894,28.147666 55.558649,28.655347 C 54.949321,29.163144 54.340034,30.127848 53.730787,31.549461 L 53.730787,31.549461 z M 65.002599,66.888115 C 66.221122,67.903613 66.271896,68.715995 65.154921,69.325264 C 64.037845,69.934568 63.022368,71.153141 62.108485,72.980986 C 61.194508,74.80886 59.722065,78.007614 57.691154,82.577259 C 55.660155,87.146912 53.933843,90.294893 52.512213,92.02121 C 51.090506,93.747517 50.176576,93.341325 49.770421,90.802635 C 49.364194,88.263938 50.075029,85.877565 51.902926,83.643511 C 53.730748,81.409464 55.355512,78.261484 56.777223,74.199561 C 58.198849,70.137663 58.554266,67.954387 57.843475,67.649724 C 57.132598,67.3451 54.54313,67.548196 50.075064,68.259011 C 45.606927,68.969864 42.509721,69.680698 40.783435,70.391516 C 39.057097,71.102367 37.076916,70.645402 34.842886,69.02062 C 32.608815,67.395874 32.862684,66.634266 35.604495,66.735793 C 38.346263,66.837361 42.154304,66.532718 47.028629,65.821863 C 51.902888,65.111049 55.20319,64.298667 56.929545,63.384714 C 58.655814,62.470808 60.17903,62.521582 61.499198,63.537036 C 62.819272,64.552537 63.987071,65.669562 65.002599,66.888115 L 65.002599,66.888115 z M 47.637916,53.483798 C 45.810023,51.655972 45.911571,50.742042 47.942559,50.742006 C 50.176576,50.742042 52.105984,50.995911 53.730787,51.503615 C 55.355512,52.011389 56.472537,52.976093 57.081867,54.397729 C 57.69111,55.81943 57.843432,57.088777 57.538832,58.205773 C 57.234145,59.322827 55.964799,59.22128 53.730787,57.90113 C 51.496697,56.581038 49.465742,55.108596 47.637916,53.483798 L 47.637916,53.483798 z " style="font-size:77.98875427px;font-style:normal;font-variant:normal;font-weight:normal;font-stretch:normal;text-align:center;line-height:100%;writing-mode:lr-tb;text-anchor:middle;fill:#de0000;fill-opacity:1;stroke:#000000;stroke-width:1.11412513;stroke-miterlimit:4;stroke-opacity:0.49803922;font-family:KaiTi" id="text11939"/></g></g></svg>
