<?xml version="1.0" encoding="UTF-8" standalone="no"?><svg xmlns:dc="http://purl.org/dc/elements/1.1/" xmlns:cc="http://web.resource.org/cc/" xmlns:rdf="http://www.w3.org/1999/02/22-rdf-syntax-ns#" xmlns:svg="http://www.w3.org/2000/svg" xmlns="http://www.w3.org/2000/svg" xmlns:xlink="http://www.w3.org/1999/xlink" xmlns:sodipodi="http://sodipodi.sourceforge.net/DTD/sodipodi-0.dtd" xmlns:inkscape="http://www.inkscape.org/namespaces/inkscape" version="1.0" width="108.07086" height="124.01575" id="svg2166" sodipodi:version="0.32" inkscape:version="0.45" sodipodi:docname="narikyou.svg" inkscape:output_extension="org.inkscape.output.svg.inkscape" sodipodi:docbase="C:\Develop\Shogi\Shogi\gfx\default" sodipodi:modified="true"><metadata id="metadata14"><rdf:RDF><cc:Work rdf:about=""><dc:format>image/svg+xml</dc:format><dc:type rdf:resource="http://purl.org/dc/dcmitype/StillImage"/><dc:title>成香</dc:title><dc:date>2007-07-22</dc:date><dc:creator><cc:Agent><dc:title>13xforever</dc:title></cc:Agent></dc:creator><dc:language>ja</dc:language><dc:subject><rdf:Bag><rdf:li>narikyou</rdf:li><rdf:li>narikyo</rdf:li><rdf:li>成香</rdf:li><rdf:li>shougi</rdf:li><rdf:li>shogi</rdf:li><rdf:li>将棋</rdf:li></rdf:Bag></dc:subject><dc:coverage>board game</dc:coverage><cc:license rdf:resource="http://creativecommons.org/licenses/by-sa/3.0/"/></cc:Work><cc:License rdf:about="http://creativecommons.org/licenses/by-sa/3.0/"><cc:permits rdf:resource="http://web.resource.org/cc/Reproduction"/><cc:permits rdf:resource="http://web.resource.org/cc/Distribution"/><cc:requires rdf:resource="http://web.resource.org/cc/Notice"/><cc:requires rdf:resource="http://web.resource.org/cc/Attribution"/><cc:permits rdf:resource="http://web.resource.org/cc/DerivativeWorks"/><cc:requires rdf:resource="http://web.resource.org/cc/ShareAlike"/></cc:License></rdf:RDF></metadata><sodipodi:namedview inkscape:window-height="575" inkscape:window-width="765" inkscape:pageshadow="2" inkscape:pageopacity="0.0" guidetolerance="10.0" gridtolerance="10.0" objecttolerance="10.0" borderopacity="1.0" bordercolor="#666666" pagecolor="#ffffff" id="base" inkscape:zoom="3.0399365" inkscape:cx="54.035431" inkscape:cy="62.007874" inkscape:window-x="32" inkscape:window-y="819" inkscape:current-layer="svg2166"/><defs id="defs2168"><linearGradient id="linearGradient10936"><stop style="stop-color:#fcf3e8;stop-opacity:1" offset="0" id="stop10938"/><stop style="stop-color:#ba6100;stop-opacity:1" offset="1" id="stop10940"/></linearGradient><linearGradient x1="17.523264" y1="5.9785309" x2="101.69292" y2="113.38583" id="linearGradient10942" xlink:href="#linearGradient10936" gradientUnits="userSpaceOnUse" gradientTransform="translate(3.1889734,0)"/><linearGradient x1="17.523264" y1="5.9785309" x2="101.69292" y2="113.38583" id="linearGradient12957" xlink:href="#linearGradient10936" gradientUnits="userSpaceOnUse" gradientTransform="translate(3.1889734,0)"/></defs><g id="layer1"><g transform="matrix(0.8185428,0,0,0.8752539,9.8051174,20.048492)" id="g12950"><path d="M 3.6843532,112.89045 L 104.38651,112.89045 L 87.439074,5.7639005 L 54.035433,0.49538136 L 20.63179,5.7639005 L 3.6843532,112.89045 z " style="fill:url(#linearGradient12957);fill-opacity:1;fill-rule:evenodd;stroke:#000000;stroke-width:1.18144166;stroke-linecap:butt;stroke-linejoin:miter;stroke-miterlimit:4;stroke-dasharray:none;stroke-opacity:0.49803922" id="path9965"/><path d="M 51.054138,65.799294 C 54.192301,67.263813 55.395279,68.728307 54.663073,70.19278 C 53.930785,71.657295 53.460054,76.469204 53.250881,84.628521 C 60.154884,83.791674 65.54213,83.11173 69.412634,82.588688 C 73.283026,82.065663 76.107408,82.95482 77.885787,85.256162 C 79.664036,87.557515 78.408755,88.498976 74.119941,88.080546 C 69.831005,87.662122 64.652973,87.557515 58.585829,87.766726 C 52.518594,87.975942 47.079045,88.394369 42.267165,89.022007 C 37.455227,89.64965 33.793992,90.27729 31.28345,90.90493 C 28.77287,91.53257 26.523826,91.009537 24.53631,89.335828 C 22.548771,87.662122 22.810288,86.877572 25.320861,86.982174 C 27.83141,87.086785 30.917308,86.982178 34.578564,86.668354 C 38.239778,86.354538 42.894776,85.779201 48.543574,84.942342 L 48.543574,73.958626 C 48.543539,71.029655 48.334326,68.6237 47.915934,66.740755 C 42.894776,67.577633 39.128935,67.36842 36.618397,66.113114 C 34.107813,64.857859 34.317026,64.125612 37.246038,63.916371 C 40.175002,63.707185 43.940844,63.079545 48.543574,62.033449 C 53.146234,60.98741 56.493649,60.255163 58.585829,59.836705 C 60.677918,59.41831 62.299322,59.784433 63.450046,60.935077 C 64.600669,62.085781 64.234546,62.974938 62.351674,63.602551 C 60.468704,64.230218 56.702863,64.962465 51.054138,65.799294 L 51.054138,65.799294 z M 51.681779,36.300172 C 57.121289,41.739775 62.613142,46.394774 68.157353,50.265182 C 73.701453,54.135671 78.408755,56.698535 82.279273,57.953783 C 86.149652,59.209096 88.974033,60.098253 90.752425,60.621257 C 92.530662,61.14432 91.223078,61.719657 86.82967,62.347269 C 82.436114,62.974938 78.879486,63.131848 76.159774,62.818 C 73.439937,62.504208 71.190892,61.14432 69.412634,58.738334 C 67.634264,56.332412 65.38522,53.821851 62.665495,51.206643 C 59.945671,48.591515 55.970616,44.250336 50.740318,38.183094 C 48.229719,42.367415 45.614551,46.18556 42.894806,49.637541 C 40.175002,53.089604 36.775284,56.489322 32.695642,59.836705 C 28.61596,63.184151 24.588602,65.642409 20.613554,67.211486 C 16.638492,68.78061 16.481582,68.30988 20.142824,65.799294 C 23.804051,63.288758 27.569893,60.150557 31.44036,56.38468 C 35.31079,52.618873 38.448991,48.748425 40.854973,44.773324 C 43.2609,40.798315 44.934607,37.660113 45.876101,35.35871 C 46.817528,33.057418 47.079045,31.174497 46.660652,29.709942 C 46.242191,28.245509 46.503708,27.617869 47.445203,27.827019 C 48.386629,28.036296 49.903426,28.768543 51.995599,30.023763 C 54.087695,31.279104 54.767638,32.272868 54.035432,33.005057 C 53.303144,33.737362 52.518594,34.835732 51.681779,36.300172 L 51.681779,36.300172 z " style="font-size:80.33803558px;font-style:normal;font-variant:normal;font-weight:normal;font-stretch:normal;text-align:center;line-height:100%;writing-mode:lr-tb;text-anchor:middle;fill:#de0000;fill-opacity:1;stroke:#000000;stroke-width:1.18144166;stroke-miterlimit:4;stroke-opacity:0.49803922;font-family:KaiTi" id="text11939"/></g></g></svg>
