<?xml version="1.0" encoding="UTF-8" standalone="no"?><svg xmlns:dc="http://purl.org/dc/elements/1.1/" xmlns:cc="http://web.resource.org/cc/" xmlns:rdf="http://www.w3.org/1999/02/22-rdf-syntax-ns#" xmlns:svg="http://www.w3.org/2000/svg" xmlns="http://www.w3.org/2000/svg" xmlns:xlink="http://www.w3.org/1999/xlink" xmlns:sodipodi="http://sodipodi.sourceforge.net/DTD/sodipodi-0.dtd" xmlns:inkscape="http://www.inkscape.org/namespaces/inkscape" version="1.0" width="108.07086" height="124.01575" id="svg2166" sodipodi:version="0.32" inkscape:version="0.45" sodipodi:docname="kyousha.svg" inkscape:output_extension="org.inkscape.output.svg.inkscape" sodipodi:docbase="C:\Develop\Shogi\Shogi\gfx\default" sodipodi:modified="true"><metadata id="metadata15"><rdf:RDF><cc:Work rdf:about=""><dc:format>image/svg+xml</dc:format><dc:type rdf:resource="http://purl.org/dc/dcmitype/StillImage"/><dc:title>香車</dc:title><dc:date>2007-07-22</dc:date><dc:creator><cc:Agent><dc:title>13xforever</dc:title></cc:Agent></dc:creator><dc:language>ja</dc:language><dc:subject><rdf:Bag><rdf:li>kyousha</rdf:li><rdf:li>kyosha</rdf:li><rdf:li>香車</rdf:li><rdf:li>shougi</rdf:li><rdf:li>shogi</rdf:li><rdf:li>将棋</rdf:li></rdf:Bag></dc:subject><dc:coverage>board game</dc:coverage><cc:license rdf:resource="http://creativecommons.org/licenses/by-sa/3.0/"/></cc:Work><cc:License rdf:about="http://creativecommons.org/licenses/by-sa/3.0/"><cc:permits rdf:resource="http://web.resource.org/cc/Reproduction"/><cc:permits rdf:resource="http://web.resource.org/cc/Distribution"/><cc:requires rdf:resource="http://web.resource.org/cc/Notice"/><cc:requires rdf:resource="http://web.resource.org/cc/Attribution"/><cc:permits rdf:resource="http://web.resource.org/cc/DerivativeWorks"/><cc:requires rdf:resource="http://web.resource.org/cc/ShareAlike"/></cc:License></rdf:RDF></metadata><sodipodi:namedview inkscape:window-height="575" inkscape:window-width="765" inkscape:pageshadow="2" inkscape:pageopacity="0.0" guidetolerance="10.0" gridtolerance="10.0" objecttolerance="10.0" borderopacity="1.0" bordercolor="#666666" pagecolor="#ffffff" id="base" inkscape:zoom="3.0399365" inkscape:cx="54.035431" inkscape:cy="62.007874" inkscape:window-x="23" inkscape:window-y="738" inkscape:current-layer="svg2166"/><defs id="defs2168"><linearGradient id="linearGradient10936"><stop style="stop-color:#fcf3e8;stop-opacity:1" offset="0" id="stop10938"/><stop style="stop-color:#ba6100;stop-opacity:1" offset="1" id="stop10940"/></linearGradient><linearGradient x1="17.523264" y1="5.9785309" x2="101.69292" y2="113.38583" id="linearGradient10942" xlink:href="#linearGradient10936" gradientUnits="userSpaceOnUse" gradientTransform="translate(3.1889734,0)"/><linearGradient x1="17.523264" y1="5.9785309" x2="101.69292" y2="113.38583" id="linearGradient12957" xlink:href="#linearGradient10936" gradientUnits="userSpaceOnUse" gradientTransform="translate(3.1889734,0)"/></defs><g id="layer1"><g transform="matrix(0.8185428,0,0,0.8752539,9.8051174,20.048492)" id="g12950"><path d="M 3.6843532,112.89045 L 104.38651,112.89045 L 87.439074,5.7639005 L 54.035433,0.49538136 L 20.63179,5.7639005 L 3.6843532,112.89045 z " style="fill:url(#linearGradient12957);fill-opacity:1;fill-rule:evenodd;stroke:#000000;stroke-width:1.18144166;stroke-linecap:butt;stroke-linejoin:miter;stroke-miterlimit:4;stroke-dasharray:none;stroke-opacity:0.49803922" id="path9965"/><path d="M 52.10636,14.301197 C 53.730817,14.842725 54.47537,15.418062 54.340023,16.02721 C 54.204623,16.636423 54.136937,17.279446 54.136963,17.956282 C 57.656645,17.279446 60.397956,16.636423 62.360905,16.02721 C 64.323784,15.418062 66.083638,15.621122 67.640472,16.63639 C 69.197226,17.651723 68.723419,18.22706 66.21905,18.362403 C 63.714604,18.497807 59.890306,18.903927 54.746144,19.580765 C 57.047465,21.746768 59.145752,23.438935 61.041013,24.657272 C 62.936207,25.875656 65.305241,27.02633 68.148123,28.109296 C 70.990924,29.192304 73.292271,29.970701 75.052172,30.44449 C 76.811979,30.918315 77.184256,31.256748 76.169004,31.459791 C 75.153655,31.662869 73.021524,31.798242 69.772605,31.865912 C 66.523602,31.933615 64.459158,31.493652 63.579266,30.54602 C 62.699304,29.598424 61.379413,28.244691 59.619591,26.484814 C 57.859705,24.724982 56.709031,23.506622 56.167566,22.829729 C 55.626044,22.152888 54.88149,21.408335 53.933903,20.596066 L 53.933903,26.281754 C 53.933877,28.853871 53.595443,30.884472 52.918601,32.373562 C 54.949177,31.967459 56.370598,31.629025 57.182867,31.358261 C 57.995078,31.087532 58.875005,31.087532 59.822651,31.358261 C 60.770233,31.629025 61.785533,32.136675 62.868555,32.881213 C 63.951507,33.625783 64.222254,34.50571 63.680797,35.520997 C 63.139267,36.536311 62.86852,37.991574 62.868555,39.886793 C 62.86852,41.646656 62.97005,43.643413 63.173146,45.877071 C 63.37617,48.110735 63.037737,49.938276 62.157844,51.359699 C 61.277883,52.781117 60.634859,53.085707 60.228772,52.27347 C 59.822619,51.461227 59.348812,50.412083 58.80735,49.126036 C 58.265825,47.839988 57.419741,47.129278 56.269096,46.993903 C 55.118394,46.858531 53.798503,46.858531 52.309421,46.993903 C 50.820289,47.129278 48.992748,47.264652 46.826793,47.400023 C 46.420654,50.78436 45.77763,51.731973 44.89772,50.242867 C 44.017776,48.753759 43.713186,47.501555 43.983949,46.486252 C 44.254679,45.470954 44.322366,43.474197 44.187009,40.495974 C 44.051619,37.517768 43.747029,35.453323 43.273238,34.302635 C 42.799416,33.151976 43.036319,32.745856 43.983949,33.084273 C 44.931546,33.422723 46.014534,33.524253 47.232913,33.388864 C 48.451254,33.253506 50.143422,32.982759 52.309421,32.576623 C 51.226409,31.222905 50.854132,30.207605 51.192589,29.530718 C 51.530999,28.853871 51.767902,26.281776 51.9033,21.814428 C 48.789688,26.01103 45.47304,29.226148 41.953346,31.459791 C 38.433624,33.693469 35.624626,35.182577 33.526344,35.927117 C 31.428051,36.671684 31.258834,36.502467 33.018694,35.419467 C 34.778542,34.336493 36.504553,33.185819 38.196731,31.967442 C 39.888888,30.749098 41.885645,29.056931 44.187009,26.890935 C 46.48834,24.724982 48.315881,22.626695 49.669637,20.596066 C 45.87916,21.272961 43.442439,21.780611 42.359467,22.119018 C 41.276465,22.457478 40.227321,22.423635 39.212032,22.017488 C 38.19672,21.611395 37.553697,21.205274 37.28296,20.799126 C 37.012203,20.393034 37.89213,20.156131 39.922743,20.088415 C 41.953332,20.020757 45.87916,19.44542 51.70024,18.362403 C 51.700216,17.685566 51.564842,17.008699 51.294119,16.3318 C 51.023349,15.654966 50.752602,15.181159 50.481878,14.910378 C 49.263495,15.181159 48.248194,15.350375 47.435974,15.418029 C 46.623714,15.485749 46.962147,15.147315 48.451275,14.402727 C 49.940362,13.658208 51.497156,12.710594 53.121662,11.559883 C 54.746117,10.409247 55.456827,9.5631631 55.253795,9.0216298 C 55.050707,8.480176 55.253767,8.1417425 55.862976,8.0063283 C 56.472128,7.8709958 57.656645,8.2771159 59.416531,9.22469 C 61.176353,10.172343 61.24404,10.883054 59.619591,11.356823 C 57.995078,11.830667 55.490671,12.812124 52.10636,14.301197 L 52.10636,14.301197 z M 46.623733,39.886793 C 48.112821,39.616055 49.635772,39.209935 51.192589,38.668431 C 52.74936,38.126948 53.96772,38.194635 54.847674,38.871492 C 55.727574,39.548368 55.186081,40.056019 53.223192,40.394444 C 51.260252,40.732886 49.940362,40.969789 49.263516,41.105155 C 48.586628,41.240536 47.706701,41.105162 46.623733,40.699034 C 46.759087,42.59427 46.826774,44.354124 46.826793,45.978601 C 50.346482,45.572484 52.74936,45.234051 54.035433,44.9633 C 55.321454,44.692557 56.370598,44.760244 57.182867,45.16636 C 57.995078,45.572484 58.502729,45.978604 58.70582,46.384722 C 58.908849,46.790845 59.145752,46.723158 59.416531,46.181662 C 59.687246,45.640171 59.754932,43.541883 59.619591,39.886793 C 59.484186,36.23172 59.179595,34.167276 58.70582,33.693454 C 58.231982,33.219663 57.115151,33.118133 55.355325,33.388864 C 53.595443,33.659626 50.617229,33.99806 46.420672,34.404165 C 46.556027,36.299407 46.623714,38.126948 46.623733,39.886793 L 46.623733,39.886793 z " style="font-size:51.98343277px;font-style:normal;font-variant:normal;font-weight:normal;font-stretch:normal;text-align:center;line-height:100%;writing-mode:lr-tb;text-anchor:middle;fill:#000000;fill-opacity:1;stroke:#000000;stroke-width:1.18144166;stroke-miterlimit:4;stroke-opacity:0.49803922;font-family:KaiTi" id="text11929"/><path d="M 56.776745,59.569953 C 60.764073,58.573156 63.380779,57.950131 64.626871,57.700875 C 65.87288,57.451711 66.911255,57.576316 67.742,58.074691 C 68.572656,58.573156 68.655726,59.030041 67.99121,59.445348 C 67.326605,59.860741 66.246695,60.276092 64.751476,60.691399 C 63.256174,61.106792 60.597933,61.646747 56.776745,62.311266 L 56.527534,67.295473 C 61.511703,66.630949 64.419154,66.132529 65.249896,65.800211 C 66.080555,65.467969 67.077395,65.551039 68.240421,66.049422 C 69.403356,66.547879 70.524802,67.170904 71.60476,67.918499 C 72.684622,68.666165 73.432253,69.37226 73.847653,70.036787 C 74.262953,70.701381 73.764533,71.532081 72.352391,72.528891 C 70.940152,73.525762 69.694101,75.021022 68.614236,77.014677 C 67.53428,79.008384 66.329765,80.835924 65.000686,82.497304 C 63.671524,84.158726 62.923894,84.075656 62.757793,82.248094 L 56.527534,82.995725 L 56.527534,87.232301 C 60.847143,86.900037 64.169944,86.650826 66.495948,86.48467 C 68.821866,86.318546 70.940152,86.110871 72.850812,85.861644 C 74.761373,85.612451 76.547379,85.820126 78.208834,86.48467 C 79.87018,87.149247 80.86702,87.938412 81.199358,88.852168 C 81.531581,89.765953 81.03316,90.222838 79.704096,90.222825 C 78.54106,90.222838 77.211939,90.056698 75.716731,89.724404 C 74.221418,89.392138 71.646247,89.225997 67.99121,89.225984 C 64.502224,89.225997 60.681003,89.392138 56.527534,89.724404 L 56.527534,100.44045 C 56.527501,102.60027 56.402896,104.55242 56.153719,106.29689 C 55.904476,108.04136 55.613731,109.1628 55.281483,109.66123 C 54.949171,110.15965 54.658426,109.8689 54.409246,108.789 C 54.160005,107.70908 53.993865,106.13075 53.910826,104.054 C 53.827725,101.97725 53.78619,97.366861 53.786221,90.222825 C 48.801988,90.721258 44.731557,91.178143 41.574914,91.593482 C 38.418234,92.008844 35.967669,92.382659 34.223209,92.714928 C 32.478727,93.047219 31.191142,93.047219 30.360448,92.714928 C 29.529741,92.382659 28.657506,91.801168 27.74374,90.970456 C 26.829965,90.139768 26.913035,89.849023 27.99295,90.09822 C 29.072856,90.347443 30.941932,90.347443 33.600183,90.09822 C 36.258414,89.849023 38.79205,89.599813 41.201098,89.350589 C 43.610111,89.101392 47.805148,88.561437 53.786221,87.730721 L 53.786221,83.244935 C 52.12479,83.577235 49.632689,83.992585 46.30991,84.490987 C 45.479187,86.152406 44.690022,85.778591 43.942412,83.36954 C 43.194761,80.960529 42.613271,79.008384 42.19794,77.513097 C 41.782571,76.017862 41.284151,74.688742 40.702678,73.525732 C 40.12117,72.362781 39.415075,71.407476 38.58439,70.659813 C 37.753674,69.912215 37.795209,69.496865 38.708995,69.413761 C 39.62275,69.330725 40.993405,69.28919 42.820966,69.289156 C 44.814627,69.28919 48.469708,68.79077 53.786221,67.793894 L 53.786221,62.809687 C 50.463389,63.142008 47.971288,63.017403 46.30991,62.435872 C 44.648487,61.854422 44.731557,61.439072 46.559121,61.18982 C 48.386638,60.940652 50.795669,60.566837 53.786221,60.068373 C 53.62005,56.247195 53.03856,53.630489 52.041748,52.218248 C 51.044879,50.806108 51.917115,50.432293 54.658457,51.096801 C 57.399737,51.761413 58.479647,52.633649 57.898191,53.71351 C 57.316667,54.79347 56.942851,56.745615 56.776745,59.569953 L 56.776745,59.569953 z M 44.316228,71.532049 C 45.146907,76.017862 45.728397,79.672944 46.0607,82.497304 C 47.223658,82.331185 49.798829,81.915835 53.786221,81.251253 L 53.786221,76.765466 C 52.95549,76.931633 51.87558,76.931633 50.546486,76.765466 C 49.217339,76.599353 48.386638,76.350143 48.054383,76.017835 C 47.722078,75.685582 48.054358,75.436372 49.051224,75.270204 C 50.048039,75.104092 51.626369,74.771812 53.786221,74.273363 L 53.786221,69.787577 L 44.316228,71.532049 L 44.316228,71.532049 z M 56.527534,73.525732 C 58.687322,73.193481 60.224118,73.193481 61.137926,73.525732 C 62.051658,73.858042 62.134728,74.314927 61.387136,74.896389 C 60.639468,75.477907 59.019602,75.934792 56.527534,76.267046 L 56.527534,81.002042 C 58.355042,80.835924 60.514863,80.586714 63.007003,80.254411 C 63.837664,78.593033 64.585294,76.516283 65.249896,74.024153 C 65.914415,71.532081 66.20516,69.95375 66.122133,69.289156 C 66.03902,68.62463 65.166785,68.37542 63.505424,68.541525 C 61.843983,68.7077 59.518022,68.95691 56.527534,69.289156 L 56.527534,73.525732 z " style="font-size:63.79784775px;font-style:normal;font-variant:normal;font-weight:normal;font-stretch:normal;text-align:center;line-height:100%;writing-mode:lr-tb;text-anchor:middle;fill:#000000;fill-opacity:1;stroke:#000000;stroke-width:1.18144166;stroke-miterlimit:4;stroke-opacity:0.49803922;font-family:KaiTi" id="text11939"/></g></g></svg>
