<?xml version="1.0" encoding="UTF-8" standalone="no"?>
<svg
   xmlns:dc="http://purl.org/dc/elements/1.1/"
   xmlns:cc="http://creativecommons.org/ns#"
   xmlns:rdf="http://www.w3.org/1999/02/22-rdf-syntax-ns#"
   xmlns:svg="http://www.w3.org/2000/svg"
   xmlns="http://www.w3.org/2000/svg"
   xmlns:xlink="http://www.w3.org/1999/xlink"
   xmlns:sodipodi="http://sodipodi.sourceforge.net/DTD/sodipodi-0.dtd"
   xmlns:inkscape="http://www.inkscape.org/namespaces/inkscape"
   version="1.0"
   width="108.07086"
   height="124.01575"
   id="svg2166"
   sodipodi:version="0.32"
   inkscape:version="0.91 r"
   sodipodi:docname="lancePW.svg"
   inkscape:output_extension="org.inkscape.output.svg.inkscape"
   sodipodi:modified="true">
  <metadata
     id="metadata14">
    <rdf:RDF>
      <cc:Work
         rdf:about="">
        <dc:format>image/svg+xml</dc:format>
        <dc:type
           rdf:resource="http://purl.org/dc/dcmitype/StillImage" />
        <dc:title />
        <dc:date>2007-07-22</dc:date>
        <dc:creator>
          <cc:Agent>
            <dc:title>13xforever</dc:title>
          </cc:Agent>
        </dc:creator>
        <dc:language>ja</dc:language>
        <dc:subject>
          <rdf:Bag>
            <rdf:li>narikyou</rdf:li>
            <rdf:li>narikyo</rdf:li>
            <rdf:li>成香</rdf:li>
            <rdf:li>shougi</rdf:li>
            <rdf:li>shogi</rdf:li>
            <rdf:li>将棋</rdf:li>
          </rdf:Bag>
        </dc:subject>
        <dc:coverage>board game</dc:coverage>
        <cc:license
           rdf:resource="http://creativecommons.org/licenses/by-sa/3.0/" />
      </cc:Work>
      <cc:License
         rdf:about="http://creativecommons.org/licenses/by-sa/3.0/">
        <cc:permits
           rdf:resource="http://web.resource.org/cc/Reproduction" />
        <cc:permits
           rdf:resource="http://web.resource.org/cc/Distribution" />
        <cc:requires
           rdf:resource="http://web.resource.org/cc/Notice" />
        <cc:requires
           rdf:resource="http://web.resource.org/cc/Attribution" />
        <cc:permits
           rdf:resource="http://web.resource.org/cc/DerivativeWorks" />
        <cc:requires
           rdf:resource="http://web.resource.org/cc/ShareAlike" />
      </cc:License>
    </rdf:RDF>
  </metadata>
  <sodipodi:namedview
     inkscape:window-height="810"
     inkscape:window-width="1414"
     inkscape:pageshadow="2"
     inkscape:pageopacity="0.0"
     guidetolerance="10.0"
     gridtolerance="10.0"
     objecttolerance="10.0"
     borderopacity="1.0"
     bordercolor="#666666"
     pagecolor="#ffffff"
     id="base"
     inkscape:zoom="3.0399365"
     inkscape:cx="-23.104338"
     inkscape:cy="62.007874"
     inkscape:window-x="143"
     inkscape:window-y="110"
     inkscape:current-layer="svg2166"
     showgrid="false"
     inkscape:window-maximized="0" />
  <defs
     id="defs2168">
    <linearGradient
       id="linearGradient10936">
      <stop
         style="stop-color:#fcf3e8;stop-opacity:1"
         offset="0"
         id="stop10938" />
      <stop
         style="stop-color:#ba6100;stop-opacity:1"
         offset="1"
         id="stop10940" />
    </linearGradient>
    <linearGradient
       x1="17.523264"
       y1="5.9785309"
       x2="101.69292"
       y2="113.38583"
       id="linearGradient10942"
       xlink:href="#linearGradient10936"
       gradientUnits="userSpaceOnUse"
       gradientTransform="translate(3.1889734,0)" />
    <linearGradient
       x1="102.72137"
       y1="124.74355"
       x2="0.017814925"
       y2="2.5134335"
       id="linearGradient12957"
       xlink:href="#linearGradient10936"
       gradientUnits="userSpaceOnUse"
       gradientTransform="translate(3.1889734,0)" />
  </defs>
  <g
     id="layer1"
     transform="matrix(-1,0,0,-1,108.07086,139.33838)">
    <g
       transform="matrix(0.8185428,0,0,0.8752539,9.8051174,20.048492)"
       id="g12950">
      <path
         d="m 3.6843532,112.89045 100.7021568,0 L 87.439074,5.7639005 54.035433,0.49538136 20.63179,5.7639005 3.6843532,112.89045 Z"
         style="fill:url(#linearGradient12957);fill-opacity:1;fill-rule:evenodd;stroke:#000000;stroke-width:1.18144166;stroke-linecap:butt;stroke-linejoin:miter;stroke-miterlimit:4;stroke-dasharray:none;stroke-opacity:0.49803922"
         id="path9965"
         inkscape:connector-curvature="0" />
      <path
         d="m 51.054138,65.799294 c 3.138163,1.464519 4.341141,2.929013 3.608935,4.393486 -0.732288,1.464515 -1.203019,6.276424 -1.412192,14.435741 6.904003,-0.836847 12.291249,-1.516791 16.161753,-2.039833 3.870392,-0.523025 6.694774,0.366132 8.473153,2.667474 1.778249,2.301353 0.522968,3.242814 -3.765846,2.824384 -4.288936,-0.418424 -9.466968,-0.523031 -15.534112,-0.31382 -6.067235,0.209216 -11.506784,0.627643 -16.318664,1.255281 -4.811938,0.627643 -8.473173,1.255283 -10.983715,1.882923 -2.51058,0.62764 -4.759624,0.104607 -6.74714,-1.569102 -1.987539,-1.673706 -1.726022,-2.458256 0.784551,-2.353654 2.510549,0.104611 5.596447,4e-6 9.257703,-0.31382 3.661214,-0.313816 8.316212,-0.889153 13.96501,-1.726012 l 0,-10.983716 c -3.5e-5,-2.928971 -0.209248,-5.334926 -0.62764,-7.217871 -5.021158,0.836878 -8.786999,0.627665 -11.297537,-0.627641 -2.510584,-1.255255 -2.301371,-1.987502 0.627641,-2.196743 2.928964,-0.209186 6.694806,-0.836826 11.297536,-1.882922 4.60266,-1.046039 7.950075,-1.778286 10.042255,-2.196744 2.092089,-0.418395 3.713493,-0.05227 4.864217,1.098372 1.150623,1.150704 0.7845,2.039861 -1.098372,2.667474 -1.88297,0.627667 -5.648811,1.359914 -11.297536,2.196743 l 0,0 z m 0.627641,-29.499122 c 5.43951,5.439603 10.931363,10.094602 16.475574,13.96501 5.5441,3.870489 10.251402,6.433353 14.12192,7.688601 3.870379,1.255313 6.69476,2.14447 8.473152,2.667474 1.778237,0.523063 0.470653,1.0984 -3.922755,1.726012 -4.393556,0.627669 -7.950184,0.784579 -10.669896,0.470731 -2.719837,-0.313792 -4.968882,-1.67368 -6.74714,-4.079666 -1.77837,-2.405922 -4.027414,-4.916483 -6.747139,-7.531691 -2.719824,-2.615128 -6.694879,-6.956307 -11.925177,-13.023549 -2.510599,4.184321 -5.125767,8.002466 -7.845512,11.454447 -2.719804,3.452063 -6.119522,6.851781 -10.199164,10.199164 -4.079682,3.347446 -8.10704,5.805704 -12.082088,7.374781 -3.975062,1.569124 -4.131972,1.098394 -0.47073,-1.412192 3.661227,-2.510536 7.427069,-5.648737 11.297536,-9.414614 3.87043,-3.765807 7.008631,-7.636255 9.414613,-11.611356 2.405927,-3.975009 4.079634,-7.113211 5.021128,-9.414614 0.941427,-2.301292 1.202944,-4.184213 0.784551,-5.648768 -0.418461,-1.464433 -0.156944,-2.092073 0.784551,-1.882923 0.941426,0.209277 2.458223,0.941524 4.550396,2.196744 2.092096,1.255341 2.772039,2.249105 2.039833,2.981294 -0.732288,0.732305 -1.516838,1.830675 -2.353653,3.295115 l 0,0 z"
         style="font-style:normal;font-variant:normal;font-weight:normal;font-stretch:normal;font-size:80.33803558px;line-height:100%;font-family:KaiTi;text-align:center;writing-mode:lr-tb;text-anchor:middle;fill:#de0000;fill-opacity:1;stroke:#000000;stroke-width:1.18144166;stroke-miterlimit:4;stroke-opacity:0.49803922"
         id="text11939"
         inkscape:connector-curvature="0" />
    </g>
  </g>
</svg>
