<?xml version="1.0" encoding="UTF-8" standalone="no"?><svg xmlns:dc="http://purl.org/dc/elements/1.1/" xmlns:cc="http://web.resource.org/cc/" xmlns:rdf="http://www.w3.org/1999/02/22-rdf-syntax-ns#" xmlns:svg="http://www.w3.org/2000/svg" xmlns="http://www.w3.org/2000/svg" xmlns:xlink="http://www.w3.org/1999/xlink" xmlns:sodipodi="http://sodipodi.sourceforge.net/DTD/sodipodi-0.dtd" xmlns:inkscape="http://www.inkscape.org/namespaces/inkscape" version="1.0" width="108.07086" height="124.01575" id="svg2166" sodipodi:version="0.32" inkscape:version="0.45" sodipodi:docname="fuhyou.svg" inkscape:output_extension="org.inkscape.output.svg.inkscape" sodipodi:docbase="C:\Develop\Shogi\Shogi\gfx\default" sodipodi:modified="true"><metadata id="metadata15"><rdf:RDF><cc:Work rdf:about=""><dc:format>image/svg+xml</dc:format><dc:type rdf:resource="http://purl.org/dc/dcmitype/StillImage"/><dc:title>歩兵</dc:title><dc:date>2007-07-22</dc:date><dc:creator><cc:Agent><dc:title>13xforever</dc:title></cc:Agent></dc:creator><dc:language>jp</dc:language><dc:subject><rdf:Bag><rdf:li>fuhyou</rdf:li><rdf:li>fuhyo</rdf:li><rdf:li>歩兵</rdf:li><rdf:li>shougi</rdf:li><rdf:li>shogi</rdf:li><rdf:li>将棋</rdf:li></rdf:Bag></dc:subject><dc:coverage>board game</dc:coverage><cc:license rdf:resource="http://creativecommons.org/licenses/by-sa/3.0/"/></cc:Work><cc:License rdf:about="http://creativecommons.org/licenses/by-sa/3.0/"><cc:permits rdf:resource="http://web.resource.org/cc/Reproduction"/><cc:permits rdf:resource="http://web.resource.org/cc/Distribution"/><cc:requires rdf:resource="http://web.resource.org/cc/Notice"/><cc:requires rdf:resource="http://web.resource.org/cc/Attribution"/><cc:permits rdf:resource="http://web.resource.org/cc/DerivativeWorks"/><cc:requires rdf:resource="http://web.resource.org/cc/ShareAlike"/></cc:License></rdf:RDF></metadata><sodipodi:namedview inkscape:window-height="575" inkscape:window-width="765" inkscape:pageshadow="2" inkscape:pageopacity="0.0" guidetolerance="10.0" gridtolerance="10.0" objecttolerance="10.0" borderopacity="1.0" bordercolor="#666666" pagecolor="#ffffff" id="base" inkscape:zoom="3.0399365" inkscape:cx="54.035431" inkscape:cy="62.007874" inkscape:window-x="46" inkscape:window-y="46" inkscape:current-layer="svg2166"/><defs id="defs2168"><linearGradient id="linearGradient10936"><stop style="stop-color:#fcf3e8;stop-opacity:1" offset="0" id="stop10938"/><stop style="stop-color:#ba6100;stop-opacity:1" offset="1" id="stop10940"/></linearGradient><linearGradient x1="17.523264" y1="5.9785309" x2="101.69292" y2="113.38583" id="linearGradient10942" xlink:href="#linearGradient10936" gradientUnits="userSpaceOnUse" gradientTransform="translate(3.1889734,0)"/><linearGradient x1="17.523264" y1="5.9785309" x2="101.69292" y2="113.38583" id="linearGradient12957" xlink:href="#linearGradient10936" gradientUnits="userSpaceOnUse" gradientTransform="translate(3.1889734,0)"/></defs><g id="layer1"><g transform="matrix(0.7836824,0,0,0.8440209,11.688814,23.574399)" id="g12950"><path d="M 3.6843532,112.89045 L 104.38651,112.89045 L 87.439074,5.7639005 L 54.035433,0.49538136 L 20.63179,5.7639005 L 3.6843532,112.89045 z " style="fill:url(#linearGradient12957);fill-opacity:1;fill-rule:evenodd;stroke:#000000;stroke-width:1.22957027;stroke-linecap:butt;stroke-linejoin:miter;stroke-miterlimit:4;stroke-dasharray:none;stroke-opacity:0.49803922" id="path9965"/><path d="M 58.579078,15.280221 C 60.833258,14.857592 62.594359,14.364484 63.862388,13.800894 C 65.130345,13.237379 66.327894,13.307823 67.455039,14.012226 C 68.582104,14.716704 68.229884,15.456367 66.398377,16.231217 C 64.566793,17.006136 61.960363,17.323134 58.579078,17.182212 L 58.367745,23.733517 C 62.876135,23.029103 66.292672,22.465551 68.617367,22.042857 C 70.94198,21.620222 72.526972,21.76111 73.372346,22.465522 C 74.217629,23.169991 74.675516,23.733544 74.746006,24.156181 C 74.816404,24.578873 73.794965,24.790205 71.681686,24.790179 C 69.568321,24.790205 67.208445,24.931093 64.602051,25.212843 C 61.995585,25.494645 58.719936,25.91731 54.775095,26.480838 C 55.761285,26.762639 56.606614,27.185303 57.311084,27.748832 C 58.015495,28.312408 58.156383,29.016848 57.733748,29.862156 C 57.311055,30.707506 57.170166,32.186831 57.311084,34.300136 C 57.451943,36.413475 57.451943,38.174576 57.311084,39.583446 C 57.170166,40.992339 56.923612,41.943334 56.57142,42.436434 C 56.219172,42.929551 55.690841,42.682996 54.986427,41.69677 C 54.28196,40.710563 54.070628,39.61868 54.35243,38.421118 C 54.63418,37.223582 54.739846,35.568146 54.669429,33.454807 C 54.598958,31.341503 54.422848,29.862177 54.141098,29.016827 C 53.859296,28.17152 53.577519,27.396635 53.295768,26.69217 C 45.828673,28.241964 41.602029,29.157737 40.615824,29.439491 C 39.629595,29.721289 38.467268,29.404291 37.12884,28.488496 C 35.790394,27.572745 35.825616,27.114859 37.234506,27.114835 C 38.784266,27.114859 41.813361,26.692194 46.321799,25.846841 C 46.040005,21.338446 45.546896,18.661571 44.842472,17.81621 C 44.138015,16.970914 43.926683,16.407361 44.208475,16.12555 C 44.490235,15.843809 45.44123,15.879031 47.061462,16.231217 C 48.681657,16.583472 49.350876,17.323134 49.06912,18.450207 C 48.787323,19.577344 48.716879,21.901998 48.857788,25.424176 C 50.971089,25.001537 53.295743,24.578873 55.831757,24.156181 C 55.831729,19.084236 55.726063,15.385923 55.514758,13.061231 C 55.303399,10.736615 54.915956,9.1516232 54.35243,8.3062517 C 53.788851,7.4609657 53.92974,7.0735233 54.775095,7.1439236 C 55.620397,7.2144115 56.677058,7.4961877 57.945081,7.9892531 C 59.213044,8.4824046 59.635709,9.0459571 59.213075,9.6799123 C 58.79038,10.31395 58.579048,12.180718 58.579078,15.280221 L 58.579078,15.280221 z M 66.821041,33.877472 C 67.948108,34.863706 68.124218,35.568146 67.349372,35.990796 C 66.574449,36.413475 65.588232,37.505358 64.390719,39.266448 C 63.193134,41.027561 61.432032,43.035217 59.107409,45.289421 C 56.782724,47.543637 53.612741,49.692181 49.597451,51.735059 C 45.582118,53.777936 41.672473,55.045929 37.868503,55.539042 C 34.064514,56.032146 34.381513,55.539038 38.819499,54.059715 C 43.257464,52.580387 47.272776,50.643175 50.865445,48.248075 C 54.45807,45.852979 57.416721,43.070439 59.741406,39.900445 C 62.066029,36.730473 63.157912,34.546707 63.017058,33.349141 C 62.876135,32.151609 63.228356,31.693723 64.07372,31.97548 C 64.919013,32.257275 65.834786,32.891272 66.821041,33.877472 L 66.821041,33.877472 z M 69.779695,28.171497 C 72.033863,28.735072 73.618855,29.439513 74.534674,30.284821 C 75.4504,31.13017 75.802621,32.292497 75.591336,33.771805 C 75.379956,35.251148 74.605072,35.427258 73.266679,34.300136 C 71.928197,33.173048 70.624982,32.151609 69.35703,31.235817 C 68.088996,30.320064 67.032335,29.474735 66.187044,28.699828 C 65.341678,27.924966 65.165567,27.467079 65.658713,27.326167 C 66.151784,27.185303 67.525443,27.467079 69.779695,28.171497 L 69.779695,28.171497 z M 45.899134,33.454807 C 46.603557,32.045943 47.131888,31.30628 47.484127,31.235817 C 47.836328,31.165392 47.977216,32.186831 47.906792,34.300136 C 47.836328,36.413475 47.026222,38.562019 45.476469,40.745774 C 43.926683,42.929551 42.975688,43.176105 42.623482,41.485438 C 42.271247,39.79479 42.588246,38.350687 43.574478,37.153124 C 44.560679,35.955589 45.335564,34.722817 45.899134,33.454807 L 45.899134,33.454807 z " style="font-size:54.10109329px;font-style:normal;font-variant:normal;font-weight:normal;font-stretch:normal;text-align:center;line-height:100%;writing-mode:lr-tb;text-anchor:middle;fill:#000000;fill-opacity:1;stroke:#000000;stroke-width:1.22957027;stroke-miterlimit:4;stroke-opacity:0.49803922;font-family:KaiTi" id="text11929"/><path d="M 47.416884,73.710501 C 50.913446,73.211018 53.868894,72.711506 56.283238,72.211962 C 58.697514,71.712481 60.820442,71.212968 62.652028,70.713423 C 64.483533,70.213944 65.98207,69.797683 67.147644,69.464641 C 68.313128,69.131667 69.603535,69.339797 71.018869,70.089032 C 72.434106,70.838334 72.642236,71.504351 71.64326,72.087084 C 70.644186,72.66988 68.687762,73.29427 65.773983,73.960257 C 62.860118,74.626303 60.820442,74.959311 59.65495,74.959283 C 62.152475,75.958336 63.193126,76.915735 62.776906,77.831482 C 62.360605,78.747281 61.902719,81.369721 61.403245,85.698811 C 67.56386,85.032812 71.601585,84.574925 73.516434,84.32515 C 75.43118,84.075413 77.137847,84.491673 78.636441,85.573933 C 80.134922,86.656227 80.717686,87.488748 80.384736,88.071497 C 80.05167,88.654277 78.553133,88.862407 75.88912,88.695888 C 73.225,88.529399 70.477682,88.404521 67.647157,88.321254 C 64.816541,88.238016 60.279304,88.529399 54.03543,89.195401 C 47.791493,89.861432 43.462386,90.40257 41.048094,90.818818 C 38.633766,91.235091 36.718968,91.651351 35.303696,92.0676 C 33.888398,92.483872 32.639617,92.483872 31.557349,92.0676 C 30.475063,91.651351 29.476038,91.026961 28.560272,90.194427 C 27.644493,89.361919 28.185631,88.945659 30.183689,88.945645 C 32.348235,88.945659 37.01035,88.446147 44.17005,87.447106 C 44.170028,80.453948 44.003524,75.042564 43.670537,71.212936 C 43.337508,67.383373 42.879621,64.844185 42.296877,63.595365 C 41.714092,62.346623 41.589214,61.680607 41.922242,61.597313 C 42.255231,61.514102 42.962873,61.597354 44.045172,61.847069 C 45.127427,62.096867 46.084826,62.429875 46.917371,62.846095 C 47.749867,63.262396 49.623039,62.762883 52.536891,61.347556 C 55.450684,59.932313 57.448733,58.725158 58.531046,57.726088 C 59.613287,56.727108 60.196051,55.728084 60.279341,54.72901 C 60.362556,53.730034 61.319954,53.646782 63.151541,54.479254 C 64.983045,55.311823 66.398331,56.269222 67.3974,57.351453 C 68.39638,58.433776 67.896868,59.183044 65.898862,59.599261 C 63.900769,60.015565 61.444833,60.723208 58.531046,61.722191 C 55.617188,62.721257 51.912471,63.886786 47.416884,65.218781 L 47.416884,73.710501 z M 47.416884,86.947593 C 50.413933,86.614601 54.077024,86.281593 58.406168,85.948567 C 58.905644,80.95346 58.822392,77.373621 58.156412,75.20904 C 55.658814,75.375572 53.619138,75.542076 52.037378,75.708553 C 50.455559,75.875084 48.915396,75.791832 47.416884,75.458796 L 47.416884,86.947593 L 47.416884,86.947593 z M 74.890094,103.68128 C 74.390529,106.51185 72.891992,106.38697 70.394478,103.30664 C 67.896868,100.22631 65.482558,97.354118 63.151541,94.690043 C 60.820442,92.025986 60.32093,90.902083 61.653002,91.318331 C 62.984996,91.734603 64.483533,92.234116 66.148618,92.81687 C 67.813616,93.399645 69.811665,94.648426 72.142773,96.563217 C 74.473781,98.478021 75.389554,100.8507 74.890094,103.68128 L 74.890094,103.68128 z M 45.918345,92.192479 C 46.25133,90.693952 47.458485,90.902083 49.539814,92.81687 C 51.621088,94.731678 52.120601,95.897207 51.038353,96.31346 C 49.956047,96.729727 48.957022,97.270866 48.041275,97.936877 C 47.125477,98.602899 45.418809,99.726802 42.921268,101.30859 C 40.423685,102.89038 37.634741,104.22241 34.554426,105.30469 C 31.474088,106.38697 31.432462,105.97071 34.429548,104.05591 C 37.426611,102.14111 40.049051,100.05981 42.296877,97.811999 C 44.544663,95.564198 45.751818,93.691027 45.918345,92.192479 L 45.918345,92.192479 z " style="font-size:63.93765259px;font-style:normal;font-variant:normal;font-weight:normal;font-stretch:normal;text-align:center;line-height:100%;writing-mode:lr-tb;text-anchor:middle;fill:#000000;fill-opacity:1;stroke:#000000;stroke-width:1.22957027;stroke-miterlimit:4;stroke-opacity:0.49803922;font-family:KaiTi" id="text11939"/></g></g></svg>
