<?xml version="1.0" encoding="UTF-8" standalone="no"?><svg xmlns:dc="http://purl.org/dc/elements/1.1/" xmlns:cc="http://web.resource.org/cc/" xmlns:rdf="http://www.w3.org/1999/02/22-rdf-syntax-ns#" xmlns:svg="http://www.w3.org/2000/svg" xmlns="http://www.w3.org/2000/svg" xmlns:xlink="http://www.w3.org/1999/xlink" xmlns:sodipodi="http://sodipodi.sourceforge.net/DTD/sodipodi-0.dtd" xmlns:inkscape="http://www.inkscape.org/namespaces/inkscape" version="1.0" width="108.07086" height="124.01575" id="svg2166" sodipodi:version="0.32" inkscape:version="0.45" sodipodi:docname="tokin.svg" inkscape:output_extension="org.inkscape.output.svg.inkscape" sodipodi:docbase="C:\Develop\Shogi\Shogi\gfx\default" sodipodi:modified="true"><metadata id="metadata14"><rdf:RDF><cc:Work rdf:about=""><dc:format>image/svg+xml</dc:format><dc:type rdf:resource="http://purl.org/dc/dcmitype/StillImage"/><dc:title>と金</dc:title><dc:date>2007-07-22</dc:date><dc:creator><cc:Agent><dc:title>13xforever</dc:title></cc:Agent></dc:creator><dc:language>ja</dc:language><dc:subject><rdf:Bag><rdf:li>tokin</rdf:li><rdf:li>と金</rdf:li><rdf:li>shougi</rdf:li><rdf:li>shogi</rdf:li><rdf:li>将棋</rdf:li></rdf:Bag></dc:subject><dc:coverage>board game</dc:coverage><cc:license rdf:resource="http://creativecommons.org/licenses/by-sa/3.0/"/></cc:Work><cc:License rdf:about="http://creativecommons.org/licenses/by-sa/3.0/"><cc:permits rdf:resource="http://web.resource.org/cc/Reproduction"/><cc:permits rdf:resource="http://web.resource.org/cc/Distribution"/><cc:requires rdf:resource="http://web.resource.org/cc/Notice"/><cc:requires rdf:resource="http://web.resource.org/cc/Attribution"/><cc:permits rdf:resource="http://web.resource.org/cc/DerivativeWorks"/><cc:requires rdf:resource="http://web.resource.org/cc/ShareAlike"/></cc:License></rdf:RDF></metadata><sodipodi:namedview inkscape:window-height="575" inkscape:window-width="765" inkscape:pageshadow="2" inkscape:pageopacity="0.0" guidetolerance="10.0" gridtolerance="10.0" objecttolerance="10.0" borderopacity="1.0" bordercolor="#666666" pagecolor="#ffffff" id="base" inkscape:zoom="3.0399365" inkscape:cx="54.035431" inkscape:cy="62.007874" inkscape:window-x="16" inkscape:window-y="776" inkscape:current-layer="svg2166"/><defs id="defs2168"><linearGradient id="linearGradient10936"><stop style="stop-color:#fcf3e8;stop-opacity:1" offset="0" id="stop10938"/><stop style="stop-color:#ba6100;stop-opacity:1" offset="1" id="stop10940"/></linearGradient><linearGradient x1="17.523264" y1="5.9785309" x2="101.69292" y2="113.38583" id="linearGradient10942" xlink:href="#linearGradient10936" gradientUnits="userSpaceOnUse" gradientTransform="translate(3.1889734,0)"/><linearGradient x1="17.523264" y1="5.9785309" x2="101.69292" y2="113.38583" id="linearGradient12957" xlink:href="#linearGradient10936" gradientUnits="userSpaceOnUse" gradientTransform="translate(3.1889734,0)"/></defs><g id="layer1"><g transform="matrix(0.7836824,0,0,0.8440209,11.688814,23.574399)" id="g12950"><path d="M 3.6843532,112.89045 L 104.38651,112.89045 L 87.439074,5.7639005 L 54.035433,0.49538136 L 20.63179,5.7639005 L 3.6843532,112.89045 z " style="fill:url(#linearGradient12957);fill-opacity:1;fill-rule:evenodd;stroke:#000000;stroke-width:1.22957027;stroke-linecap:butt;stroke-linejoin:miter;stroke-miterlimit:4;stroke-dasharray:none;stroke-opacity:0.49803922" id="path9965"/><path d="M 43.584086,31.109869 C 43.993914,30.495141 44.916091,30.495141 46.350619,31.109869 C 47.785086,31.72471 48.912191,32.441959 49.731937,33.261617 C 50.346688,34.081384 50.346688,35.003561 49.731937,36.02815 C 49.117119,37.052842 48.707262,38.692268 48.502367,40.946431 C 48.092478,43.200688 48.194942,45.711058 48.80976,48.477549 C 49.424511,51.244118 50.65408,53.652025 52.498471,55.701275 C 58.851207,52.832312 62.744842,51.03919 64.179388,50.321905 C 65.613837,49.604693 66.433549,48.938677 66.638529,48.323853 C 66.843406,47.504179 67.20203,46.889395 67.714403,46.479498 C 68.226671,46.069682 69.097616,46.377074 70.327239,47.401675 C 71.556754,48.426356 72.171538,49.502229 72.171595,50.629297 C 72.171538,51.756439 70.737041,52.832312 67.868099,53.856919 C 64.794124,54.676665 62.078826,55.54761 59.722196,56.469756 C 57.365478,57.391964 54.752644,58.570301 51.883685,60.004771 C 49.014655,61.439295 46.350588,63.078721 43.891479,64.923052 C 41.432312,66.767428 39.792887,68.816709 38.973198,71.070903 C 37.948533,73.325129 37.897301,75.630571 38.819501,77.987236 C 39.741655,80.343919 41.842169,82.034577 45.121049,83.059213 C 48.39987,83.87893 52.447202,84.13509 57.263055,83.827695 C 62.078826,83.520306 65.716301,82.956753 68.175491,82.137035 C 70.429649,81.317328 71.96661,81.163632 72.78638,81.675947 C 73.606036,82.188273 74.118356,82.854289 74.323343,83.673998 C 74.528212,84.493715 73.657268,85.415891 71.710506,86.440531 C 69.763632,87.465173 65.20398,88.079958 58.031537,88.284887 C 50.859008,88.489814 45.325948,87.670101 41.432338,85.825746 C 37.538677,83.981394 35.284467,81.419792 34.669702,78.140932 C 33.84997,74.657162 34.259826,71.275847 35.899272,67.996977 C 37.538677,64.718146 41.842169,61.234367 48.80976,57.54563 C 46.555517,54.266809 45.172251,50.936726 44.65996,47.555372 C 44.147611,44.174097 43.993914,41.458798 44.198871,39.409469 C 44.403771,37.155307 44.250075,35.310953 43.737782,33.876402 C 43.225434,32.441959 43.174202,31.519782 43.584086,31.109869 L 43.584086,31.109869 z " style="font-size:78.69249725px;font-style:normal;font-variant:normal;font-weight:normal;font-stretch:normal;text-align:center;line-height:100%;writing-mode:lr-tb;text-anchor:middle;fill:#de0000;fill-opacity:1;stroke:#000000;stroke-width:1.22957027;stroke-miterlimit:4;stroke-opacity:0.49803922;font-family:KaiTi" id="text11939"/></g></g></svg>
