<?xml version="1.0" encoding="UTF-8" standalone="no"?><svg xmlns:dc="http://purl.org/dc/elements/1.1/" xmlns:cc="http://web.resource.org/cc/" xmlns:rdf="http://www.w3.org/1999/02/22-rdf-syntax-ns#" xmlns:svg="http://www.w3.org/2000/svg" xmlns="http://www.w3.org/2000/svg" xmlns:xlink="http://www.w3.org/1999/xlink" xmlns:sodipodi="http://sodipodi.sourceforge.net/DTD/sodipodi-0.dtd" xmlns:inkscape="http://www.inkscape.org/namespaces/inkscape" version="1.0" width="108.07086" height="124.01575" id="svg2166" sodipodi:version="0.32" inkscape:version="0.45" sodipodi:docname="ryuuou.svg" inkscape:output_extension="org.inkscape.output.svg.inkscape" sodipodi:docbase="C:\Develop\Shogi\Shogi\gfx\default" sodipodi:modified="true"><metadata id="metadata15"><rdf:RDF><cc:Work rdf:about=""><dc:format>image/svg+xml</dc:format><dc:type rdf:resource="http://purl.org/dc/dcmitype/StillImage"/><dc:title>龍王</dc:title><dc:date>2007-07-22</dc:date><dc:creator><cc:Agent><dc:title>13xforever</dc:title></cc:Agent></dc:creator><dc:language>ja</dc:language><dc:subject><rdf:Bag><rdf:li>ryuuou</rdf:li><rdf:li>ryuo</rdf:li><rdf:li>龍王</rdf:li><rdf:li>shougi</rdf:li><rdf:li>shogi</rdf:li><rdf:li>将棋</rdf:li></rdf:Bag></dc:subject><dc:coverage>board game</dc:coverage><cc:license rdf:resource="http://creativecommons.org/licenses/by-sa/3.0/"/></cc:Work><cc:License rdf:about="http://creativecommons.org/licenses/by-sa/3.0/"><cc:permits rdf:resource="http://web.resource.org/cc/Reproduction"/><cc:permits rdf:resource="http://web.resource.org/cc/Distribution"/><cc:requires rdf:resource="http://web.resource.org/cc/Notice"/><cc:requires rdf:resource="http://web.resource.org/cc/Attribution"/><cc:permits rdf:resource="http://web.resource.org/cc/DerivativeWorks"/><cc:requires rdf:resource="http://web.resource.org/cc/ShareAlike"/></cc:License></rdf:RDF></metadata><sodipodi:namedview inkscape:window-height="575" inkscape:window-width="765" inkscape:pageshadow="2" inkscape:pageopacity="0.0" guidetolerance="10.0" gridtolerance="10.0" objecttolerance="10.0" borderopacity="1.0" bordercolor="#666666" pagecolor="#ffffff" id="base" inkscape:zoom="3.0399365" inkscape:cx="54.035431" inkscape:cy="62.007874" inkscape:window-x="11" inkscape:window-y="743" inkscape:current-layer="svg2166"/><defs id="defs2168"><linearGradient id="linearGradient10936"><stop style="stop-color:#fcf3e8;stop-opacity:1" offset="0" id="stop10938"/><stop style="stop-color:#ba6100;stop-opacity:1" offset="1" id="stop10940"/></linearGradient><linearGradient x1="17.523264" y1="5.9785309" x2="101.69292" y2="113.38583" id="linearGradient10942" xlink:href="#linearGradient10936" gradientUnits="userSpaceOnUse" gradientTransform="translate(3.1889734,0)"/><linearGradient x1="17.523264" y1="5.9785309" x2="101.69292" y2="113.38583" id="linearGradient12957" xlink:href="#linearGradient10936" gradientUnits="userSpaceOnUse" gradientTransform="translate(3.1889734,0)"/></defs><g id="layer1"><g transform="matrix(0.96514,0,0,0.9687658,1.8836745,8.83634)" id="g12950"><path d="M 3.6843532,112.89045 L 104.38651,112.89045 L 87.439074,5.7639005 L 54.035433,0.49538136 L 20.63179,5.7639005 L 3.6843532,112.89045 z " style="fill:url(#linearGradient12957);fill-opacity:1;fill-rule:evenodd;stroke:#000000;stroke-width:1.03417838;stroke-linecap:butt;stroke-linejoin:miter;stroke-miterlimit:4;stroke-dasharray:none;stroke-opacity:0.49803922" id="path9965"/><path d="M 61.306998,11.477963 C 64.021682,10.573093 65.734538,10.023686 66.445572,9.8297411 C 67.156532,9.6358698 67.867529,9.79746 68.578564,10.314512 C 69.289522,10.831637 68.934024,11.381044 67.512068,11.962734 C 66.090036,12.544493 63.957046,12.835356 61.11309,12.835322 L 60.725273,16.713491 C 60.595969,18.006242 60.983786,18.491013 61.888723,18.167804 C 62.793596,17.844652 63.536911,17.489154 64.11867,17.101308 C 64.700361,16.713521 65.314403,16.681203 65.9608,17.004353 C 66.607125,17.327563 67.318122,17.780016 68.093793,18.361712 C 68.869388,18.943466 68.869388,19.428236 68.093793,19.816026 C 67.318122,20.203869 66.413217,21.496591 65.379075,23.694194 C 66.413217,24.599123 66.639443,25.148529 66.057755,25.342416 C 65.475994,25.536346 64.635725,25.697936 63.536945,25.827187 C 62.438098,25.95648 60.337425,26.344297 57.234921,26.990638 C 56.976349,28.024835 56.847077,29.059012 56.847104,30.093173 C 58.656887,29.834645 60.272789,29.511465 61.694815,29.123631 C 63.116777,28.735832 64.118636,28.76815 64.700396,29.220585 C 65.282085,29.673055 65.217449,30.028553 64.506487,30.287081 C 63.795455,30.545642 62.89055,30.771868 61.791769,30.965761 C 60.692924,31.159685 58.980067,31.385911 56.653195,31.64444 C 56.523896,32.807905 56.45926,33.777446 56.459287,34.553067 C 58.656887,34.165263 60.499015,33.809764 61.985678,33.486571 C 63.472275,33.163403 64.506452,33.22804 65.088213,33.680479 C 65.669902,34.132945 65.249767,34.553079 63.827808,34.940884 C 62.40578,35.328712 59.949609,35.587256 56.459287,35.716518 C 56.329988,37.397067 56.329988,38.560516 56.459287,39.206869 C 59.044704,38.819061 61.048422,38.431244 62.470449,38.043419 C 63.89241,37.655611 64.797315,37.752565 65.185167,38.334281 C 65.572948,38.916015 65.249767,39.336149 64.215625,39.594686 C 63.181413,39.853238 62.050281,40.047146 60.822227,40.176412 C 59.59411,40.30569 58.204434,40.370326 56.653195,40.37032 C 57.040985,43.214314 58.462979,44.76558 60.919181,45.024123 C 63.375321,45.282669 66.090036,45.153397 69.063335,44.636306 C 72.036556,44.119219 73.717094,42.988088 74.104955,41.242908 C 74.492727,39.497739 74.751271,38.01111 74.880589,36.783014 C 75.009816,35.554938 75.171406,35.942755 75.36536,37.946465 C 75.559222,39.950192 75.914721,41.404504 76.431856,42.309404 C 76.948898,43.214314 77.013534,43.989947 76.625765,44.636306 C 76.237901,45.282669 75.203724,45.961348 73.52323,46.672344 C 71.842648,47.383341 69.677339,47.835794 67.027297,48.029703 C 64.37718,48.22361 62.114917,48.06202 60.240502,47.544932 C 58.366025,47.027843 56.944031,46.122938 55.974516,44.830214 C 55.004948,43.537494 54.520178,41.533776 54.520203,38.819053 C 54.520178,35.975073 54.584814,33.260358 54.714111,30.674898 C 54.843358,28.089471 54.64945,26.215025 54.132386,25.051553 C 53.615273,23.888126 54.64945,24.017398 57.234921,25.43937 C 58.527615,25.180847 60.595969,24.728395 63.439991,24.082011 C 63.827774,22.401496 64.054,21.141092 64.11867,20.300797 C 64.183272,19.460554 63.569229,19.137374 62.27654,19.331255 C 60.983786,19.52519 60.175835,19.848371 59.852685,20.300797 C 59.529474,20.753276 59.077022,20.68864 58.495326,20.106888 C 57.913572,19.52519 57.881254,18.846511 58.398371,18.07085 C 58.915431,17.295245 59.10934,15.970206 58.980097,14.095727 C 58.850795,12.221313 58.398343,10.863955 57.622738,10.02365 C 56.847077,9.1834172 57.234893,8.9248729 58.786188,9.2480158 C 60.337425,9.5712337 61.177694,10.314549 61.306998,11.477963 L 61.306998,11.477963 z M 41.916154,29.511448 C 41.78687,31.321275 41.722234,32.549361 41.722246,33.195708 C 43.2735,32.678633 44.243041,32.678633 44.630872,33.195708 C 45.018674,33.71281 44.824766,34.035991 44.049147,34.16525 C 43.2735,34.294535 42.497867,34.359171 41.722246,34.359159 C 41.463689,35.781165 41.269781,36.815342 41.14052,37.461694 C 41.916142,37.332431 42.627139,37.138522 43.273513,36.879968 C 43.91986,36.621434 44.436949,36.783024 44.824781,37.364739 C 45.212582,37.946473 45.018674,38.33429 44.243055,38.52819 C 43.467408,38.722106 42.368595,38.819061 40.946612,38.819053 C 40.558784,42.180137 40.041696,44.474718 39.395344,45.702802 C 38.748974,46.930889 38.231885,46.833935 37.844077,45.411939 C 37.456252,43.989947 37.456252,42.79418 37.844077,41.824633 C 38.231885,40.855097 38.587384,39.594694 38.910573,38.043419 C 39.233745,36.492162 39.492289,34.843942 39.686207,33.098754 C 39.880105,31.353593 39.750833,30.09319 39.29839,29.317539 C 38.845928,28.541924 38.81361,28.154107 39.201436,28.154088 C 39.589243,28.154107 40.009378,28.218743 40.461841,28.347997 C 40.914283,28.477288 41.592962,28.477288 42.497879,28.347997 C 43.402772,28.218743 44.243041,27.927881 45.018689,27.475409 C 45.794307,27.022976 46.602258,26.990658 47.442545,27.378455 C 48.282796,27.766291 48.896839,28.154107 49.284675,28.541905 C 49.672472,28.92974 49.672472,29.382193 49.284675,29.899264 C 48.896839,30.41637 48.767567,31.967636 48.896858,34.553067 C 49.026111,37.138522 49.187701,39.303831 49.381629,41.049 C 49.575518,42.79418 49.5432,44.410082 49.284675,45.896711 C 49.026111,47.383341 48.605976,48.385201 48.02427,48.902291 C 47.442527,49.419378 46.925438,49.096197 46.473002,47.932749 C 46.020533,46.769299 45.212582,45.864393 44.049147,45.218031 C 42.885683,44.571672 42.821047,44.313127 43.855239,44.442397 C 44.889402,44.571672 45.665035,44.60399 46.18214,44.539352 C 46.699212,44.474718 46.957756,43.408222 46.957774,41.339862 C 46.957756,39.271513 46.89312,37.073886 46.763865,34.746975 C 46.634576,32.420088 46.440668,30.901141 46.18214,30.190127 C 45.923579,29.479147 45.535763,29.123648 45.018689,29.123631 C 44.501585,29.123648 43.467408,29.25292 41.916154,29.511448 L 41.916154,29.511448 z M 48.315133,16.519582 C 50.383469,17.295245 51.126784,17.941606 50.54508,18.458667 C 49.963334,18.975784 48.896839,20.009961 47.34559,21.561202 C 50.835921,20.52705 52.904276,20.300823 53.55066,20.882522 C 54.196997,21.464273 53.841499,21.916725 52.484164,22.239881 C 51.126784,22.563086 49.70479,22.853948 48.218178,23.112469 C 46.73153,23.371037 44.566221,23.920444 41.722246,24.760691 C 38.878246,25.600982 37.100754,26.215025 36.389764,26.602821 C 35.67876,26.990658 34.579947,26.699795 33.09332,25.730233 C 31.606687,24.760713 31.542051,24.30826 32.899412,24.372874 C 34.256766,24.437532 35.937304,24.275942 37.941031,23.888103 C 39.944741,23.500309 42.691775,22.853948 46.18214,21.949018 C 47.474845,19.622144 48.05657,17.87697 47.927316,16.713491 C 45.341854,17.489154 43.338136,17.683062 41.916154,17.295216 C 40.494148,16.907429 40.494148,16.551931 41.916154,16.22872 C 43.338136,15.90557 45.018674,15.388481 46.957774,14.677452 C 48.896839,13.966487 50.351151,13.707943 51.320713,13.901818 C 52.290233,14.095759 52.548777,14.41894 52.096347,14.87136 C 51.643872,15.323845 50.383469,15.873252 48.315133,16.519582 L 48.315133,16.519582 z M 45.794323,8.3754278 C 47.474845,8.5047384 48.605976,8.8279188 49.187721,9.34497 C 49.769426,9.8620961 50.092606,10.508457 50.157263,11.284054 C 50.221878,12.059723 50.092606,12.576811 49.769446,12.835322 C 49.446245,13.0939 48.70293,12.77072 47.539499,11.86578 C 46.376032,10.960909 45.374172,10.12064 44.533918,9.34497 C 43.693634,8.5693745 44.113769,8.246194 45.794323,8.3754278 L 45.794323,8.3754278 z M 42.691788,18.652575 C 43.725952,19.428236 44.113769,20.236187 43.855239,21.076431 C 43.59668,21.916725 43.2735,22.304542 42.885696,22.239881 C 42.497867,22.17527 42.142368,21.755135 41.8192,20.979476 C 41.496007,20.203869 41.302099,19.428236 41.237475,18.652575 C 41.172827,17.87697 41.657598,17.87697 42.691788,18.652575 L 42.691788,18.652575 z " style="font-size:49.64056015px;font-style:normal;font-variant:normal;font-weight:normal;font-stretch:normal;text-align:center;line-height:100%;writing-mode:lr-tb;text-anchor:middle;fill:#de0000;fill-opacity:1;stroke:#000000;stroke-width:1.03417838;stroke-miterlimit:4;stroke-opacity:0.49803922;font-family:KaiTi" id="text3153"/><path d="M 54.423248,65.577778 C 56.146843,66.611994 56.793204,67.732353 56.362332,68.938857 C 55.931389,70.145433 55.629754,73.50651 55.457426,79.022097 C 58.559923,78.332671 60.75755,77.815582 62.050313,77.470829 C 63.342994,77.12613 64.808078,77.427766 66.445571,78.375735 C 68.082973,79.323757 67.264249,80.185572 63.989398,80.961181 C 60.71446,81.736838 57.870472,82.297017 55.457426,82.641721 C 55.457391,87.81263 55.37121,92.552609 55.198881,96.861674 C 59.852645,96.17223 63.515356,95.655141 66.187027,95.310406 C 68.858606,94.96569 70.88387,94.750236 72.262825,94.664045 C 73.641676,94.577873 75.149852,94.750236 76.787355,95.181134 C 78.424747,95.61205 79.84674,96.560046 81.053341,98.025124 C 82.259821,99.490215 80.320738,99.964213 75.236087,99.44712 C 70.151328,98.930036 65.152804,98.886945 60.240501,99.317847 C 55.328119,99.74876 50.372686,100.39512 45.374187,101.25693 C 40.375638,102.11875 36.712927,102.76511 34.386042,103.19602 C 32.059129,103.62692 29.947684,103.23911 28.051699,102.03257 C 26.1557,100.82603 26.284972,100.17967 28.439516,100.09348 C 30.594044,100.0073 33.481123,99.74876 37.10076,99.317847 C 40.720364,98.886945 45.632707,98.154403 51.837802,97.120218 L 51.837802,83.15881 C 49.079964,83.67592 46.925428,84.020646 45.374187,84.192989 C 43.822896,84.365372 42.099267,83.977555 40.203295,83.029538 C 38.307284,82.081564 38.867463,81.435203 41.883835,81.090453 C 44.900164,80.745751 48.21815,80.228662 51.837802,79.539186 C 52.010134,75.747227 52.010134,72.817058 51.837802,70.74867 C 51.665408,68.680349 51.406863,67.129083 51.062168,66.094867 C 48.82142,66.439631 46.839247,66.655085 45.115642,66.741228 C 43.391989,66.827448 41.754542,66.396541 40.203295,65.448505 C 38.65201,64.500549 38.738191,63.940369 40.46184,63.767966 C 42.185449,63.595644 45.80507,62.992373 51.320713,61.958153 C 56.836294,60.924019 60.75755,60.148386 63.084492,59.631252 C 65.411348,59.114208 67.178068,59.372753 68.384656,60.406886 C 69.591148,61.441107 68.51388,62.432194 65.152848,63.380149 C 61.791728,64.328186 58.215198,65.060728 54.423248,65.577778 L 54.423248,65.577778 z " style="font-size:66.18741608px;font-style:normal;font-variant:normal;font-weight:normal;font-stretch:normal;text-align:center;line-height:100%;writing-mode:lr-tb;text-anchor:middle;fill:#de0000;fill-opacity:1;stroke:#000000;stroke-width:1.03417838;stroke-miterlimit:4;stroke-opacity:0.49803922;font-family:KaiTi" id="text3157"/></g></g></svg>
