<?xml version="1.0" encoding="UTF-8" standalone="no"?><svg xmlns:dc="http://purl.org/dc/elements/1.1/" xmlns:cc="http://web.resource.org/cc/" xmlns:rdf="http://www.w3.org/1999/02/22-rdf-syntax-ns#" xmlns:svg="http://www.w3.org/2000/svg" xmlns="http://www.w3.org/2000/svg" xmlns:xlink="http://www.w3.org/1999/xlink" xmlns:sodipodi="http://sodipodi.sourceforge.net/DTD/sodipodi-0.dtd" xmlns:inkscape="http://www.inkscape.org/namespaces/inkscape" version="1.0" width="108.07086" height="124.01575" id="svg2166" sodipodi:version="0.32" inkscape:version="0.45" sodipodi:docname="hisha.svg" inkscape:output_extension="org.inkscape.output.svg.inkscape" sodipodi:docbase="C:\Develop\Shogi\Shogi\gfx\default" sodipodi:modified="true"><metadata id="metadata16"><rdf:RDF><cc:Work rdf:about=""><dc:format>image/svg+xml</dc:format><dc:type rdf:resource="http://purl.org/dc/dcmitype/StillImage"/><dc:title>飛車</dc:title><dc:date>2007-07-22</dc:date><dc:creator><cc:Agent><dc:title>13xforever</dc:title></cc:Agent></dc:creator><dc:language>ja</dc:language><dc:subject><rdf:Bag><rdf:li>hisha</rdf:li><rdf:li>飛車</rdf:li><rdf:li>shougi</rdf:li><rdf:li>shogi</rdf:li><rdf:li>将棋</rdf:li></rdf:Bag></dc:subject><dc:coverage>board game</dc:coverage><cc:license rdf:resource="http://creativecommons.org/licenses/by-sa/3.0/"/></cc:Work><cc:License rdf:about="http://creativecommons.org/licenses/by-sa/3.0/"><cc:permits rdf:resource="http://web.resource.org/cc/Reproduction"/><cc:permits rdf:resource="http://web.resource.org/cc/Distribution"/><cc:requires rdf:resource="http://web.resource.org/cc/Notice"/><cc:requires rdf:resource="http://web.resource.org/cc/Attribution"/><cc:permits rdf:resource="http://web.resource.org/cc/DerivativeWorks"/><cc:requires rdf:resource="http://web.resource.org/cc/ShareAlike"/></cc:License></rdf:RDF></metadata><sodipodi:namedview inkscape:window-height="575" inkscape:window-width="765" inkscape:pageshadow="2" inkscape:pageopacity="0.0" guidetolerance="10.0" gridtolerance="10.0" objecttolerance="10.0" borderopacity="1.0" bordercolor="#666666" pagecolor="#ffffff" id="base" inkscape:zoom="3.0399365" inkscape:cx="54.035431" inkscape:cy="62.007874" inkscape:window-x="15" inkscape:window-y="407" inkscape:current-layer="svg2166"/><defs id="defs2168"><linearGradient id="linearGradient10936"><stop style="stop-color:#fcf3e8;stop-opacity:1" offset="0" id="stop10938"/><stop style="stop-color:#ba6100;stop-opacity:1" offset="1" id="stop10940"/></linearGradient><linearGradient x1="17.523264" y1="5.9785309" x2="101.69292" y2="113.38583" id="linearGradient10942" xlink:href="#linearGradient10936" gradientUnits="userSpaceOnUse" gradientTransform="translate(3.1889734,0)"/><linearGradient x1="17.523264" y1="5.9785309" x2="101.69292" y2="113.38583" id="linearGradient12957" xlink:href="#linearGradient10936" gradientUnits="userSpaceOnUse" gradientTransform="translate(3.1889734,0)"/><linearGradient x1="17.523264" y1="5.9785309" x2="101.69292" y2="113.38583" id="linearGradient2173" xlink:href="#linearGradient10936" gradientUnits="userSpaceOnUse" gradientTransform="matrix(0.96514,0,0,0.9687658,4.9614803,8.8564779)"/></defs><g id="layer1"><g transform="translate(0,-2.014293e-2)" id="g2271"><path d="M 5.4395911,118.22089 L 102.63127,118.22089 L 86.274622,14.440348 L 54.035432,9.3363864 L 21.79624,14.440348 L 5.4395911,118.22089 z " style="fill:url(#linearGradient2173);fill-opacity:1;fill-rule:evenodd;stroke:#000000;stroke-width:1;stroke-linecap:butt;stroke-linejoin:miter;stroke-miterlimit:4;stroke-dasharray:none;stroke-opacity:0.49803922" id="path9965"/><path d="M 50.480583,34.938408 C 52.60556,34.188428 53.855559,33.625929 54.230583,33.250908 C 54.605558,32.875929 55.168058,32.782179 55.918083,32.969658 C 56.668056,33.157179 57.324306,33.438429 57.886833,33.813408 C 58.449304,34.188428 58.543054,34.594678 58.168083,35.032158 C 57.793055,35.469677 57.480555,36.063426 57.230583,36.813408 C 56.980556,37.563425 56.855556,39.313423 56.855583,42.063408 C 57.855555,42.18842 58.855554,42.25092 59.855583,42.250908 C 61.480551,40.250922 62.230551,38.938423 62.105583,38.313408 C 61.980551,37.688424 62.355551,37.500925 63.230583,37.750908 C 64.105549,38.000924 64.824298,38.407174 65.386833,38.969658 C 65.949297,39.532173 65.761797,40.000922 64.824333,40.375908 C 63.886799,40.750921 62.41805,41.500921 60.418083,42.625908 C 63.04305,43.125919 64.730548,43.844668 65.480583,44.782158 C 66.230547,45.719666 66.386796,46.469666 65.949333,47.032158 C 65.511797,47.594665 64.980548,47.688414 64.355583,47.313408 C 63.730549,46.938415 62.7618,46.313416 61.449333,45.438408 C 60.136803,44.563418 58.668054,43.688418 57.043083,42.813408 C 57.543055,46.063416 58.636804,48.469664 60.324333,50.032158 C 62.011801,51.594661 63.793049,52.59466 65.668083,53.032158 C 67.543045,53.469659 68.793044,53.594659 69.418083,53.407158 C 70.043043,53.219659 70.511792,52.688409 70.824333,51.813408 C 71.136792,50.938411 71.449291,49.313413 71.761833,46.938408 C 72.074291,44.563418 72.38679,44.938417 72.699333,48.063408 C 73.01179,51.188411 73.511789,53.219659 74.199333,54.157158 C 74.886788,55.094657 74.793038,55.782156 73.918083,56.219658 C 73.04304,56.657155 71.261792,56.813405 68.574333,56.688408 C 65.886797,56.563406 63.449299,55.719656 61.261833,54.157158 C 59.074304,52.59466 57.511805,50.719661 56.574333,48.532158 C 55.636807,46.344666 55.074308,44.032168 54.886833,41.594658 C 54.699308,39.157173 54.605558,37.500925 54.605583,36.625908 C 54.605558,35.625927 54.324309,35.219677 53.761833,35.407158 C 53.19931,35.594677 52.105561,35.875926 50.480583,36.250908 C 50.480562,43.125919 50.543062,47.532165 50.668083,49.469658 C 50.793062,51.407161 50.699312,53.125909 50.386833,54.625908 C 50.074313,56.125906 49.730563,56.657155 49.355583,56.219658 C 48.980564,55.782156 48.605564,55.125907 48.230583,54.250908 C 47.855565,53.375909 47.761815,52.59466 47.949333,51.907158 C 48.136815,51.219661 48.293065,50.032162 48.418083,48.344658 C 48.543064,46.657165 48.605564,42.813419 48.605583,36.813408 C 47.230566,37.063425 45.980567,37.375925 44.855583,37.750908 C 44.730568,40.875921 44.324319,43.657168 43.636833,46.094658 C 42.94932,48.532164 41.918071,50.469662 40.543083,51.907158 C 39.168074,53.344659 37.574325,54.500908 35.761833,55.375908 C 33.949329,56.250906 33.918079,55.969656 35.668083,54.532158 C 37.418075,53.094659 39.043074,51.000911 40.543083,48.250908 C 42.043071,45.500917 42.79307,42.18842 42.793083,38.313408 C 40.668072,38.938423 39.293074,39.407173 38.668083,39.719658 C 38.043075,40.032172 37.511825,40.094672 37.074333,39.907158 C 36.636826,39.719672 36.074327,39.375923 35.386833,38.875908 C 34.699328,38.375924 34.980578,38.063424 36.230583,37.938408 C 37.480575,37.813424 39.668073,37.375925 42.793083,36.625908 C 42.79307,34.000928 42.48057,32.31343 41.855583,31.563408 C 40.355573,32.06343 39.261824,32.37593 38.574333,32.500908 C 37.886825,32.62593 38.043075,32.34468 39.043083,31.657158 C 40.043073,30.969681 41.043072,30.125932 42.043083,29.125908 C 43.04307,28.125934 43.511819,27.375935 43.449333,26.875908 C 43.386819,26.375936 43.793069,26.313436 44.668083,26.688408 C 45.543067,27.063435 46.168067,27.469685 46.543083,27.907158 C 46.918066,28.344684 46.824316,28.657183 46.261833,28.844658 C 45.699317,29.032183 44.480568,29.750932 42.605583,31.000908 C 43.35557,31.250931 44.011819,31.563431 44.574333,31.938408 C 45.136818,32.31343 45.355568,32.750929 45.230583,33.250908 C 45.105568,33.750928 44.980568,34.750927 44.855583,36.250908 C 45.980567,36.000926 47.230566,35.688426 48.605583,35.313408 C 48.605564,32.43843 48.543064,30.407182 48.418083,29.219658 C 48.293065,28.032184 48.043065,27.032185 47.668083,26.219658 C 47.293066,25.407187 47.449315,25.063437 48.136833,25.188408 C 48.824314,25.313437 49.574313,25.563437 50.386833,25.938408 C 51.199312,26.313436 51.449311,26.782185 51.136833,27.344658 C 50.824312,27.907184 50.636812,28.907183 50.574333,30.344658 C 50.511812,31.78218 50.480562,33.313429 50.480583,34.938408 L 50.480583,34.938408 z M 60.418083,24.625908 C 62.168051,22.62594 63.10555,21.219691 63.230583,20.407158 C 63.35555,19.594693 63.699299,19.313443 64.261833,19.563408 C 64.824298,19.813442 65.418047,20.219692 66.043083,20.782158 C 66.668046,21.344691 66.636796,21.75094 65.949333,22.000908 C 65.261798,22.25094 63.855549,23.188439 61.730583,24.813408 C 64.230549,25.438437 65.605547,26.344686 65.855583,27.532158 C 66.105547,28.719683 65.574297,28.938433 64.261833,28.188408 C 62.9493,27.438435 61.105552,26.500936 58.730583,25.375908 C 58.605554,27.750934 59.043054,29.563433 60.043083,30.813408 C 61.043052,32.06343 62.48055,32.813429 64.355583,33.063408 C 66.230547,33.313429 67.324296,33.157179 67.636833,32.594658 C 67.949295,32.03218 68.230545,30.938431 68.480583,29.313408 C 68.730544,27.688434 68.949294,27.782184 69.136833,29.594658 C 69.324294,31.407181 69.730543,32.657179 70.355583,33.344658 C 70.980542,34.032178 70.699292,34.625928 69.511833,35.125908 C 68.324295,35.625927 66.793046,35.813426 64.918083,35.688408 C 63.04305,35.563427 61.293052,34.844677 59.668083,33.532158 C 58.043055,32.21968 57.136806,30.438432 56.949333,28.188408 C 56.761806,25.938436 56.761806,23.969688 56.949333,22.282158 C 57.136806,20.594692 56.949306,19.813442 56.386833,19.938408 C 55.824307,20.063442 54.261809,20.500942 51.699333,21.250908 C 49.136814,22.00094 47.511815,22.43844 46.824333,22.563408 C 46.136817,22.688439 45.293068,22.40719 44.293083,21.719658 C 43.29307,21.032191 43.418069,20.688441 44.668083,20.688408 C 46.043067,20.688441 47.324316,20.563442 48.511833,20.313408 C 49.699313,20.063442 51.105562,19.657192 52.730583,19.094658 C 54.355559,18.532194 55.480557,18.032194 56.105583,17.594658 C 56.730556,17.157195 57.418055,17.000945 58.168083,17.125908 C 58.918054,17.250945 59.668053,17.532195 60.418083,17.969658 C 61.168052,18.407194 61.168052,18.969693 60.418083,19.657158 C 59.668053,20.344692 59.105554,22.00094 58.730583,24.625908 L 60.418083,24.625908 z " transform="scale(0.9981269,1.0018766)" style="font-size:48px;font-style:normal;font-variant:normal;font-weight:normal;font-stretch:normal;text-align:center;line-height:100%;writing-mode:lr-tb;text-anchor:middle;fill:#000000;fill-opacity:1;stroke:#000000;stroke-width:1;stroke-miterlimit:4;stroke-opacity:0.49803922;font-family:KaiTi" id="text2172"/><path d="M 56.886833,65.878448 C 60.886796,64.878493 63.511793,64.253494 64.761833,64.003448 C 66.011791,63.753494 67.053456,63.878494 67.886833,64.378448 C 68.720121,64.878493 68.803454,65.336826 68.136833,65.753448 C 67.470122,66.170159 66.38679,66.586825 64.886833,67.003448 C 63.386793,67.420157 60.720129,67.961823 56.886833,68.628448 L 56.636833,73.628448 C 61.636795,72.961818 64.553459,72.461819 65.386833,72.128448 C 66.220124,71.795153 67.220123,71.878486 68.386833,72.378448 C 69.553454,72.878485 70.678453,73.503485 71.761833,74.253448 C 72.845117,75.003483 73.595116,75.711816 74.011833,76.378448 C 74.428449,77.045148 73.928449,77.87848 72.511833,78.878448 C 71.095119,79.878478 69.84512,81.378477 68.761833,83.378448 C 67.678456,85.378473 66.470123,87.211804 65.136833,88.878448 C 63.803459,90.545134 63.05346,90.461801 62.886833,88.628448 L 56.636833,89.378448 L 56.636833,93.628448 C 60.970129,93.295131 64.303459,93.045132 66.636833,92.878448 C 68.970121,92.711799 71.095119,92.503466 73.011833,92.253448 C 74.928448,92.003466 76.720113,92.211799 78.386833,92.878448 C 80.053443,93.545131 81.053442,94.336797 81.386833,95.253448 C 81.720108,96.170129 81.220109,96.628461 79.886833,96.628448 C 78.720111,96.628461 77.386779,96.461795 75.886833,96.128448 C 74.386782,95.795129 71.803451,95.628462 68.136833,95.628448 C 64.636792,95.628462 60.803462,95.795129 56.636833,96.128448 L 56.636833,106.87845 C 56.6368,109.04512 56.5118,111.00345 56.261833,112.75345 C 56.011801,114.50344 55.720134,115.62844 55.386833,116.12845 C 55.053468,116.62844 54.761802,116.33678 54.511833,115.25345 C 54.261802,114.17011 54.095136,112.58678 54.011833,110.50345 C 53.928469,108.42012 53.886803,103.79512 53.886833,96.628448 C 48.886808,97.128461 44.803478,97.586794 41.636833,98.003448 C 38.470151,98.420126 36.011821,98.795126 34.261833,99.128448 C 32.511824,99.461792 31.220159,99.461792 30.386833,99.128448 C 29.553494,98.795126 28.678495,98.211793 27.761833,97.378448 C 26.845163,96.545128 26.928496,96.253462 28.011833,96.503448 C 29.095161,96.753461 30.970159,96.753461 33.636833,96.503448 C 36.303487,96.253462 38.845151,96.003462 41.261833,95.753448 C 43.67848,95.503463 47.886809,94.961796 53.886833,94.128448 L 53.886833,89.628448 C 52.220138,89.961801 49.72014,90.378468 46.386833,90.878448 C 45.553478,92.545132 44.761812,92.170133 44.011833,89.753448 C 43.261813,87.336804 42.678481,85.378473 42.261833,83.878448 C 41.845148,82.378476 41.345149,81.045144 40.761833,79.878448 C 40.178483,78.711813 39.47015,77.75348 38.636833,77.003448 C 37.803485,76.253482 37.845152,75.836816 38.761833,75.753448 C 39.678484,75.670149 41.053482,75.628482 42.886833,75.628448 C 44.886812,75.628482 48.553475,75.128483 53.886833,74.128448 L 53.886833,69.128448 C 50.553473,69.461822 48.053475,69.336822 46.386833,68.753448 C 44.720145,68.170157 44.803478,67.75349 46.636833,67.503448 C 48.470141,67.253491 50.886806,66.878491 53.886833,66.378448 C 53.720136,62.545162 53.136803,59.920165 52.136833,58.503448 C 51.136805,57.086834 52.011805,56.711835 54.761833,57.378448 C 57.511799,58.045167 58.595131,58.920166 58.011833,60.003448 C 57.428466,61.08683 57.053466,63.045162 56.886833,65.878448 L 56.886833,65.878448 z M 44.386833,77.878448 C 45.220145,82.378476 45.803477,86.045139 46.136833,88.878448 C 47.303476,88.711803 49.886807,88.295136 53.886833,87.628448 L 53.886833,83.128448 C 53.05347,83.295141 51.970138,83.295141 50.636833,83.128448 C 49.303474,82.961808 48.470141,82.711809 48.136833,82.378448 C 47.803475,82.045143 48.136808,81.795143 49.136833,81.628448 C 50.136806,81.46181 51.720138,81.128477 53.886833,80.628448 L 53.886833,76.128448 L 44.386833,77.878448 L 44.386833,77.878448 z M 56.636833,79.878448 C 58.803464,79.545145 60.34513,79.545145 61.261833,79.878448 C 62.178461,80.211811 62.261794,80.670144 61.511833,81.253448 C 60.761796,81.83681 59.136797,82.295142 56.636833,82.628448 L 56.636833,87.378448 C 58.470131,87.211804 60.636796,86.961804 63.136833,86.628448 C 63.970126,84.961806 64.720125,82.878475 65.386833,80.378448 C 66.053457,77.87848 66.345124,76.295148 66.261833,75.628448 C 66.178457,74.961816 65.303458,74.711817 63.636833,74.878448 C 61.970128,75.04515 59.636797,75.295149 56.636833,75.628448 L 56.636833,79.878448 z " transform="scale(0.9981269,1.0018766)" style="font-size:64px;font-style:normal;font-variant:normal;font-weight:normal;font-stretch:normal;text-align:center;line-height:100%;writing-mode:lr-tb;text-anchor:middle;fill:#000000;fill-opacity:1;stroke:#000000;stroke-width:1;stroke-miterlimit:4;stroke-opacity:0.49803922;font-family:KaiTi" id="text2168"/></g></g></svg>
