<?xml version="1.0" encoding="UTF-8" standalone="no"?>
<svg
   xmlns:dc="http://purl.org/dc/elements/1.1/"
   xmlns:cc="http://creativecommons.org/ns#"
   xmlns:rdf="http://www.w3.org/1999/02/22-rdf-syntax-ns#"
   xmlns:svg="http://www.w3.org/2000/svg"
   xmlns="http://www.w3.org/2000/svg"
   xmlns:xlink="http://www.w3.org/1999/xlink"
   xmlns:sodipodi="http://sodipodi.sourceforge.net/DTD/sodipodi-0.dtd"
   xmlns:inkscape="http://www.inkscape.org/namespaces/inkscape"
   version="1.0"
   width="108.07086"
   height="124.01575"
   id="svg2166"
   sodipodi:version="0.32"
   inkscape:version="0.91 r"
   sodipodi:docname="silverPW.svg"
   inkscape:output_extension="org.inkscape.output.svg.inkscape"
   sodipodi:modified="true">
  <metadata
     id="metadata14">
    <rdf:RDF>
      <cc:Work
         rdf:about="">
        <dc:format>image/svg+xml</dc:format>
        <dc:type
           rdf:resource="http://purl.org/dc/dcmitype/StillImage" />
        <dc:title />
        <dc:date>2007-07-22</dc:date>
        <dc:creator>
          <cc:Agent>
            <dc:title>13xforever</dc:title>
          </cc:Agent>
        </dc:creator>
        <dc:language>ja</dc:language>
        <dc:subject>
          <rdf:Bag>
            <rdf:li>narigin</rdf:li>
            <rdf:li>成銀</rdf:li>
            <rdf:li>shougi</rdf:li>
            <rdf:li>shogi</rdf:li>
            <rdf:li>将棋</rdf:li>
          </rdf:Bag>
        </dc:subject>
        <dc:coverage>board game</dc:coverage>
        <cc:license
           rdf:resource="http://creativecommons.org/licenses/by-sa/3.0/" />
      </cc:Work>
      <cc:License
         rdf:about="http://creativecommons.org/licenses/by-sa/3.0/">
        <cc:permits
           rdf:resource="http://web.resource.org/cc/Reproduction" />
        <cc:permits
           rdf:resource="http://web.resource.org/cc/Distribution" />
        <cc:requires
           rdf:resource="http://web.resource.org/cc/Notice" />
        <cc:requires
           rdf:resource="http://web.resource.org/cc/Attribution" />
        <cc:permits
           rdf:resource="http://web.resource.org/cc/DerivativeWorks" />
        <cc:requires
           rdf:resource="http://web.resource.org/cc/ShareAlike" />
      </cc:License>
    </rdf:RDF>
  </metadata>
  <sodipodi:namedview
     inkscape:window-height="1053"
     inkscape:window-width="1920"
     inkscape:pageshadow="2"
     inkscape:pageopacity="0.0"
     guidetolerance="10.0"
     gridtolerance="10.0"
     objecttolerance="10.0"
     borderopacity="1.0"
     bordercolor="#666666"
     pagecolor="#ffffff"
     id="base"
     inkscape:zoom="3.0399365"
     inkscape:cx="54.035431"
     inkscape:cy="62.007874"
     inkscape:window-x="0"
     inkscape:window-y="0"
     inkscape:current-layer="svg2166"
     showgrid="false"
     inkscape:window-maximized="1" />
  <defs
     id="defs2168">
    <linearGradient
       id="linearGradient10936">
      <stop
         style="stop-color:#fcf3e8;stop-opacity:1"
         offset="0"
         id="stop10938" />
      <stop
         style="stop-color:#ba6100;stop-opacity:1"
         offset="1"
         id="stop10940" />
    </linearGradient>
    <linearGradient
       x1="17.523264"
       y1="5.9785309"
       x2="101.69292"
       y2="113.38583"
       id="linearGradient10942"
       xlink:href="#linearGradient10936"
       gradientUnits="userSpaceOnUse"
       gradientTransform="translate(3.1889734,0)" />
    <linearGradient
       x1="104.53881"
       y1="117.17428"
       x2="1.5896676"
       y2="0.43620965"
       id="linearGradient12957"
       xlink:href="#linearGradient10936"
       gradientUnits="userSpaceOnUse"
       gradientTransform="translate(3.1889734,0)" />
  </defs>
  <g
     id="layer1"
     transform="matrix(-1,0,0,-1,108.07087,132.30939)">
    <g
       transform="matrix(0.9299803,0,0,0.9377921,3.783544,12.988526)"
       id="g12950">
      <path
         d="m 3.6843532,112.89045 100.7021568,0 L 87.439074,5.7639005 54.035433,0.49538136 20.63179,5.7639005 3.6843532,112.89045 Z"
         style="fill:url(#linearGradient12957);fill-opacity:1;fill-rule:evenodd;stroke:#000000;stroke-width:1.07080364;stroke-linecap:butt;stroke-linejoin:miter;stroke-miterlimit:4;stroke-dasharray:none;stroke-opacity:0.49803922"
         id="path9965"
         inkscape:connector-curvature="0" />
      <path
         d="m 53.005356,58.98709 c 1.806942,1.405454 2.509657,2.459526 2.108145,3.162217 -0.40159,0.702737 -0.702754,2.158359 -0.90349,4.366871 1.606165,-0.401532 3.513532,-0.803083 5.722106,-1.204654 2.208487,-0.401531 3.81469,-0.150562 4.818617,0.752909 1.003828,0.903508 0.602277,1.70661 -1.204654,2.409308 -1.807027,0.702731 -4.919047,1.355251 -9.336069,1.957563 -0.200815,4.015524 -0.301202,7.428707 -0.301164,10.239559 8.231757,-0.602321 13.803276,-1.003872 16.714576,-1.204654 2.911189,-0.200769 5.169913,0.301169 6.776179,1.505818 1.606142,1.204657 2.308856,2.208535 2.108145,3.011635 -0.20084,0.803103 -1.957625,0.903491 -5.270362,0.301164 -3.312854,-0.602326 -7.629527,-0.853295 -12.950032,-0.752909 -5.320596,0.100389 -10.490564,0.50194 -15.509921,1.204654 -5.019417,0.702715 -8.583182,1.355235 -10.691305,1.957563 -2.108162,0.602325 -4.216305,0.200774 -6.324434,-1.204654 -2.108156,-1.405429 -2.359125,-2.108143 -0.752909,-2.108145 1.806967,2e-6 4.818599,-0.250967 9.034906,-0.752909 4.216263,-0.501936 8.532936,-1.054068 12.950031,-1.656399 l 0,-10.540723 c -3.212442,0.602341 -5.471166,0.953698 -6.776179,1.054072 -1.305068,0.100401 -2.610109,-0.351343 -3.915126,-1.355236 -1.305064,-1.003862 -0.903513,-1.606189 1.204654,-1.806981 2.108118,-0.200759 5.270332,-0.60231 9.486651,-1.204654 -3.4e-5,-3.413165 -0.301197,-6.023247 -0.90349,-7.830252 l -4.517453,0 c -1.606233,2.6e-5 -2.911274,-0.250943 -3.915126,-0.752909 -1.003902,-0.501912 -1.10429,-0.853269 -0.301164,-1.054072 0.803078,-0.200748 2.559863,-0.552105 5.270362,-1.054072 2.710439,-0.50191 5.220133,-1.054043 7.529088,-1.6564 2.308881,-0.602296 4.417023,-0.953653 6.324434,-1.054072 1.907323,-0.100356 3.212364,0.251001 3.915126,1.054072 0.702666,0.803133 -0.05024,1.556041 -2.258726,2.258727 -2.208576,0.702742 -4.919045,1.355262 -8.131416,1.957563 l 0,0 z M 53.30652,34.894008 c 1.405391,1.807029 4.718186,4.718274 9.938396,8.733742 5.220115,4.015551 9.386206,6.876602 12.498287,8.58316 3.111959,1.706625 5.872622,2.961472 8.281996,3.764544 2.409238,0.803132 4.015442,1.405458 4.818617,1.806982 0.803029,0.401578 -0.702788,0.752935 -4.517453,1.054072 -3.814803,0.30119 -6.776241,0.30119 -8.884324,0 C 73.333837,58.535371 71.42647,57.631881 69.719932,56.126036 68.013286,54.620249 65.905144,52.311331 63.395498,49.199275 60.885757,46.087291 57.221604,41.9212 52.403029,36.700989 c -2.208567,3.614007 -4.567679,7.177772 -7.077342,10.691305 -2.509724,3.513609 -5.521356,6.77621 -9.034906,9.787815 -3.513592,3.01166 -7.077357,5.270384 -10.691305,6.776179 -3.613969,1.505837 -3.513581,0.803123 0.301163,-2.108145 3.814724,-2.911221 7.177713,-6.023241 10.088978,-9.336069 2.911224,-3.312763 5.220143,-6.274201 6.926761,-8.884324 1.706565,-2.61004 3.212381,-5.420896 4.517453,-8.432579 1.305009,-3.011582 1.756754,-5.420888 1.355236,-7.227924 -0.401584,-1.806922 0.30113,-2.409249 2.108145,-1.806981 1.806944,0.602385 3.262566,1.405487 4.366871,2.409308 1.104225,1.003934 1.305001,1.907423 0.602327,2.710471 -0.702754,0.803156 -1.55605,2.007809 -2.55989,3.613963 l 0,0 z"
         style="font-style:normal;font-variant:normal;font-weight:normal;font-stretch:normal;font-size:77.09786224px;line-height:100%;font-family:KaiTi;text-align:center;writing-mode:lr-tb;text-anchor:middle;fill:#de0000;fill-opacity:1;stroke:#000000;stroke-width:1.07080364;stroke-miterlimit:4;stroke-opacity:0.49803922"
         id="text11939"
         inkscape:connector-curvature="0" />
    </g>
  </g>
</svg>
