<?xml version="1.0" encoding="UTF-8" standalone="no"?><svg xmlns:dc="http://purl.org/dc/elements/1.1/" xmlns:cc="http://web.resource.org/cc/" xmlns:rdf="http://www.w3.org/1999/02/22-rdf-syntax-ns#" xmlns:svg="http://www.w3.org/2000/svg" xmlns="http://www.w3.org/2000/svg" xmlns:xlink="http://www.w3.org/1999/xlink" xmlns:sodipodi="http://sodipodi.sourceforge.net/DTD/sodipodi-0.dtd" xmlns:inkscape="http://www.inkscape.org/namespaces/inkscape" version="1.0" width="108.07086" height="124.01575" id="svg2166" sodipodi:version="0.32" inkscape:version="0.45" sodipodi:docname="ginshou.svg" inkscape:output_extension="org.inkscape.output.svg.inkscape" sodipodi:docbase="C:\Develop\Shogi\Shogi\gfx\default" sodipodi:modified="true"><metadata id="metadata15"><rdf:RDF><cc:Work rdf:about=""><dc:format>image/svg+xml</dc:format><dc:type rdf:resource="http://purl.org/dc/dcmitype/StillImage"/><cc:license rdf:resource="http://creativecommons.org/licenses/by-sa/3.0/"/><dc:title>銀将</dc:title><dc:date>2007-07-22</dc:date><dc:creator><cc:Agent><dc:title>13xforever</dc:title></cc:Agent></dc:creator><dc:language>ja</dc:language><dc:subject><rdf:Bag><rdf:li>ginshou</rdf:li><rdf:li>ginsho</rdf:li><rdf:li>銀将</rdf:li><rdf:li>shougi</rdf:li><rdf:li>shogi</rdf:li><rdf:li>将棋</rdf:li></rdf:Bag></dc:subject><dc:coverage>board game</dc:coverage></cc:Work><cc:License rdf:about="http://creativecommons.org/licenses/by-sa/3.0/"><cc:permits rdf:resource="http://web.resource.org/cc/Reproduction"/><cc:permits rdf:resource="http://web.resource.org/cc/Distribution"/><cc:requires rdf:resource="http://web.resource.org/cc/Notice"/><cc:requires rdf:resource="http://web.resource.org/cc/Attribution"/><cc:permits rdf:resource="http://web.resource.org/cc/DerivativeWorks"/><cc:requires rdf:resource="http://web.resource.org/cc/ShareAlike"/></cc:License></rdf:RDF></metadata><sodipodi:namedview inkscape:window-height="575" inkscape:window-width="765" inkscape:pageshadow="2" inkscape:pageopacity="0.0" guidetolerance="10.0" gridtolerance="10.0" objecttolerance="10.0" borderopacity="1.0" bordercolor="#666666" pagecolor="#ffffff" id="base" inkscape:zoom="3.0399365" inkscape:cx="54.035431" inkscape:cy="62.007874" inkscape:window-x="2" inkscape:window-y="400" inkscape:current-layer="svg2166"/><defs id="defs2168"><linearGradient id="linearGradient10936"><stop style="stop-color:#fcf3e8;stop-opacity:1" offset="0" id="stop10938"/><stop style="stop-color:#ba6100;stop-opacity:1" offset="1" id="stop10940"/></linearGradient><linearGradient x1="17.523264" y1="5.9785309" x2="101.69292" y2="113.38583" id="linearGradient10942" xlink:href="#linearGradient10936" gradientUnits="userSpaceOnUse" gradientTransform="translate(3.1889734,0)"/><linearGradient x1="17.523264" y1="5.9785309" x2="101.69292" y2="113.38583" id="linearGradient12957" xlink:href="#linearGradient10936" gradientUnits="userSpaceOnUse" gradientTransform="translate(3.1889734,0)"/></defs><g id="layer1"><g transform="matrix(0.9299803,0,0,0.9377921,3.783544,12.988526)" id="g12950"><path d="M 3.6843532,112.89045 L 104.38651,112.89045 L 87.439074,5.7639005 L 54.035433,0.49538136 L 20.63179,5.7639005 L 3.6843532,112.89045 z " style="fill:url(#linearGradient12957);fill-opacity:1;fill-rule:evenodd;stroke:#000000;stroke-width:1.07080364;stroke-linecap:butt;stroke-linejoin:miter;stroke-miterlimit:4;stroke-dasharray:none;stroke-opacity:0.49803922" id="path9965"/><path d="M 62.668784,27.338447 C 60.259443,28.141571 58.050913,28.676972 56.043187,28.944653 L 56.043187,29.948531 C 58.050913,30.617802 60.259443,32.02323 62.668784,34.164821 C 63.873402,32.692482 64.743429,31.554754 65.278868,30.751634 C 65.814231,29.94855 66.18232,29.111986 66.383134,28.241938 C 66.583871,27.371931 66.650796,26.736142 66.58391,26.334569 C 66.516946,25.93304 66.818109,25.899578 67.487401,26.234181 C 68.156612,26.56883 68.859326,27.104231 69.595545,27.840387 C 70.33168,28.576584 70.46553,29.078523 69.997097,29.346204 C 69.528578,29.613924 68.591626,30.350101 67.186237,31.554737 C 65.780769,32.759407 64.475728,33.830209 63.271111,34.767148 C 66.617333,37.310318 68.993176,38.849597 70.398648,39.384988 C 71.804033,39.920399 73.209462,40.355413 74.614937,40.69003 C 76.020318,41.024664 76.990733,41.35929 77.526185,41.693909 C 78.061536,42.028542 76.890345,42.296242 74.01261,42.497011 C 71.134782,42.697793 69.260877,42.664331 68.390891,42.396624 C 67.520823,42.128929 66.583871,41.426215 65.580032,40.288479 C 64.576116,39.15076 63.639164,38.046495 62.769172,36.97568 C 61.899109,35.904889 60.794844,34.767162 59.456373,33.562494 C 58.117838,32.357856 56.98011,31.554754 56.043187,31.153185 L 56.043187,43.601278 C 56.043158,44.939786 56.511634,45.307875 57.448616,44.705544 C 58.385539,44.103222 59.657117,43.43397 61.263354,42.697787 C 62.869524,41.961616 63.20415,42.028542 62.267233,42.898563 C 61.330246,43.768596 60.292906,44.672086 59.15521,45.609035 C 58.01745,46.54599 57.11396,47.44948 56.444738,48.319506 C 55.775457,49.189534 55.273519,49.892248 54.93892,50.427651 C 54.604267,50.963051 54.236179,51.230751 53.834654,51.230754 C 53.566927,51.230751 53.232301,50.628425 52.830776,49.423773 C 52.429199,48.219119 52.496124,47.148316 53.031551,46.211362 C 53.566927,45.274412 53.901553,43.534358 54.03543,40.991194 C 54.169253,38.448046 54.236179,34.834087 54.236205,30.149307 C 54.236179,25.330714 54.202716,22.017919 54.135818,20.210911 C 54.068866,18.40396 54.00194,17.165844 53.935042,16.496561 C 53.86809,15.827341 53.667315,15.225015 53.332715,14.689579 C 52.998063,14.154212 53.500002,14.020362 54.838533,14.288028 C 56.177008,14.555763 57.314736,14.522301 58.251719,14.18764 C 59.18864,13.853049 60.09213,13.518423 60.962191,13.183762 C 61.832184,12.849172 62.534898,12.380695 63.070336,11.778332 C 63.605701,11.176043 64.509191,11.14258 65.780807,11.677944 C 67.052347,12.213383 67.922374,12.681859 68.390891,13.083374 C 68.859326,13.484961 68.758938,13.986899 68.089728,14.589192 C 67.420435,15.191552 66.818109,16.396205 66.282746,18.203154 C 65.747306,20.010164 65.379218,21.616368 65.17848,23.02177 C 64.977667,24.427224 64.643041,25.79919 64.174602,27.137672 C 63.706089,28.476197 63.20415,28.543122 62.668784,27.338447 L 62.668784,27.338447 z M 43.595094,26.133793 C 44.26433,26.535367 44.465105,27.806945 44.197421,29.948531 C 45.669758,29.546999 46.707098,29.279299 47.309444,29.145429 C 47.911751,29.011598 48.514077,29.145448 49.116426,29.54698 C 49.71873,29.94855 49.517955,30.383564 48.514098,30.852022 C 47.5102,31.320516 46.004384,31.88938 43.996646,32.558615 L 43.595094,41.593521 C 46.405935,40.656576 48.346764,40.121175 49.417589,39.987315 C 50.48837,39.853474 50.889921,39.953862 50.622243,40.288479 C 50.354519,40.623113 49.58488,41.058127 48.313323,41.593521 C 47.041724,42.128929 45.234744,42.798181 42.892379,43.601278 C 40.549983,44.404385 39.010704,45.073636 38.274539,45.609035 C 37.538351,46.144439 36.802174,46.612915 36.066006,47.014464 C 35.329821,47.416017 34.627106,47.349092 33.957861,46.813689 C 33.288603,46.278289 32.686277,45.6425 32.15088,44.90632 C 31.615474,44.170147 31.983563,43.835521 33.255147,43.902441 C 34.526719,43.969371 37.371038,43.333582 41.788113,41.995072 L 41.788113,32.960167 C 39.111092,33.495584 37.304113,33.629434 36.36717,33.361718 C 35.430208,33.094033 35.697909,32.725944 37.170272,32.257452 C 38.642616,31.788992 40.181895,31.287053 41.788113,30.751634 C 41.788099,29.145448 41.654248,27.673095 41.386562,26.334569 C 40.449595,26.200741 39.579568,25.999966 38.776478,25.732242 C 37.973365,25.464564 38.642616,25.029551 40.784235,24.4272 C 42.925826,23.824898 44.39818,23.356422 45.2013,23.02177 C 46.004384,22.68717 46.807486,22.653708 47.610608,22.921382 C 48.41369,23.189109 48.514077,23.557197 47.911771,24.025649 C 47.309424,24.49415 46.774023,24.828775 46.305566,25.029527 C 45.837071,25.230326 44.933581,25.598415 43.595094,26.133793 L 43.595094,26.133793 z M 44.197421,14.488804 C 47.409812,15.29194 49.317179,15.894266 49.919528,16.295785 C 50.521832,16.697368 50.856458,17.165844 50.923407,17.701215 C 50.990308,18.236647 50.923383,18.838973 50.722631,19.508196 C 50.521832,20.177477 50.019893,20.311327 49.216813,19.909747 C 48.41369,19.508225 47.476737,18.772048 46.405954,17.701215 C 45.335132,16.630443 44.465105,15.894266 43.79587,15.492682 C 42.992752,16.831219 42.3235,18.035872 41.788113,19.106644 C 41.252697,20.177477 40.616908,21.248279 39.880744,22.319055 C 39.144555,23.389884 38.30799,24.561075 37.371048,25.83263 C 36.434086,27.104231 35.463671,28.275421 34.459801,29.346204 C 33.455916,30.417026 32.418576,31.253591 31.347778,31.8559 C 30.276971,32.458244 30.444284,31.922842 31.849717,30.249695 C 33.255141,28.576584 34.827882,26.267666 36.567945,23.322934 C 38.30799,20.378252 39.512643,18.203184 40.181908,16.797724 C 40.851146,15.392328 41.353085,14.154212 41.687725,13.083374 C 42.022337,12.012607 42.055799,11.075655 41.788113,10.272514 C 41.520398,9.469451 41.888486,9.2352129 42.892379,9.5697995 C 43.896241,9.9044645 44.699343,10.372941 45.301688,10.975229 C 45.903996,11.577594 45.970921,12.213383 45.502463,12.882598 C 45.033969,13.551886 44.598955,14.087287 44.197421,14.488804 L 44.197421,14.488804 z M 56.043187,20.71285 C 58.586314,19.642075 60.09213,19.207062 60.560639,19.407808 C 61.029082,19.608613 61.196395,19.876313 61.062579,20.210911 C 60.928695,20.545565 60.527144,20.846728 59.857925,21.114401 C 59.18864,21.38213 57.917062,21.582905 56.043187,21.716728 L 56.043187,27.338447 C 57.381661,27.070768 59.590191,26.535367 62.668784,25.732242 C 63.0703,22.519857 63.304538,20.311327 63.371499,19.106644 C 63.438388,17.902021 63.471851,16.831219 63.471887,15.894233 C 63.471851,14.957314 63.338,14.455375 63.070336,14.388416 C 62.802599,14.321525 62.133348,14.421913 61.062579,14.689579 C 59.991742,14.957314 58.318613,15.358865 56.043187,15.894233 L 56.043187,20.71285 z M 48.413711,33.361718 C 49.216792,33.763284 49.785655,34.164835 50.120304,34.566372 C 50.454907,34.967937 50.287594,35.402951 49.618365,35.871414 C 48.949091,36.339903 48.179452,36.942229 47.309444,37.678395 C 46.439397,38.414583 45.803608,38.916522 45.402075,39.184213 C 45.000506,39.451923 45.067432,39.083835 45.602851,38.079946 C 46.138234,37.07608 46.539785,36.239515 46.807505,35.57025 C 47.075186,34.901012 47.209037,34.298686 47.209057,33.763269 C 47.209037,33.094033 47.610588,32.960182 48.413711,33.361718 L 48.413711,33.361718 z M 36.36717,35.971802 C 37.705664,36.641066 38.508766,37.410706 38.776478,38.280722 C 39.044167,39.15076 38.943779,39.820011 38.475314,40.288479 C 38.006827,40.756964 37.538351,40.623113 37.069885,39.886928 C 36.601399,39.15076 36.065997,38.146882 35.463679,36.875292 C 34.861345,35.603726 35.162508,35.302563 36.36717,35.971802 L 36.36717,35.971802 z " style="font-size:51.39857483px;font-style:normal;font-variant:normal;font-weight:normal;font-stretch:normal;text-align:center;line-height:100%;writing-mode:lr-tb;text-anchor:middle;fill:#000000;fill-opacity:1;stroke:#000000;stroke-width:1.07080364;stroke-miterlimit:4;stroke-opacity:0.49803922;font-family:KaiTi" id="text11929"/><path d="M 41.361465,81.849345 C 35.003555,86.366815 31.364499,89.211135 30.444286,90.382312 C 29.524057,91.553515 28.018241,91.177061 25.926833,89.252949 C 23.835418,87.328864 23.709933,86.366815 25.550379,86.366798 C 27.390817,86.366815 29.314916,85.990361 31.32268,85.237435 C 33.330426,84.484545 36.676684,82.853244 41.361465,80.343527 C 41.528758,72.647156 41.528758,67.000346 41.361465,63.403078 C 41.194133,59.80589 40.608537,57.128884 39.604677,55.37205 C 38.600782,53.615313 38.935408,52.946061 40.608556,53.364293 C 42.281667,53.782626 43.703826,54.410049 44.875039,55.246566 C 46.046207,56.083178 46.339005,56.961571 45.753433,57.881747 C 45.167814,58.802013 44.875017,62.943007 44.875039,70.304743 C 44.875017,77.499231 44.665876,84.526373 44.247615,91.386191 C 43.829311,98.246032 43.243716,102.638 42.490828,104.5621 C 41.7379,106.48619 40.901335,106.23522 39.981132,103.80919 C 39.060893,101.38315 39.019065,98.873455 39.855647,96.280098 C 40.692194,93.686755 41.194133,88.876509 41.361465,81.849345 L 41.361465,81.849345 z M 69.721032,79.088679 C 74.238433,78.419452 77.333722,77.917513 79.006908,77.582862 C 80.67998,77.248261 82.143968,77.7502 83.398876,79.088679 C 84.653661,80.427207 84.44452,81.05463 82.771452,80.970951 C 81.098262,80.887317 76.748126,81.096458 69.721032,81.598375 C 69.888297,89.964043 70.05561,95.150743 70.222971,97.158492 C 70.390236,99.166253 70.264751,101.00669 69.846517,102.67982 C 69.428186,104.35295 68.549794,105.81694 67.211336,107.07179 C 65.872787,108.32663 64.994394,108.20115 64.576155,106.69534 C 64.15783,105.18952 62.777498,103.76736 60.435156,102.42885 C 58.092737,101.09035 58.00908,100.58841 60.184186,100.92304 C 62.359216,101.25766 63.948689,101.34132 64.952609,101.17401 C 65.956444,101.00669 66.458382,100.00282 66.458427,98.16237 L 66.458427,81.849345 C 58.594675,83.020557 53.784429,83.815293 52.027674,84.233556 C 50.270858,84.651858 48.639557,84.233575 47.133766,82.978708 C 45.627925,81.723882 45.753409,81.180115 47.51022,81.347406 C 49.266981,81.514741 55.499387,80.845489 66.207457,79.339649 C 66.0401,76.997292 65.579989,75.282335 64.827124,74.194772 C 64.074173,73.107267 64.325143,72.688985 65.580033,72.939924 C 66.834836,73.190923 68.047855,73.567377 69.219092,74.069287 C 70.390236,74.571255 70.808518,75.073194 70.473941,75.575105 C 70.139266,76.077071 69.888297,77.248261 69.721032,79.088679 L 69.721032,79.088679 z M 56.168672,64.281472 C 57.674454,64.616137 59.096614,65.24356 60.435156,66.163744 C 61.773621,67.084002 62.066418,68.087879 61.31355,69.175379 C 60.560602,70.262947 59.598553,70.262947 58.427399,69.175379 C 57.256172,68.087879 56.168638,66.707548 55.164794,65.034381 C 49.810748,68.046051 48.472244,68.255192 51.14928,65.661805 C 53.826257,63.068492 55.834012,60.558798 57.172551,58.132716 C 58.511019,55.706724 59.180271,53.824454 59.180308,52.4859 C 59.180271,51.147447 59.765866,50.687337 60.937095,51.105567 C 62.108247,51.523901 63.321265,52.109496 64.576155,52.862354 C 65.830959,53.615313 65.914615,54.326392 64.827124,54.995596 C 63.739547,55.664896 62.442872,57.087056 60.937095,59.262079 C 65.454505,59.262123 68.298824,58.885669 69.470062,58.132716 C 70.641205,57.379853 71.728739,57.254368 72.732667,57.756262 C 73.736494,58.258246 74.656715,58.885669 75.493333,59.638534 C 76.329844,60.391486 76.329844,61.018909 75.493333,61.520806 C 74.656715,62.022786 72.063365,64.406995 67.713275,68.67344 C 63.363093,72.939954 59.138442,75.658789 55.039309,76.829953 C 50.94011,78.001169 49.936232,78.001169 52.027674,76.829953 C 54.119055,75.658789 56.545092,74.069316 59.305793,72.06153 C 62.066418,70.053806 64.576112,67.627769 66.834881,64.783411 C 69.093561,61.93913 69.720984,60.51697 68.717153,60.516928 C 67.880542,60.51697 66.542039,60.642455 64.701639,60.893382 C 62.861155,61.144394 61.355338,60.935252 60.184186,60.265958 C 59.012958,61.604504 57.674454,62.943007 56.168672,64.281472 L 56.168672,64.281472 z M 30.318802,66.791168 C 29.816855,65.787327 30.611591,65.661842 32.703013,66.414714 C 34.794414,67.167658 36.174745,68.255192 36.844012,69.677319 C 37.513249,71.099512 37.513249,72.396187 36.844012,73.567348 C 36.174745,74.738568 35.380009,74.738568 34.4598,73.567348 C 33.539567,72.396187 32.744831,71.224997 32.075589,70.053773 C 31.406327,68.882616 30.820732,67.795082 30.318802,66.791168 L 30.318802,66.791168 z M 52.655098,87.621646 C 52.320441,86.283159 53.198834,86.032189 55.290279,86.868737 C 57.381657,87.705318 58.594675,88.751024 58.929338,90.005858 C 59.263927,91.260718 59.222099,92.431908 58.803853,93.519432 C 58.385534,94.606976 57.716283,94.690632 56.796096,93.770402 C 55.875841,92.85019 55.081104,91.888141 54.411885,90.884251 C 53.742601,89.880386 53.157006,88.792852 52.655098,87.621646 L 52.655098,87.621646 z " style="font-size:64.24822235px;font-style:normal;font-variant:normal;font-weight:normal;font-stretch:normal;text-align:center;line-height:100%;writing-mode:lr-tb;text-anchor:middle;fill:#000000;fill-opacity:1;stroke:#000000;stroke-width:1.07080364;stroke-miterlimit:4;stroke-opacity:0.49803922;font-family:KaiTi" id="text11939"/></g></g></svg>
