<?xml version="1.0" encoding="UTF-8" standalone="no"?><svg xmlns:dc="http://purl.org/dc/elements/1.1/" xmlns:cc="http://web.resource.org/cc/" xmlns:rdf="http://www.w3.org/1999/02/22-rdf-syntax-ns#" xmlns:svg="http://www.w3.org/2000/svg" xmlns="http://www.w3.org/2000/svg" xmlns:xlink="http://www.w3.org/1999/xlink" xmlns:sodipodi="http://sodipodi.sourceforge.net/DTD/sodipodi-0.dtd" xmlns:inkscape="http://www.inkscape.org/namespaces/inkscape" version="1.0" width="108.07086" height="124.01575" id="svg2166" sodipodi:version="0.32" inkscape:version="0.45" sodipodi:docname="narigin.svg" inkscape:output_extension="org.inkscape.output.svg.inkscape" sodipodi:docbase="C:\Develop\Shogi\Shogi\gfx\default" sodipodi:modified="true"><metadata id="metadata14"><rdf:RDF><cc:Work rdf:about=""><dc:format>image/svg+xml</dc:format><dc:type rdf:resource="http://purl.org/dc/dcmitype/StillImage"/><dc:title>成銀</dc:title><dc:date>2007-07-22</dc:date><dc:creator><cc:Agent><dc:title>13xforever</dc:title></cc:Agent></dc:creator><dc:language>ja</dc:language><dc:subject><rdf:Bag><rdf:li>narigin</rdf:li><rdf:li>成銀</rdf:li><rdf:li>shougi</rdf:li><rdf:li>shogi</rdf:li><rdf:li>将棋</rdf:li></rdf:Bag></dc:subject><dc:coverage>board game</dc:coverage><cc:license rdf:resource="http://creativecommons.org/licenses/by-sa/3.0/"/></cc:Work><cc:License rdf:about="http://creativecommons.org/licenses/by-sa/3.0/"><cc:permits rdf:resource="http://web.resource.org/cc/Reproduction"/><cc:permits rdf:resource="http://web.resource.org/cc/Distribution"/><cc:requires rdf:resource="http://web.resource.org/cc/Notice"/><cc:requires rdf:resource="http://web.resource.org/cc/Attribution"/><cc:permits rdf:resource="http://web.resource.org/cc/DerivativeWorks"/><cc:requires rdf:resource="http://web.resource.org/cc/ShareAlike"/></cc:License></rdf:RDF></metadata><sodipodi:namedview inkscape:window-height="575" inkscape:window-width="765" inkscape:pageshadow="2" inkscape:pageopacity="0.0" guidetolerance="10.0" gridtolerance="10.0" objecttolerance="10.0" borderopacity="1.0" bordercolor="#666666" pagecolor="#ffffff" id="base" inkscape:zoom="3.0399365" inkscape:cx="54.035431" inkscape:cy="62.007874" inkscape:window-x="1" inkscape:window-y="745" inkscape:current-layer="svg2166"/><defs id="defs2168"><linearGradient id="linearGradient10936"><stop style="stop-color:#fcf3e8;stop-opacity:1" offset="0" id="stop10938"/><stop style="stop-color:#ba6100;stop-opacity:1" offset="1" id="stop10940"/></linearGradient><linearGradient x1="17.523264" y1="5.9785309" x2="101.69292" y2="113.38583" id="linearGradient10942" xlink:href="#linearGradient10936" gradientUnits="userSpaceOnUse" gradientTransform="translate(3.1889734,0)"/><linearGradient x1="17.523264" y1="5.9785309" x2="101.69292" y2="113.38583" id="linearGradient12957" xlink:href="#linearGradient10936" gradientUnits="userSpaceOnUse" gradientTransform="translate(3.1889734,0)"/></defs><g id="layer1"><g transform="matrix(0.9299803,0,0,0.9377921,3.783544,12.988526)" id="g12950"><path d="M 3.6843532,112.89045 L 104.38651,112.89045 L 87.439074,5.7639005 L 54.035433,0.49538136 L 20.63179,5.7639005 L 3.6843532,112.89045 z " style="fill:url(#linearGradient12957);fill-opacity:1;fill-rule:evenodd;stroke:#000000;stroke-width:1.07080364;stroke-linecap:butt;stroke-linejoin:miter;stroke-miterlimit:4;stroke-dasharray:none;stroke-opacity:0.49803922" id="path9965"/><path d="M 53.005356,58.98709 C 54.812298,60.392544 55.515013,61.446616 55.113501,62.149307 C 54.711911,62.852044 54.410747,64.307666 54.210011,66.516178 C 55.816176,66.114646 57.723543,65.713095 59.932117,65.311524 C 62.140604,64.909993 63.746807,65.160962 64.750734,66.064433 C 65.754562,66.967941 65.353011,67.771043 63.54608,68.473741 C 61.739053,69.176472 58.627033,69.828992 54.210011,70.431304 C 54.009196,74.446828 53.908809,77.860011 53.908847,80.670863 C 62.140604,80.068542 67.712123,79.666991 70.623423,79.466209 C 73.534612,79.26544 75.793336,79.767378 77.399602,80.972027 C 79.005744,82.176684 79.708458,83.180562 79.507747,83.983662 C 79.306907,84.786765 77.550122,84.887153 74.237385,84.284826 C 70.924531,83.6825 66.607858,83.431531 61.287353,83.531917 C 55.966757,83.632306 50.796789,84.033857 45.777432,84.736571 C 40.758015,85.439286 37.19425,86.091806 35.086127,86.694134 C 32.977965,87.296459 30.869822,86.894908 28.761693,85.48948 C 26.653537,84.084051 26.402568,83.381337 28.008784,83.381335 C 29.815751,83.381337 32.827383,83.130368 37.04369,82.628426 C 41.259953,82.12649 45.576626,81.574358 49.993721,80.972027 L 49.993721,70.431304 C 46.781279,71.033645 44.522555,71.385002 43.217542,71.485376 C 41.912474,71.585777 40.607433,71.134033 39.302416,70.13014 C 37.997352,69.126278 38.398903,68.523951 40.50707,68.323159 C 42.615188,68.1224 45.777402,67.720849 49.993721,67.118505 C 49.993687,63.70534 49.692524,61.095258 49.090231,59.288253 L 44.572778,59.288253 C 42.966545,59.288279 41.661504,59.03731 40.657652,58.535344 C 39.65375,58.033432 39.553362,57.682075 40.356488,57.481272 C 41.159566,57.280524 42.916351,56.929167 45.62685,56.4272 C 48.337289,55.92529 50.846983,55.373157 53.155938,54.7708 C 55.464819,54.168504 57.572961,53.817147 59.480372,53.716728 C 61.387695,53.616372 62.692736,53.967729 63.395498,54.7708 C 64.098164,55.573933 63.345256,56.326841 61.136772,57.029527 C 58.928196,57.732269 56.217727,58.384789 53.005356,58.98709 L 53.005356,58.98709 z M 53.30652,34.894008 C 54.711911,36.701037 58.024706,39.612282 63.244916,43.62775 C 68.465031,47.643301 72.631122,50.504352 75.743203,52.21091 C 78.855162,53.917535 81.615825,55.172382 84.025199,55.975454 C 86.434437,56.778586 88.040641,57.380912 88.843816,57.782436 C 89.646845,58.184014 88.141028,58.535371 84.326363,58.836508 C 80.51156,59.137698 77.550122,59.137698 75.442039,58.836508 C 73.333837,58.535371 71.42647,57.631881 69.719932,56.126036 C 68.013286,54.620249 65.905144,52.311331 63.395498,49.199275 C 60.885757,46.087291 57.221604,41.9212 52.403029,36.700989 C 50.194462,40.314996 47.83535,43.878761 45.325687,47.392294 C 42.815963,50.905903 39.804331,54.168504 36.290781,57.180109 C 32.777189,60.191769 29.213424,62.450493 25.599476,63.956288 C 21.985507,65.462125 22.085895,64.759411 25.900639,61.848143 C 29.715363,58.936922 33.078352,55.824902 35.989617,52.512074 C 38.900841,49.199311 41.20976,46.237873 42.916378,43.62775 C 44.622943,41.01771 46.128759,38.206854 47.433831,35.195171 C 48.73884,32.183589 49.190585,29.774283 48.789067,27.967247 C 48.387483,26.160325 49.090197,25.557998 50.897212,26.160266 C 52.704156,26.762651 54.159778,27.565753 55.264083,28.569574 C 56.368308,29.573508 56.569084,30.476997 55.86641,31.280045 C 55.163656,32.083201 54.31036,33.287854 53.30652,34.894008 L 53.30652,34.894008 z " style="font-size:77.09786224px;font-style:normal;font-variant:normal;font-weight:normal;font-stretch:normal;text-align:center;line-height:100%;writing-mode:lr-tb;text-anchor:middle;fill:#de0000;fill-opacity:1;stroke:#000000;stroke-width:1.07080364;stroke-miterlimit:4;stroke-opacity:0.49803922;font-family:KaiTi" id="text11939"/></g></g></svg>
